<svg width="200" height="200" viewBox="0 0 200 200" fill="none" xmlns="http://www.w3.org/2000/svg">
<path d="M106.57 65.44C106.7 65.5314 106.861 65.5669 107.018 65.5388C107.175 65.5107 107.316 65.4213 107.41 65.29C119.17 48.77 143.66 47.68 156.01 64.35C160.177 69.97 162.24 76.88 162.2 85.08C162.2 85.2651 162.253 85.4467 162.354 85.6028C162.455 85.7589 162.6 85.883 162.77 85.96C189.56 98.02 188.61 137.22 160.1 146.14C156.747 147.187 150.747 147.717 142.1 147.73C116.067 147.77 90.0333 147.787 64 147.78C58.96 147.78 54.33 146.84 50.11 144.96C48.9967 144.46 48.55 143.61 48.77 142.41C49.39 138.98 54.8 141.79 56.85 142.19C58.4567 142.51 60.2833 142.683 62.33 142.71C91.3833 143.023 120.44 143.123 149.5 143.01C178.62 142.9 188.61 104.33 162.4 91.12C160.793 90.3133 159.233 89.5833 157.72 88.93C157.486 88.8314 157.292 88.6597 157.165 88.4412C157.039 88.2226 156.988 87.9693 157.02 87.72C160.48 58.57 125.13 44.56 109.67 70.61C109.516 70.8714 109.309 71.0982 109.063 71.2764C108.817 71.4546 108.537 71.5804 108.24 71.646C107.943 71.7116 107.635 71.7156 107.336 71.6578C107.036 71.6 106.752 71.4817 106.5 71.31C105.493 70.63 104.26 69.79 102.8 68.79C88.1 58.67 69.32 64.71 62.09 80.59C61.9901 80.8071 61.8466 81.0013 61.6684 81.1603C61.4903 81.3193 61.2814 81.4397 61.055 81.5139C60.8286 81.5882 60.5895 81.6146 60.3528 81.5915C60.1162 81.5685 59.8871 81.4965 59.68 81.38C58.24 80.5733 57.7633 79.5767 58.25 78.39C66.26 58.9 89.34 53.62 106.57 65.44Z" fill="white"/>
<path d="M98.86 118.6L98.5 125.38C98.4821 125.729 98.3302 126.059 98.0755 126.301C97.8207 126.542 97.4824 126.678 97.13 126.68L85.59 126.77C85.1996 126.773 84.8232 126.626 84.5398 126.359C84.2565 126.093 84.0881 125.727 84.07 125.34L83.71 118.76C83.7051 118.642 83.6561 118.531 83.5727 118.447C83.4894 118.364 83.3778 118.315 83.26 118.31L77.56 118.08C77.3971 118.075 77.2367 118.121 77.1019 118.213C76.9672 118.304 76.8649 118.437 76.81 118.59C67.92 143.75 34.45 148.7 21.42 124.47C8.75999 100.91 29.99 74.49 55.74 81.03C64.5667 83.27 71.1233 88.8566 75.41 97.79C75.4668 97.9071 75.5546 98.0063 75.664 98.0768C75.7733 98.1474 75.8999 98.1865 76.03 98.19L108.75 98.41C109.061 98.4128 109.36 98.2941 109.584 98.0792C109.808 97.8643 109.94 97.5703 109.95 97.26L110.14 91.87C110.146 91.6881 110.196 91.5103 110.287 91.3517C110.378 91.1932 110.506 91.0587 110.66 90.96C112.97 89.55 114.46 90.83 114.53 93.29C114.977 108.557 114.963 120.96 114.49 130.5C114.37 132.96 109.38 133.48 110.12 128.63C110.154 128.408 110.14 128.181 110.08 127.965C110.019 127.748 109.913 127.547 109.768 127.374C109.624 127.201 109.444 127.06 109.241 126.961C109.038 126.863 108.816 126.808 108.59 126.8L101.91 126.61C101.76 126.605 101.617 126.549 101.504 126.45C101.391 126.352 101.315 126.218 101.29 126.07C101.18 125.4 101.2 117.64 99.4 117.98C99.2526 118.009 99.1192 118.086 99.0213 118.198C98.9234 118.311 98.8666 118.452 98.86 118.6ZM72.04 101.98C68.4933 92.8933 62.16 87.3633 53.04 85.39C39.17 82.39 25.29 91.56 22.85 105.46C17.19 137.72 64.48 147.93 72.93 114.86C73.036 114.447 73.2749 114.081 73.6096 113.819C73.9443 113.556 74.3558 113.413 74.78 113.41L86.76 113.33C87.2091 113.327 87.6411 113.502 87.9615 113.817C88.2819 114.132 88.4647 114.561 88.47 115.01L88.51 121.47C88.5113 121.562 88.5309 121.653 88.5675 121.738C88.6042 121.823 88.6572 121.899 88.7234 121.962C88.7896 122.026 88.8677 122.075 88.953 122.107C89.0383 122.139 89.1291 122.154 89.22 122.15L93.35 121.96C93.4978 121.953 93.6374 121.89 93.7412 121.784C93.8449 121.679 93.9052 121.538 93.91 121.39L94.22 114.24C94.2277 114.061 94.3045 113.892 94.4347 113.768C94.5649 113.643 94.7385 113.572 94.92 113.57L103.83 113.46C104.045 113.459 104.259 113.5 104.458 113.581C104.658 113.662 104.839 113.782 104.993 113.933C105.146 114.085 105.268 114.265 105.351 114.463C105.435 114.662 105.479 114.875 105.48 115.09L105.51 121.63C105.51 121.711 105.526 121.79 105.558 121.864C105.591 121.938 105.638 122.004 105.697 122.059C105.756 122.113 105.826 122.155 105.903 122.181C105.979 122.207 106.06 122.217 106.14 122.21L109.42 121.95C109.578 121.937 109.726 121.865 109.833 121.749C109.941 121.632 110 121.479 110 121.32V103.8C110.001 103.668 109.952 103.54 109.864 103.441C109.776 103.341 109.653 103.277 109.52 103.26C98.3 101.99 85.42 103.14 74 103.3C73.5776 103.306 73.1635 103.183 72.8131 102.947C72.4628 102.711 72.193 102.374 72.04 101.98Z" fill="white"/>
<path d="M139.493 96.1998C139.498 97.6399 138.931 99.0231 137.916 100.045C136.902 101.067 135.523 101.644 134.082 101.649L133.362 101.651C131.922 101.656 130.539 101.089 129.517 100.074C128.495 99.0595 127.919 97.6803 127.914 96.2402L127.887 88.5202C127.882 87.0801 128.449 85.697 129.464 84.6751C130.478 83.6533 131.857 83.0763 133.298 83.0713L134.018 83.0688C135.458 83.0638 136.841 83.6311 137.863 84.6458C138.885 85.6606 139.461 87.0397 139.467 88.4798L139.493 96.1998ZM134.73 88.72C134.73 88.4654 134.629 88.2212 134.449 88.0412C134.269 87.8612 134.025 87.76 133.77 87.76H133.71C133.584 87.76 133.459 87.7848 133.343 87.8331C133.226 87.8813 133.12 87.952 133.031 88.0412C132.942 88.1303 132.871 88.2362 132.823 88.3526C132.775 88.4691 132.75 88.5939 132.75 88.72V96C132.75 96.1261 132.775 96.2509 132.823 96.3674C132.871 96.4839 132.942 96.5897 133.031 96.6788C133.12 96.768 133.226 96.8387 133.343 96.8869C133.459 96.9352 133.584 96.96 133.71 96.96H133.77C134.025 96.96 134.269 96.8589 134.449 96.6788C134.629 96.4988 134.73 96.2546 134.73 96V88.72Z" fill="white"/>
<path d="M121.55 83.8297L121.37 83.8304C120.177 83.8345 119.213 84.8049 119.218 85.9979L119.262 98.8778C119.267 100.071 120.237 101.034 121.43 101.03L121.61 101.03C122.803 101.025 123.767 100.055 123.762 98.8621L123.718 85.9822C123.713 84.7892 122.743 83.8256 121.55 83.8297Z" fill="white"/>
<path d="M146.06 83.99H145.44C144.369 83.99 143.5 84.8586 143.5 85.93V99.07C143.5 100.141 144.369 101.01 145.44 101.01H146.06C147.131 101.01 148 100.141 148 99.07V85.93C148 84.8586 147.131 83.99 146.06 83.99Z" fill="white"/>
<path d="M35.78 116.09C39.0992 116.09 41.79 113.399 41.79 110.08C41.79 106.761 39.0992 104.07 35.78 104.07C32.4608 104.07 29.77 106.761 29.77 110.08C29.77 113.399 32.4608 116.09 35.78 116.09Z" fill="white"/>
<path d="M173.635 121.63C173.629 122.334 173.484 123.029 173.209 123.677C172.934 124.325 172.534 124.913 172.032 125.406C171.53 125.899 170.936 126.289 170.283 126.553C169.631 126.816 168.933 126.949 168.229 126.943L167.529 126.937C166.825 126.93 166.129 126.786 165.481 126.511C164.833 126.236 164.246 125.836 163.753 125.334C163.259 124.832 162.869 124.237 162.606 123.585C162.342 122.932 162.21 122.234 162.216 121.53L162.285 113.63C162.291 112.926 162.436 112.231 162.711 111.583C162.986 110.935 163.386 110.347 163.888 109.854C164.39 109.361 164.984 108.971 165.637 108.707C166.289 108.444 166.987 108.311 167.691 108.317L168.391 108.323C169.095 108.33 169.791 108.474 170.439 108.749C171.087 109.024 171.674 109.424 172.168 109.926C172.661 110.428 173.051 111.023 173.314 111.675C173.578 112.328 173.71 113.026 173.704 113.73L173.635 121.63ZM168.974 114.108C168.974 113.969 168.946 113.831 168.893 113.703C168.839 113.574 168.761 113.457 168.662 113.359C168.564 113.261 168.447 113.183 168.318 113.13C168.189 113.077 168.051 113.05 167.912 113.05L167.832 113.05C167.551 113.051 167.282 113.163 167.083 113.362C166.885 113.561 166.773 113.831 166.774 114.112L166.786 121.152C166.786 121.291 166.814 121.429 166.868 121.557C166.921 121.686 166.999 121.803 167.098 121.901C167.196 121.999 167.313 122.077 167.442 122.13C167.571 122.183 167.709 122.21 167.848 122.21L167.928 122.21C168.209 122.209 168.479 122.097 168.677 121.898C168.875 121.699 168.987 121.429 168.986 121.148L168.974 114.108Z" fill="white"/>
<path d="M128.71 121.65C128.714 122.365 128.577 123.075 128.306 123.737C128.036 124.4 127.637 125.003 127.134 125.512C126.631 126.02 126.032 126.425 125.372 126.702C124.712 126.98 124.004 127.124 123.289 127.128L122.569 127.132C121.853 127.136 121.144 126.998 120.481 126.728C119.818 126.457 119.215 126.059 118.707 125.556C118.198 125.052 117.793 124.454 117.516 123.794C117.239 123.134 117.094 122.426 117.09 121.71L117.05 114.011C117.046 113.295 117.183 112.585 117.454 111.923C117.724 111.26 118.123 110.657 118.626 110.148C119.129 109.64 119.728 109.235 120.388 108.958C121.048 108.68 121.756 108.536 122.471 108.532L123.191 108.528C123.907 108.524 124.616 108.662 125.279 108.932C125.942 109.203 126.545 109.601 127.053 110.104C127.562 110.608 127.967 111.206 128.244 111.866C128.521 112.526 128.666 113.234 128.67 113.95L128.71 121.65ZM123.97 114.31C123.97 114.029 123.858 113.759 123.66 113.56C123.461 113.362 123.191 113.25 122.91 113.25H122.83C122.549 113.25 122.279 113.362 122.08 113.56C121.882 113.759 121.77 114.029 121.77 114.31V121.37C121.77 121.509 121.797 121.647 121.851 121.776C121.904 121.904 121.982 122.021 122.08 122.12C122.179 122.218 122.296 122.296 122.424 122.349C122.553 122.403 122.691 122.43 122.83 122.43H122.91C123.049 122.43 123.187 122.403 123.316 122.349C123.444 122.296 123.561 122.218 123.66 122.12C123.758 122.021 123.836 121.904 123.889 121.776C123.943 121.647 123.97 121.509 123.97 121.37V114.31Z" fill="white"/>
<path d="M151.477 121.76C151.478 122.465 151.34 123.164 151.072 123.816C150.803 124.468 150.408 125.06 149.911 125.56C149.413 126.059 148.822 126.456 148.171 126.727C147.519 126.998 146.821 127.138 146.116 127.139L145.436 127.141C144.012 127.143 142.645 126.58 141.636 125.574C140.628 124.569 140.059 123.204 140.057 121.78L140.043 113.9C140.042 113.195 140.18 112.496 140.448 111.844C140.717 111.192 141.112 110.6 141.609 110.1C142.107 109.601 142.698 109.204 143.349 108.933C144.001 108.662 144.699 108.522 145.404 108.521L146.084 108.519C147.508 108.517 148.875 109.08 149.884 110.086C150.892 111.091 151.461 112.456 151.463 113.88L151.477 121.76ZM146.756 114.022C146.757 113.923 146.737 113.826 146.7 113.735C146.662 113.644 146.607 113.561 146.538 113.491C146.468 113.421 146.386 113.366 146.295 113.328C146.204 113.29 146.106 113.271 146.008 113.27L145.508 113.27C145.409 113.269 145.312 113.289 145.221 113.326C145.13 113.364 145.047 113.419 144.977 113.488C144.907 113.558 144.852 113.64 144.814 113.731C144.776 113.822 144.757 113.92 144.756 114.018L144.743 121.518C144.743 121.617 144.763 121.714 144.8 121.805C144.838 121.896 144.893 121.979 144.962 122.049C145.032 122.119 145.114 122.174 145.205 122.212C145.296 122.25 145.394 122.269 145.492 122.27L145.992 122.27C146.091 122.271 146.188 122.251 146.279 122.214C146.37 122.176 146.453 122.121 146.523 122.052C146.593 121.982 146.648 121.9 146.686 121.809C146.724 121.718 146.743 121.62 146.743 121.522L146.756 114.022Z" fill="white"/>
<path d="M134.085 109.269L133.385 109.271C132.336 109.272 131.487 110.125 131.488 111.174L131.512 124.374C131.513 125.423 132.365 126.272 133.415 126.271L134.115 126.269C135.164 126.268 136.013 125.415 136.012 124.366L135.988 111.166C135.987 110.117 135.135 109.268 134.085 109.269Z" fill="white"/>
<path d="M157.565 109.269L156.945 109.271C155.874 109.272 155.007 110.142 155.009 111.214L155.031 124.334C155.033 125.405 155.903 126.272 156.975 126.271L157.595 126.269C158.666 126.268 159.533 125.397 159.531 124.326L159.509 111.206C159.507 110.135 158.637 109.268 157.565 109.269Z" fill="white"/>
</svg>
