<svg xmlns="http://www.w3.org/2000/svg" xmlns:xlink="http://www.w3.org/1999/xlink" width="200" zoomAndPan="magnify" viewBox="0 0 150 149.999998" height="200" preserveAspectRatio="xMidYMid meet" version="1.0"><defs><clipPath id="ab7acd23df"><path d="M 3.132812 17.507812 L 147.132812 17.507812 L 147.132812 103 L 3.132812 103 Z M 3.132812 17.507812 " clip-rule="nonzero"/></clipPath><clipPath id="5ecf683ad4"><path d="M 70 118 L 84 118 L 84 132.257812 L 70 132.257812 Z M 70 118 " clip-rule="nonzero"/></clipPath></defs><g clip-path="url(#ab7acd23df)"><path fill="#ffffff" d="M 23.410156 102.972656 C 23.355469 102.972656 23.300781 102.96875 23.246094 102.960938 C 11.988281 101.875 3.171875 91.550781 3.171875 79.457031 C 3.171875 63.550781 18.558594 52.191406 33.746094 56.582031 C 35.828125 42.152344 50.382812 33.015625 64.328125 37.214844 C 68.679688 25.355469 79.867188 17.507812 92.691406 17.507812 C 112.742188 17.507812 127.136719 36.636719 121.804688 55.683594 C 135.542969 54.914062 147.082031 65.808594 147.082031 79.457031 C 147.082031 90.921875 138.871094 100.785156 127.554688 102.90625 Z M 23.410156 102.972656 " fill-opacity="1" fill-rule="evenodd"/></g><path fill="#ffffff" d="M 35.3125 123.207031 C 26.300781 123.207031 26.300781 109.566406 35.3125 109.566406 C 44.324219 109.566406 44.324219 123.207031 35.3125 123.207031 Z M 35.3125 123.207031 " fill-opacity="1" fill-rule="evenodd"/><path fill="#ffffff" d="M 123.265625 123.191406 C 114.253906 123.191406 114.253906 109.550781 123.265625 109.550781 C 132.277344 109.550781 132.277344 123.191406 123.265625 123.191406 Z M 123.265625 123.191406 " fill-opacity="1" fill-rule="evenodd"/><path fill="#ffffff" d="M 52.320312 113.308594 L 52.320312 101.28125 C 52.320312 97.226562 58.503906 97.226562 58.503906 101.28125 L 58.503906 116.386719 C 58.503906 118.089844 57.117188 119.46875 55.410156 119.46875 L 40.472656 119.46875 C 36.402344 119.46875 36.402344 113.308594 40.472656 113.308594 Z M 106.257812 113.292969 L 118.105469 113.292969 C 122.175781 113.292969 122.175781 119.453125 118.105469 119.453125 L 103.164062 119.453125 C 101.460938 119.453125 100.074219 118.074219 100.074219 116.375 L 100.074219 101.265625 C 100.074219 97.210938 106.257812 97.210938 106.257812 101.265625 Z M 77.214844 123.371094 C 75.511719 123.371094 74.125 121.992188 74.125 120.292969 L 74.125 101.273438 C 74.125 97.214844 80.308594 97.214844 80.308594 101.273438 L 80.308594 120.292969 C 80.308594 121.992188 78.921875 123.371094 77.214844 123.371094 Z M 77.214844 123.371094 " fill-opacity="1" fill-rule="evenodd"/><g clip-path="url(#5ecf683ad4)"><path fill="#ffffff" d="M 77.214844 132.253906 C 68.207031 132.253906 68.207031 118.613281 77.214844 118.613281 C 86.230469 118.613281 86.230469 132.253906 77.214844 132.253906 Z M 77.214844 132.253906 " fill-opacity="1" fill-rule="evenodd"/></g></svg>