<svg width="512" height="512" viewBox="0 0 512 512" fill="none" xmlns="http://www.w3.org/2000/svg">
<path d="M26.64 159.69C23.99 157.58 22.47 151.81 26.12 149.66C92.32 110.653 158.51 71.6333 224.69 32.6C238.717 24.3267 253.483 21.96 268.99 25.5C279.06 27.79 286.14 32.15 297.24 38.67C359.44 75.19 421.633 111.72 483.82 148.26C487.51 150.43 488.74 152.68 487.54 156.8C486.87 159.11 485.86 160 483.33 160C331.403 160 179.473 160 27.54 160C27.2153 160 26.8987 159.891 26.64 159.69ZM295.93 95.99C295.93 85.3999 291.723 75.2436 284.235 67.7552C276.746 60.2669 266.59 56.06 256 56.06C245.41 56.06 235.254 60.2669 227.765 67.7552C220.277 75.2436 216.07 85.3999 216.07 95.99C216.07 106.58 220.277 116.736 227.765 124.225C235.254 131.713 245.41 135.92 256 135.92C266.59 135.92 276.746 131.713 284.235 124.225C291.723 116.736 295.93 106.58 295.93 95.99Z" fill="white"/>
<path d="M255.99 119.92C269.206 119.92 279.92 109.206 279.92 95.99C279.92 82.7738 269.206 72.06 255.99 72.06C242.774 72.06 232.06 82.7738 232.06 95.99C232.06 109.206 242.774 119.92 255.99 119.92Z" fill="white"/>
<path d="M88.66 176.09C109.54 175.71 126.75 176.37 151.24 175.95C151.377 175.947 151.509 175.994 151.612 176.083C151.714 176.172 151.777 176.296 151.79 176.43C152.78 185.53 152.23 191.98 141.25 191.99C127.143 192.003 113.037 192.007 98.93 192C87.82 192 87.47 186.18 88.12 176.6C88.1276 176.464 88.1875 176.335 88.2877 176.241C88.3879 176.146 88.5209 176.092 88.66 176.09Z" fill="white"/>
<path d="M231.07 191.98C223.54 191.96 223.75 181.96 224.12 176.59C224.13 176.453 224.19 176.325 224.288 176.23C224.386 176.136 224.515 176.082 224.65 176.08C245.55 175.74 263.34 176.37 287.24 175.95C287.376 175.947 287.509 175.995 287.612 176.086C287.716 176.176 287.783 176.302 287.8 176.44C288.73 185.43 288.3 191.97 277.33 191.99C261.91 192.017 246.49 192.013 231.07 191.98Z" fill="white"/>
<path d="M423.78 176.44C425.28 183.92 423.9 191.97 414.69 191.98C400.103 192 385.517 192.007 370.93 192C359.82 191.99 359.47 186.18 360.12 176.6C360.128 176.461 360.187 176.33 360.288 176.234C360.388 176.137 360.521 176.082 360.66 176.08C381.53 175.73 399.22 176.38 423.18 175.95C423.32 175.948 423.457 175.995 423.567 176.085C423.677 176.174 423.752 176.3 423.78 176.44Z" fill="white"/>
<path d="M104.25 208H135.74C135.893 208 136.04 208.059 136.15 208.166C136.26 208.272 136.325 208.417 136.33 208.57L143.65 391.39C143.653 391.469 143.639 391.548 143.611 391.622C143.583 391.696 143.539 391.763 143.484 391.82C143.429 391.877 143.363 391.922 143.291 391.953C143.218 391.984 143.139 392 143.06 392H96.93C96.8508 392 96.7724 391.984 96.6995 391.953C96.6266 391.922 96.5606 391.877 96.5056 391.82C96.4505 391.763 96.4075 391.696 96.379 391.622C96.3506 391.548 96.3373 391.469 96.34 391.39L103.66 208.57C103.665 208.417 103.73 208.272 103.84 208.166C103.95 208.059 104.097 208 104.25 208Z" fill="white"/>
<path d="M240.25 208H271.74C271.893 208 272.04 208.059 272.15 208.166C272.26 208.272 272.325 208.417 272.33 208.57L279.65 391.39C279.653 391.469 279.639 391.548 279.611 391.622C279.583 391.696 279.539 391.763 279.484 391.82C279.429 391.877 279.363 391.922 279.291 391.953C279.218 391.984 279.139 392 279.06 392H232.93C232.851 392 232.772 391.984 232.699 391.953C232.627 391.922 232.561 391.877 232.506 391.82C232.451 391.763 232.407 391.696 232.379 391.622C232.351 391.548 232.337 391.469 232.34 391.39L239.66 208.57C239.665 208.417 239.73 208.272 239.84 208.166C239.95 208.059 240.097 208 240.25 208Z" fill="white"/>
<path d="M376.25 208H407.74C407.893 208 408.04 208.059 408.15 208.166C408.26 208.272 408.325 208.417 408.33 208.57L415.65 391.39C415.653 391.469 415.639 391.548 415.611 391.622C415.583 391.696 415.539 391.763 415.484 391.82C415.429 391.877 415.363 391.922 415.291 391.953C415.218 391.984 415.139 392 415.06 392H368.93C368.851 392 368.772 391.984 368.699 391.953C368.627 391.922 368.561 391.877 368.506 391.82C368.451 391.763 368.407 391.696 368.379 391.622C368.351 391.548 368.337 391.469 368.34 391.39L375.66 208.57C375.665 208.417 375.73 208.272 375.84 208.166C375.95 208.059 376.097 208 376.25 208Z" fill="white"/>
<path d="M152.25 408.01C160.59 408.01 160.31 417.65 159.87 423.45C159.86 423.6 159.792 423.74 159.681 423.842C159.569 423.944 159.422 424.001 159.27 424H80.32C80.2806 424 80.2416 423.992 80.2052 423.977C80.1688 423.962 80.1357 423.94 80.1079 423.912C80.08 423.884 80.0579 423.851 80.0429 423.815C80.0278 423.778 80.02 423.739 80.02 423.7C79.97 415.55 79.01 408.02 89.72 408.01C110.56 407.997 131.403 407.997 152.25 408.01Z" fill="white"/>
<path d="M288.25 408.01C296.59 408.01 296.31 417.65 295.87 423.45C295.86 423.6 295.792 423.74 295.681 423.842C295.569 423.944 295.422 424.001 295.27 424H216.32C216.281 424 216.242 423.992 216.205 423.977C216.169 423.962 216.136 423.94 216.108 423.912C216.08 423.884 216.058 423.851 216.043 423.815C216.028 423.778 216.02 423.739 216.02 423.7C215.97 415.55 215.01 408.02 225.72 408.01C246.56 407.997 267.403 407.997 288.25 408.01Z" fill="white"/>
<path d="M424.25 408.01C432.59 408.01 432.31 417.65 431.87 423.45C431.86 423.6 431.792 423.74 431.681 423.842C431.569 423.944 431.422 424.001 431.27 424H352.32C352.281 424 352.242 423.992 352.205 423.977C352.169 423.962 352.136 423.94 352.108 423.912C352.08 423.884 352.058 423.851 352.043 423.815C352.028 423.778 352.02 423.739 352.02 423.7C351.97 415.55 351.01 408.02 361.72 408.01C382.56 407.997 403.403 407.997 424.25 408.01Z" fill="white"/>
<path d="M448 440.02C456.53 440.05 456.52 449.79 455.76 455.53C455.743 455.661 455.68 455.78 455.582 455.867C455.484 455.954 455.359 456.001 455.23 456H56.46C56.3433 456 56.2314 455.954 56.1489 455.871C56.0664 455.789 56.02 455.677 56.02 455.56C55.96 447.09 55.16 440.05 66.04 440.02C139.29 439.88 212.56 439.89 285.81 439.89C359.99 439.89 414.053 439.933 448 440.02Z" fill="white"/>
<path d="M479.98 472H32C27.6093 472 24.05 475.559 24.05 479.95V480.05C24.05 484.441 27.6093 488 32 488H479.98C484.371 488 487.93 484.441 487.93 480.05V479.95C487.93 475.559 484.371 472 479.98 472Z" fill="white"/>
</svg>
