<svg xmlns="http://www.w3.org/2000/svg" xmlns:xlink="http://www.w3.org/1999/xlink" width="200" zoomAndPan="magnify" viewBox="0 0 150 149.999998" height="200" preserveAspectRatio="xMidYMid meet" version="1.0"><defs><clipPath id="a532d272a4"><path d="M 17.484375 3.664062 L 132.234375 3.664062 L 132.234375 146.164062 L 17.484375 146.164062 Z M 17.484375 3.664062 " clip-rule="nonzero"/></clipPath></defs><g clip-path="url(#a532d272a4)"><path stroke-linecap="butt" transform="matrix(0.0879985, 0, 0, 0.0881127, 17.440027, 3.624779)" fill-opacity="1" fill="#ffffff" fill-rule="evenodd" stroke-linejoin="miter" d="M 652.9923 1.509814 L 658.008368 1.509814 L 671.014632 8.514338 C 679.670679 13.169244 688.770625 17.912814 698.270081 22.745049 C 707.769537 27.577284 713.895354 30.76922 716.736313 32.23219 C 719.577272 33.739493 721.352871 34.670474 722.018721 34.980801 C 722.684571 35.33546 728.011369 37.995406 737.999114 43.004971 C 747.98686 48.014536 757.486316 52.492112 766.497483 56.482031 C 775.508649 60.516282 781.146177 63.176228 783.498846 64.506201 C 785.851515 65.836174 789.669053 67.653804 794.995851 70.003422 C 800.322649 72.353041 804.317747 74.170671 806.981146 75.500644 C 809.644545 76.830617 815.504022 79.490563 824.515188 83.480482 C 833.481965 87.514733 844.00239 91.992309 855.987685 97.001874 C 868.01737 102.011439 881.822655 107.50866 897.492318 113.493539 C 913.161982 119.478417 921.507298 122.670352 922.483878 122.980679 C 923.504847 123.335339 929.497495 125.330298 940.50621 129.00989 C 951.514926 132.64515 959.993412 135.482425 965.98606 137.521717 C 971.978707 139.516677 975.174786 140.49199 975.485516 140.49199 C 975.840636 140.49199 986.005941 143.506596 1005.981433 149.491474 C 1026.001315 155.520685 1038.519289 159.155944 1043.490967 160.485917 C 1048.507035 161.81589 1058.006491 163.98818 1071.989336 167.002785 C 1086.01657 170.01739 1098.179425 172.500007 1108.4779 174.494966 C 1118.820766 176.489926 1138.840648 180.169517 1168.493155 185.489409 C 1198.145663 190.853634 1216.345556 194.001236 1223.004053 195.020882 C 1229.66255 195.996196 1237.342017 197.148839 1245.998063 198.478812 C 1254.65411 199.853118 1263.354546 201.183091 1272.010592 202.513064 C 1280.666639 203.843036 1288.079766 205.394672 1294.249973 207.256634 L 1303.483089 210.005245 L 1302.01822 275.484248 C 1300.99725 319.151694 1298.511411 380.68511 1294.516313 459.995832 C 1290.521215 539.350886 1287.813426 588.160895 1286.481726 606.514522 C 1285.150027 624.823816 1283.019308 644.152757 1280.000789 664.501344 C 1276.98227 684.84993 1274.673991 700.011622 1272.987172 709.98642 C 1271.344743 720.005549 1269.169634 730.999993 1266.506235 743.014082 C 1263.842836 754.983839 1261.667727 765.002968 1259.980907 772.982806 C 1258.338478 781.006977 1256.340929 789.829131 1253.98826 799.493601 C 1251.679981 809.158071 1249.149752 819.177201 1246.486353 829.506658 C 1243.822954 839.836115 1240.493705 852.337861 1236.498607 867.011896 C 1232.503509 881.685931 1230.3284 889.843099 1230.01767 891.483399 C 1229.66255 893.168031 1226.821591 902.477842 1221.494793 919.501496 C 1216.167996 936.480818 1209.509498 955.499431 1201.519302 976.513004 C 1193.484715 997.482245 1188.823767 1009.319004 1187.492068 1011.97895 C 1186.160368 1014.683229 1183.985259 1020.003121 1181.01113 1027.982959 C 1177.992611 1036.007129 1171.644844 1050.149175 1162.012218 1070.497761 C 1152.335202 1090.846348 1145.499145 1104.678067 1141.504047 1111.992918 C 1137.508948 1119.352102 1131.427521 1130.479543 1123.259764 1145.508237 C 1115.092008 1160.4926 1110.56423 1168.51677 1109.76521 1169.492083 C 1108.9218 1170.511729 1105.814501 1175.521294 1100.487704 1184.520778 C 1095.160906 1193.520262 1090.100448 1201.766094 1085.26194 1209.258275 C 1080.423432 1216.750457 1076.561504 1222.602338 1073.764935 1226.769586 C 1070.923976 1230.936835 1067.062048 1236.744384 1062.26793 1244.236565 C 1057.429422 1251.728746 1053.256763 1257.935286 1049.749955 1262.767522 C 1046.243146 1267.599757 1042.736338 1272.431992 1039.229529 1277.264227 C 1035.767111 1282.096462 1032.926152 1286.086381 1030.751043 1289.233984 C 1028.575934 1292.425919 1026.755944 1295.085865 1025.246685 1297.258154 C 1023.737426 1299.430443 1021.074027 1303.065703 1017.256488 1308.252597 C 1013.39456 1313.39516 1009.754581 1318.404725 1006.247773 1323.23696 C 1002.740964 1328.069195 995.594177 1336.581022 984.763022 1348.728108 C 973.931866 1360.919527 967.761659 1367.924052 966.2524 1369.741682 C 964.74314 1371.603644 963.322661 1373.155279 961.990961 1374.485252 C 960.659262 1375.815225 955.998314 1380.82479 948.008117 1389.513946 C 940.01792 1398.158771 931.317484 1407.158255 921.995588 1416.512398 C 912.673692 1425.822209 906.592264 1431.762755 903.751306 1434.245371 C 900.910347 1436.727987 894.16307 1442.845863 883.509474 1452.510333 C 872.811488 1462.174803 864.244222 1469.932979 857.763285 1475.740528 C 851.237957 1481.592409 845.24531 1486.912301 839.740952 1491.744536 C 834.236594 1496.576771 826.601518 1503.270969 816.746942 1511.738463 C 806.936756 1520.25029 799.923139 1526.102171 795.75048 1529.249774 C 791.577822 1532.397377 786.073464 1536.741955 779.237407 1542.239177 C 772.40135 1547.736398 763.567744 1553.765609 752.736588 1560.238144 C 741.905433 1566.755012 734.581086 1571.232588 730.763547 1573.759536 C 726.901619 1576.242153 722.018721 1579.434088 715.981684 1583.246677 C 709.989036 1587.103599 706.659787 1589.408885 705.993938 1590.251201 C 705.328088 1591.093518 699.513 1594.329785 688.504285 1600.004336 C 677.49557 1605.678888 668.484403 1609.846136 661.515176 1612.506082 L 650.994751 1616.496001 L 645.978683 1614.988699 C 642.649434 1614.013385 637.677756 1611.841096 631.019259 1608.516164 C 624.316372 1605.146899 617.480315 1601.644636 610.511087 1598.009377 C 603.49747 1594.329785 599.147252 1591.847169 597.504823 1590.517196 C 595.818004 1589.187223 592.666315 1586.837604 588.005367 1583.512672 C 583.344419 1580.187739 575.931292 1575.399836 565.765986 1569.237628 C 555.60068 1563.07542 548.764623 1558.908171 545.257815 1556.735882 C 541.751006 1554.563593 537.267618 1551.59332 531.76326 1547.736398 C 526.258903 1543.923809 518.934556 1538.071928 509.745829 1530.26942 C 500.601493 1522.422579 494.564456 1517.235685 491.767887 1514.753069 C 488.926928 1512.270452 483.06745 1507.260887 474.233844 1499.768706 C 465.400238 1492.232193 459.58515 1487.26696 456.744191 1484.740012 C 453.903233 1482.257395 449.819354 1478.489139 444.492557 1473.479574 C 439.165759 1468.514341 431.353122 1461.509817 421.010256 1452.510333 C 410.667391 1443.510849 404.852303 1438.323955 403.520604 1436.993982 C 402.144514 1435.664009 397.172836 1431.009103 388.51679 1422.984933 C 379.816353 1415.005095 374.267606 1409.596538 371.737377 1406.759263 C 369.251538 1403.921987 363.25889 1397.405119 353.759434 1387.252992 C 344.259978 1377.100865 336.580511 1368.766368 330.765424 1362.2495 C 324.905946 1355.732633 318.425009 1348.240452 311.233832 1339.728625 C 304.087045 1331.26113 298.582687 1324.256606 294.765149 1318.759384 C 290.90322 1313.262162 287.573972 1308.740254 284.733013 1305.237992 C 281.936444 1301.73573 279.850115 1298.854122 278.518416 1296.504503 C 277.186716 1294.154884 275.100387 1291.228943 272.259428 1287.771014 C 269.418469 1284.268751 266.577511 1280.41183 263.736552 1276.244581 C 260.895593 1272.077332 258.409754 1268.264743 256.234645 1264.762481 C 254.103926 1261.260219 252.017597 1258.334278 250.020047 1255.984659 C 247.978108 1253.679373 246.069339 1251.063759 244.24935 1248.270816 C 242.429361 1245.43354 240.831321 1242.817927 239.499622 1240.51264 C 238.167922 1238.163022 235.992813 1234.838089 233.018684 1230.493511 C 230.000166 1226.148932 226.093847 1220.252719 221.255339 1212.760538 C 216.416831 1205.268357 212.910023 1199.771135 210.734914 1196.268873 C 208.604195 1192.766611 206.251526 1188.732359 203.765687 1184.254784 C 201.235458 1179.732875 198.927179 1175.742956 196.75207 1172.240694 C 194.57696 1168.738432 192.179901 1164.482519 189.516503 1159.517286 C 186.853104 1154.507721 182.014596 1145.995894 175.000979 1133.981805 C 167.987362 1122.012048 163.992263 1115.184854 163.015684 1113.500221 C 161.994714 1111.815589 159.819605 1107.515343 156.490356 1100.510818 C 153.161108 1093.506294 149.521129 1086.14711 145.481641 1078.521932 C 141.486543 1070.852421 137.003154 1061.010621 131.987086 1048.996532 C 127.015409 1036.982442 122.48763 1025.987999 118.492532 1016.013202 C 114.497434 1005.994072 110.324776 994.999629 106.018947 982.985539 C 101.668729 971.015783 97.984361 961.173983 95.010232 953.504472 C 91.991713 945.834961 89.017584 937.012807 85.999066 926.993677 C 82.980547 917.01888 80.228368 908.595718 77.742529 901.768523 C 75.25669 894.896996 74.102551 891.261736 74.235721 890.729747 C 74.41328 890.24209 73.170361 885.32119 70.506962 876.01138 C 67.843563 866.657236 63.981635 851.983201 59.009957 831.989274 C 53.993889 811.995347 50.8422 799.316271 49.510501 793.996379 C 48.178801 788.676487 46.003692 779.012017 42.985174 765.002968 C 40.011045 750.99392 37.347646 738.492174 34.994977 727.49773 C 32.686698 716.503287 30.334029 703.646882 27.98136 689.017179 C 25.673081 674.343144 23.853091 661.664068 22.521392 650.979952 C 21.145303 640.340168 19.502873 619.503925 17.505324 588.515554 C 15.507775 557.482851 13.998516 532.346362 13.021936 513.017421 C 12.000966 493.688481 10.979997 474.980194 10.003417 456.981227 C 8.982448 438.982259 7.340018 405.511272 4.987349 356.479602 C 2.67907 307.492264 1.480541 271.006672 1.480541 246.978493 L 1.480541 210.980558 L 4.765399 209.251593 C 6.896119 208.09895 15.685335 206.325653 30.999878 204.020366 C 46.314422 201.670747 54.349009 200.340774 55.014859 199.986115 C 55.680708 199.675788 61.185066 198.656142 71.483542 197.015842 C 81.826407 195.331209 93.323413 193.51358 106.018947 191.51862 C 118.670092 189.479328 133.496346 186.996712 150.497709 183.982107 C 167.499072 181.011834 187.163834 177.154912 209.491994 172.500007 C 231.820155 167.845101 250.330777 163.677853 264.979471 159.998261 C 279.672555 156.318669 297.162208 151.353436 317.492819 145.013898 C 337.823431 138.674361 350.163846 134.817439 354.514064 133.487466 C 358.819892 132.157493 371.337867 127.679917 391.979208 120.010406 C 412.66494 112.340896 429.311183 105.824028 442.006718 100.504136 C 454.657862 95.184244 463.846588 91.327323 469.484116 89.022036 C 475.166034 86.672417 488.083518 80.731871 508.23657 71.244731 C 528.434012 61.75759 539.753457 56.437698 542.239296 55.240722 C 544.769525 54.088079 552.182652 50.497152 564.478677 44.512274 C 576.819091 38.483063 586.007818 34.005487 592.000465 30.990882 C 597.993113 28.020609 605.983309 23.986357 616.015445 19.021125 C 626.003191 14.01156 632.350958 10.819625 635.014357 9.489652 C 637.677756 8.159679 639.986035 6.829706 641.983584 5.499733 C 643.981134 4.16976 645.490393 3.150114 646.511363 2.485128 L 648.020622 1.509814 Z M 652.9923 1.509814 " stroke="#000000" stroke-width="2" stroke-opacity="1" stroke-miterlimit="4"/></g></svg>