<svg xmlns="http://www.w3.org/2000/svg" xmlns:xlink="http://www.w3.org/1999/xlink" width="200" zoomAndPan="magnify" viewBox="0 0 150 149.999998" height="200" preserveAspectRatio="xMidYMid meet" version="1.0"><defs><clipPath id="160f58a95d"><path d="M 16.773438 0 L 133 0 L 133 150 L 16.773438 150 Z M 16.773438 0 " clip-rule="nonzero"/></clipPath></defs><g clip-path="url(#160f58a95d)"><path fill="#ffffff" d="M 130 131.796875 L 126.082031 131.796875 L 126.082031 80.164062 C 127.003906 79.511719 127.726562 78.6875 128.246094 77.683594 C 128.761719 76.679688 129.023438 75.613281 129.023438 74.484375 L 129.023438 72.804688 C 128.984375 71.648438 128.679688 70.566406 128.105469 69.558594 C 127.53125 68.554688 126.753906 67.742188 125.773438 67.125 C 122.039062 48.40625 105.4375 33.796875 84.792969 30.179688 C 84.652344 29.195312 84.375 28.25 83.953125 27.347656 C 83.535156 26.445312 82.992188 25.625 82.328125 24.882812 C 81.667969 24.140625 80.910156 23.511719 80.0625 22.992188 C 79.214844 22.476562 78.308594 22.089844 77.347656 21.839844 L 77.347656 15.75 L 92.808594 15.75 C 93.152344 15.75 93.480469 15.683594 93.796875 15.550781 C 94.113281 15.421875 94.390625 15.234375 94.632812 14.992188 C 94.875 14.75 95.0625 14.472656 95.191406 14.15625 C 95.320312 13.839844 95.386719 13.507812 95.386719 13.167969 L 95.386719 2.582031 C 95.386719 2.238281 95.320312 1.910156 95.191406 1.59375 C 95.0625 1.277344 94.875 1 94.632812 0.757812 C 94.390625 0.515625 94.113281 0.328125 93.796875 0.195312 C 93.480469 0.0664062 93.152344 0 92.808594 0 L 74.769531 0 C 74.425781 0 74.097656 0.0664062 73.78125 0.195312 C 73.464844 0.328125 73.1875 0.515625 72.945312 0.757812 C 72.703125 1 72.519531 1.277344 72.386719 1.59375 C 72.257812 1.910156 72.191406 2.238281 72.191406 2.582031 L 72.191406 21.917969 C 71.230469 22.160156 70.320312 22.535156 69.46875 23.042969 C 68.613281 23.550781 67.851562 24.167969 67.179688 24.902344 C 66.507812 25.632812 65.957031 26.445312 65.523438 27.339844 C 65.09375 28.234375 64.796875 29.171875 64.640625 30.15625 C 44.019531 33.796875 27.421875 48.226562 23.6875 67.074219 C 22.726562 67.730469 21.976562 68.578125 21.4375 69.609375 C 20.898438 70.644531 20.636719 71.742188 20.644531 72.910156 L 20.644531 74.585938 C 20.644531 75.714844 20.902344 76.78125 21.421875 77.785156 C 21.941406 78.789062 22.660156 79.617188 23.582031 80.265625 L 23.582031 131.902344 L 19.535156 131.902344 C 19.195312 131.902344 18.867188 131.96875 18.550781 132.097656 C 18.234375 132.230469 17.957031 132.414062 17.714844 132.65625 C 17.472656 132.898438 17.285156 133.179688 17.15625 133.496094 C 17.023438 133.8125 16.960938 134.140625 16.960938 134.484375 L 16.960938 147.390625 C 16.960938 147.734375 17.023438 148.0625 17.15625 148.378906 C 17.285156 148.695312 17.472656 148.976562 17.714844 149.21875 C 17.957031 149.460938 18.234375 149.648438 18.550781 149.777344 C 18.867188 149.910156 19.195312 149.972656 19.535156 149.972656 L 130 149.972656 C 130.34375 149.972656 130.671875 149.910156 130.988281 149.777344 C 131.304688 149.648438 131.582031 149.460938 131.824219 149.21875 C 132.066406 148.976562 132.25 148.695312 132.382812 148.378906 C 132.511719 148.0625 132.578125 147.734375 132.578125 147.390625 L 132.578125 134.25 C 132.5625 133.921875 132.484375 133.605469 132.347656 133.304688 C 132.207031 133 132.019531 132.738281 131.78125 132.507812 C 131.539062 132.28125 131.265625 132.105469 130.957031 131.980469 C 130.652344 131.859375 130.332031 131.796875 130 131.796875 Z M 97.0625 131.796875 L 97.0625 81.558594 L 110.542969 81.558594 L 110.542969 131.796875 Z M 68.042969 131.796875 L 68.042969 81.558594 L 81.496094 81.558594 L 81.496094 131.796875 Z M 38.996094 131.796875 L 38.996094 81.558594 L 52.476562 81.558594 L 52.476562 131.796875 Z M 25.488281 74.585938 L 25.488281 72.910156 C 25.488281 72.308594 25.71875 71.816406 26.1875 71.4375 C 26.667969 71.410156 27.097656 71.246094 27.476562 70.945312 L 122.0625 70.945312 C 122.449219 71.273438 122.898438 71.445312 123.402344 71.464844 C 123.828125 71.851562 124.042969 72.332031 124.046875 72.910156 L 124.046875 74.585938 C 124.042969 74.847656 123.992188 75.101562 123.890625 75.34375 C 123.789062 75.585938 123.644531 75.800781 123.457031 75.984375 C 123.273438 76.171875 123.058594 76.316406 122.820312 76.417969 C 122.578125 76.519531 122.324219 76.570312 122.0625 76.574219 L 27.476562 76.574219 C 27.210938 76.570312 26.960938 76.519531 26.71875 76.417969 C 26.476562 76.316406 26.265625 76.171875 26.078125 75.984375 C 25.894531 75.800781 25.75 75.585938 25.648438 75.34375 C 25.546875 75.101562 25.492188 74.847656 25.488281 74.585938 Z M 127.527344 144.757812 L 22.011719 144.757812 L 22.011719 136.832031 L 127.527344 136.832031 Z M 127.527344 144.757812 " fill-opacity="1" fill-rule="nonzero"/></g></svg>