<svg width="512" height="512" viewBox="0 0 512 512" fill="none" xmlns="http://www.w3.org/2000/svg">
<path d="M379.58 159C374.26 239.39 328.65 311.37 256.47 348.19C256.352 348.249 256.221 348.281 256.088 348.283C255.955 348.284 255.822 348.256 255.7 348.2C180.25 312.57 130.84 241.11 124.59 157.92C124.23 153.06 124.043 146.397 124.03 137.93C123.99 111.503 123.983 85.0733 124.01 58.64C124.01 55.71 125.01 52.92 128.26 52.97C173.867 53.6767 215.963 43.1167 254.55 21.29C255.41 20.8 257.32 21.16 258.32 21.72C294.193 41.9667 333.567 52.4167 376.44 53.07C378.75 53.1 380 55.68 380 57.92C379.98 84.9467 379.99 111.973 380.03 139C380.043 147.56 379.893 154.227 379.58 159ZM156.73 158.16C162.43 222.3 198.39 279.9 254.93 311.8C255.084 311.888 255.26 311.931 255.44 311.926C255.619 311.92 255.796 311.867 255.95 311.77C313.3 275.47 347.57 214.22 347.88 146.25C347.973 125.443 348.01 104.76 347.99 84.2C347.991 84.0078 347.92 83.8219 347.791 83.678C347.662 83.534 347.483 83.4422 347.29 83.42C315.523 79.96 285.323 71.1767 256.69 57.07C256.479 56.9644 256.246 56.9094 256.01 56.9094C255.774 56.9094 255.541 56.9644 255.33 57.07C224.21 72.37 191.33 81.4 156.69 84.16C156.537 84.1726 156.394 84.2424 156.291 84.3554C156.187 84.4685 156.13 84.6165 156.13 84.77C155.97 102.577 155.93 120.38 156.01 138.18C156.05 146.52 156.29 153.18 156.73 158.16Z" fill="white"/>
<path d="M232.19 163.81C214.42 147.68 216.53 119.65 236.7 106.66C254.25 95.35 277.91 101.83 287.71 120.2C296.51 136.71 291.24 155.55 276.41 166.76C276.285 166.857 276.184 166.979 276.115 167.118C276.046 167.257 276.01 167.408 276.01 167.56C275.997 190.467 275.993 213.37 276 236.27C276 240.93 275.74 244.23 275.22 246.17C270.2 264.99 243.11 266.13 237.07 247.41C236.357 245.21 236 241.23 236 235.47C236 212.837 236 190.2 236 167.56C236 167.404 235.964 167.249 235.894 167.107C235.825 166.965 235.725 166.84 235.6 166.74C234.413 165.773 233.277 164.797 232.19 163.81Z" fill="white"/>
<path d="M449.21 259.41L437.74 236.46C437.671 236.322 437.564 236.205 437.432 236.124C437.299 236.043 437.146 236 436.99 236H370.67C370.598 236.001 370.528 235.984 370.464 235.95C370.401 235.917 370.347 235.868 370.307 235.809C370.267 235.749 370.243 235.68 370.237 235.609C370.23 235.538 370.242 235.466 370.27 235.4C375.443 222.84 379.483 209.923 382.39 196.65C382.433 196.463 382.537 196.295 382.686 196.175C382.835 196.055 383.02 195.99 383.21 195.99C409.057 196.023 434.937 196.013 460.85 195.96C467.597 195.947 472.477 196.423 475.49 197.39C488.03 201.41 492.01 211.77 492.01 224.07C491.99 302.577 491.993 381.083 492.02 459.59C492.027 467.23 491.52 472.617 490.5 475.75C486.31 488.6 475.65 492.01 463.02 492.01C325.073 491.997 187.127 491.997 49.1799 492.01C43.5533 492.01 39.3199 491.543 36.4799 490.61C23.6399 486.4 19.9799 476.07 19.9899 463.45C20.0099 383.823 20.0099 304.197 19.9899 224.57C19.9833 219.343 20.4333 215.35 21.3399 212.59C25.5599 199.69 35.8799 195.98 48.5499 195.99C73.0033 196.003 97.4199 196.007 121.8 196C121.948 196.001 122.092 196.051 122.209 196.144C122.325 196.236 122.406 196.365 122.44 196.51C124.927 206.97 128.1 217.217 131.96 227.25C131.984 227.313 131.993 227.38 131.985 227.447C131.978 227.513 131.954 227.577 131.917 227.633C131.88 227.689 131.83 227.735 131.771 227.768C131.713 227.8 131.647 227.818 131.58 227.82C124.833 228.06 118.147 228.103 111.52 227.95C107.48 227.85 105.94 236 113.09 236C120.417 236 127.737 236.003 135.05 236.01C135.217 236.009 135.38 236.056 135.52 236.145C135.66 236.234 135.771 236.36 135.84 236.51L139.01 243.48C139.035 243.535 139.046 243.596 139.042 243.656C139.037 243.716 139.018 243.775 138.985 243.826C138.952 243.876 138.907 243.918 138.854 243.947C138.8 243.976 138.74 243.99 138.68 243.99C129.627 244.003 120.567 244.007 111.5 244C107.28 243.99 106.11 251.99 113.08 252C122.873 252 132.677 252 142.49 252C142.732 252 142.97 252.064 143.179 252.185C143.388 252.306 143.561 252.48 143.68 252.69L147.5 259.53C147.526 259.577 147.539 259.63 147.539 259.684C147.538 259.738 147.523 259.79 147.496 259.837C147.469 259.883 147.43 259.922 147.383 259.949C147.337 259.976 147.284 259.99 147.23 259.99C135.297 260.003 123.387 260.007 111.5 260C107.22 259.99 106.09 268.07 113.33 268.03C126.27 267.95 139.21 267.973 152.15 268.1C152.3 268.1 152.448 268.139 152.581 268.212C152.714 268.286 152.827 268.391 152.91 268.52C178.083 307.373 211.88 336.67 254.3 356.41C255.753 357.09 257.113 357.103 258.38 356.45C301.267 334.37 334.57 302.35 358.29 260.39C358.357 260.272 358.455 260.173 358.572 260.105C358.69 260.036 358.824 260 358.96 260H448.85C448.919 260.001 448.986 259.984 449.046 259.951C449.106 259.918 449.157 259.869 449.193 259.81C449.229 259.751 449.25 259.683 449.253 259.613C449.256 259.543 449.241 259.473 449.21 259.41ZM85.9399 266.95C107.7 260 102.64 228.04 79.7499 228.03C72.6599 228.02 63.4599 227.07 57.3199 229.28C38.4999 236.03 40.1999 262.11 59.2799 267.3C65.1799 268.91 80.5299 268.67 85.9399 266.95ZM116 304.19C116 303.079 115.558 302.013 114.773 301.227C113.987 300.441 112.921 300 111.81 300H48.1899C47.0787 300 46.0129 300.441 45.2272 301.227C44.4414 302.013 43.9999 303.079 43.9999 304.19V351.81C43.9999 352.921 44.4414 353.987 45.2272 354.773C46.0129 355.559 47.0787 356 48.1899 356H111.81C112.921 356 113.987 355.559 114.773 354.773C115.558 353.987 116 352.921 116 351.81V304.19ZM459.92 415.99C459.92 410.221 458.784 404.509 456.576 399.179C454.368 393.849 451.132 389.006 447.053 384.927C442.974 380.847 438.131 377.612 432.801 375.404C427.471 373.196 421.759 372.06 415.99 372.06C410.221 372.06 404.508 373.196 399.179 375.404C393.849 377.612 389.006 380.847 384.927 384.927C380.847 389.006 377.612 393.849 375.404 399.179C373.196 404.509 372.06 410.221 372.06 415.99C372.06 421.759 373.196 427.471 375.404 432.801C377.612 438.131 380.847 442.974 384.927 447.053C389.006 451.132 393.849 454.368 399.179 456.576C404.508 458.784 410.221 459.92 415.99 459.92C427.641 459.92 438.815 455.292 447.053 447.053C455.292 438.815 459.92 427.641 459.92 415.99ZM51.9799 399.9C51.9799 398.879 51.5743 397.9 50.8523 397.178C50.1303 396.456 49.151 396.05 48.1299 396.05H47.8699C46.8489 396.05 45.8696 396.456 45.1476 397.178C44.4256 397.9 44.0199 398.879 44.0199 399.9V416.1C44.0199 417.121 44.4256 418.1 45.1476 418.822C45.8696 419.544 46.8489 419.95 47.8699 419.95H48.1299C49.151 419.95 50.1303 419.544 50.8523 418.822C51.5743 418.1 51.9799 417.121 51.9799 416.1V399.9ZM67.9799 399.9C67.9799 398.879 67.5743 397.9 66.8523 397.178C66.1303 396.456 65.151 396.05 64.1299 396.05H63.8699C62.8489 396.05 61.8696 396.456 61.1476 397.178C60.4256 397.9 60.0199 398.879 60.0199 399.9V416.1C60.0199 417.121 60.4256 418.1 61.1476 418.822C61.8696 419.544 62.8489 419.95 63.8699 419.95H64.1299C65.151 419.95 66.1303 419.544 66.8523 418.822C67.5743 418.1 67.9799 417.121 67.9799 416.1V399.9ZM83.9799 399.9C83.9799 398.879 83.5743 397.9 82.8523 397.178C82.1303 396.456 81.151 396.05 80.1299 396.05H79.8699C79.3644 396.05 78.8637 396.15 78.3966 396.343C77.9295 396.537 77.5051 396.82 77.1476 397.178C76.7901 397.535 76.5065 397.96 76.313 398.427C76.1195 398.894 76.0199 399.394 76.0199 399.9V416.1C76.0199 416.606 76.1195 417.106 76.313 417.573C76.5065 418.04 76.7901 418.465 77.1476 418.822C77.5051 419.18 77.9295 419.463 78.3966 419.657C78.8637 419.85 79.3644 419.95 79.8699 419.95H80.1299C81.151 419.95 82.1303 419.544 82.8523 418.822C83.5743 418.1 83.9799 417.121 83.9799 416.1V399.9ZM99.9799 399.9C99.9799 398.879 99.5743 397.9 98.8523 397.178C98.1303 396.456 97.151 396.05 96.1299 396.05H95.8699C94.8489 396.05 93.8696 396.456 93.1476 397.178C92.4256 397.9 92.0199 398.879 92.0199 399.9V416.1C92.0199 417.121 92.4256 418.1 93.1476 418.822C93.8696 419.544 94.8489 419.95 95.8699 419.95H96.1299C97.151 419.95 98.1303 419.544 98.8523 418.822C99.5743 418.1 99.9799 417.121 99.9799 416.1V399.9ZM115.98 399.9C115.98 399.394 115.88 398.894 115.687 398.427C115.493 397.96 115.21 397.535 114.852 397.178C114.495 396.82 114.07 396.537 113.603 396.343C113.136 396.15 112.636 396.05 112.13 396.05H111.87C110.849 396.05 109.87 396.456 109.148 397.178C108.426 397.9 108.02 398.879 108.02 399.9V416.1C108.02 417.121 108.426 418.1 109.148 418.822C109.87 419.544 110.849 419.95 111.87 419.95H112.13C112.636 419.95 113.136 419.85 113.603 419.657C114.07 419.463 114.495 419.18 114.852 418.822C115.21 418.465 115.493 418.04 115.687 417.573C115.88 417.106 115.98 416.606 115.98 416.1V399.9ZM147.98 399.9C147.98 398.879 147.574 397.9 146.852 397.178C146.13 396.456 145.151 396.05 144.13 396.05H143.87C142.849 396.05 141.87 396.456 141.148 397.178C140.426 397.9 140.02 398.879 140.02 399.9V416.1C140.02 417.121 140.426 418.1 141.148 418.822C141.87 419.544 142.849 419.95 143.87 419.95H144.13C145.151 419.95 146.13 419.544 146.852 418.822C147.574 418.1 147.98 417.121 147.98 416.1V399.9ZM163.98 399.9C163.98 398.879 163.574 397.9 162.852 397.178C162.13 396.456 161.151 396.05 160.13 396.05H159.87C158.849 396.05 157.87 396.456 157.148 397.178C156.426 397.9 156.02 398.879 156.02 399.9V416.1C156.02 417.121 156.426 418.1 157.148 418.822C157.87 419.544 158.849 419.95 159.87 419.95H160.13C161.151 419.95 162.13 419.544 162.852 418.822C163.574 418.1 163.98 417.121 163.98 416.1V399.9ZM179.98 399.9C179.98 398.879 179.574 397.9 178.852 397.178C178.13 396.456 177.151 396.05 176.13 396.05H175.87C174.849 396.05 173.87 396.456 173.148 397.178C172.426 397.9 172.02 398.879 172.02 399.9V416.1C172.02 417.121 172.426 418.1 173.148 418.822C173.87 419.544 174.849 419.95 175.87 419.95H176.13C177.151 419.95 178.13 419.544 178.852 418.822C179.574 418.1 179.98 417.121 179.98 416.1V399.9ZM195.98 399.9C195.98 398.879 195.574 397.9 194.852 397.178C194.13 396.456 193.151 396.05 192.13 396.05H191.87C190.849 396.05 189.87 396.456 189.148 397.178C188.426 397.9 188.02 398.879 188.02 399.9V416.1C188.02 417.121 188.426 418.1 189.148 418.822C189.87 419.544 190.849 419.95 191.87 419.95H192.13C193.151 419.95 194.13 419.544 194.852 418.822C195.574 418.1 195.98 417.121 195.98 416.1V399.9ZM227.98 399.9C227.98 398.879 227.574 397.9 226.852 397.178C226.13 396.456 225.151 396.05 224.13 396.05H223.87C222.849 396.05 221.87 396.456 221.148 397.178C220.426 397.9 220.02 398.879 220.02 399.9V416.1C220.02 417.121 220.426 418.1 221.148 418.822C221.87 419.544 222.849 419.95 223.87 419.95H224.13C225.151 419.95 226.13 419.544 226.852 418.822C227.574 418.1 227.98 417.121 227.98 416.1V399.9ZM243.98 399.9C243.98 398.879 243.574 397.9 242.852 397.178C242.13 396.456 241.151 396.05 240.13 396.05H239.87C238.849 396.05 237.87 396.456 237.148 397.178C236.426 397.9 236.02 398.879 236.02 399.9V416.1C236.02 417.121 236.426 418.1 237.148 418.822C237.87 419.544 238.849 419.95 239.87 419.95H240.13C241.151 419.95 242.13 419.544 242.852 418.822C243.574 418.1 243.98 417.121 243.98 416.1V399.9ZM259.98 399.9C259.98 399.394 259.88 398.894 259.687 398.427C259.493 397.96 259.21 397.535 258.852 397.178C258.495 396.82 258.07 396.537 257.603 396.343C257.136 396.15 256.636 396.05 256.13 396.05H255.87C254.849 396.05 253.87 396.456 253.148 397.178C252.426 397.9 252.02 398.879 252.02 399.9V416.1C252.02 417.121 252.426 418.1 253.148 418.822C253.87 419.544 254.849 419.95 255.87 419.95H256.13C256.636 419.95 257.136 419.85 257.603 419.657C258.07 419.463 258.495 419.18 258.852 418.822C259.21 418.465 259.493 418.04 259.687 417.573C259.88 417.106 259.98 416.606 259.98 416.1V399.9ZM275.98 399.9C275.98 398.879 275.574 397.9 274.852 397.178C274.13 396.456 273.151 396.05 272.13 396.05H271.87C270.849 396.05 269.87 396.456 269.148 397.178C268.426 397.9 268.02 398.879 268.02 399.9V416.1C268.02 417.121 268.426 418.1 269.148 418.822C269.87 419.544 270.849 419.95 271.87 419.95H272.13C273.151 419.95 274.13 419.544 274.852 418.822C275.574 418.1 275.98 417.121 275.98 416.1V399.9ZM179.97 447.97C179.97 446.917 179.552 445.907 178.807 445.163C178.063 444.418 177.053 444 176 444H47.9999C46.947 444 45.9372 444.418 45.1927 445.163C44.4482 445.907 44.0299 446.917 44.0299 447.97V448.03C44.0299 448.551 44.1326 449.068 44.3321 449.549C44.5317 450.031 44.8241 450.469 45.1927 450.837C45.5614 451.206 45.999 451.498 46.4807 451.698C46.9624 451.897 47.4786 452 47.9999 452H176C176.521 452 177.038 451.897 177.519 451.698C178.001 451.498 178.439 451.206 178.807 450.837C179.176 450.469 179.468 450.031 179.668 449.549C179.867 449.068 179.97 448.551 179.97 448.03V447.97ZM259.96 447.94C259.96 446.895 259.545 445.893 258.806 445.154C258.067 444.415 257.065 444 256.02 444H191.98C190.935 444 189.933 444.415 189.194 445.154C188.455 445.893 188.04 446.895 188.04 447.94V448.06C188.04 449.105 188.455 450.107 189.194 450.846C189.933 451.585 190.935 452 191.98 452H256.02C257.065 452 258.067 451.585 258.806 450.846C259.545 450.107 259.96 449.105 259.96 448.06V447.94Z" fill="white"/>
<path d="M59.476 307.988L52.4961 308.012C52.2144 308.013 51.9869 308.242 51.9879 308.524L52.0122 315.504C52.0132 315.786 52.2423 316.013 52.524 316.012L59.504 315.988C59.7856 315.987 60.0132 315.758 60.0122 315.476L59.9878 308.496C59.9868 308.214 59.7577 307.987 59.476 307.988Z" fill="white"/>
<path d="M92.06 320.66C92.0333 329.56 91.9833 338.5 91.91 347.48C91.9074 347.619 91.8504 347.751 91.7513 347.848C91.6522 347.946 91.5188 348 91.38 348H68.63C68.4629 348 68.3027 347.934 68.1845 347.815C68.0664 347.697 68 347.537 68 347.37V308.5C68 308.367 68.0527 308.24 68.1464 308.146C68.2402 308.053 68.3674 308 68.5 308H107.5C107.633 308 107.76 308.053 107.854 308.146C107.947 308.24 108 308.367 108 308.5V315.38C108 315.517 107.946 315.649 107.849 315.748C107.752 315.847 107.62 315.905 107.48 315.91C103.03 316.05 92.08 313.82 92.06 320.66Z" fill="white"/>
<path d="M59.476 323.988L52.4961 324.012C52.2144 324.013 51.9869 324.242 51.9879 324.524L52.0122 331.504C52.0132 331.786 52.2423 332.013 52.524 332.012L59.504 331.988C59.7856 331.987 60.0132 331.758 60.0122 331.476L59.9878 324.496C59.9868 324.214 59.7577 323.987 59.476 323.988Z" fill="white"/>
<path d="M107.052 323.989L100.912 324.032C100.399 324.035 99.9851 324.454 99.9887 324.968L100.032 331.108C100.035 331.621 100.454 332.035 100.968 332.031L107.108 331.988C107.621 331.985 108.035 331.566 108.031 331.052L107.988 324.912C107.985 324.399 107.566 323.985 107.052 323.989Z" fill="white"/>
<path d="M59.356 339.978L52.6161 340.002C52.2681 340.003 51.9871 340.286 51.9883 340.634L52.0118 347.374C52.013 347.722 52.2961 348.003 52.644 348.002L59.384 347.978C59.7319 347.977 60.013 347.694 60.0118 347.346L59.9882 340.606C59.987 340.258 59.704 339.977 59.356 339.978Z" fill="white"/>
<path d="M107.139 339.974L100.839 340.007C100.37 340.009 99.9911 340.392 99.9936 340.861L100.027 347.161C100.029 347.63 100.412 348.009 100.881 348.006L107.181 347.973C107.65 347.971 108.029 347.588 108.026 347.119L107.993 340.819C107.991 340.35 107.608 339.971 107.139 339.974Z" fill="white"/>
<path d="M416 451.91C435.838 451.91 451.92 435.828 451.92 415.99C451.92 396.152 435.838 380.07 416 380.07C396.162 380.07 380.08 396.152 380.08 415.99C380.08 435.828 396.162 451.91 416 451.91Z" fill="white"/>
</svg>
