<svg width="512" height="512" viewBox="0 0 512 512" fill="none" xmlns="http://www.w3.org/2000/svg">
<path d="M252.81 0H259.56C270.907 0.646667 281.717 3.32 291.99 8.02C292.363 9.06667 293.133 9.78667 294.3 10.18C295.527 10.58 295.487 10.7233 294.18 10.61L292.68 10.47C292.341 10.4373 291.997 10.5069 291.69 10.67C286.877 13.23 282.297 16.18 277.95 19.52C257.57 13.4133 238.64 15.4167 221.16 25.53C218.133 27.2767 213.937 30.4167 208.57 34.95C173.43 64.6167 133.74 86.2367 89.5 99.81C80.91 102.45 70.02 104.5 62.95 109.03C54.57 114.41 49.6767 122.227 48.27 132.48C47.68 136.81 48.08 142.55 47.96 147.5C47.4933 148.753 47.3267 150.06 47.46 151.42C47.4867 151.687 47.4333 151.703 47.3 151.47L47.12 151.16C47.04 151.007 47 151.017 47 151.19V151.47C46.9996 151.541 46.981 151.61 46.946 151.671C46.9109 151.733 46.8607 151.784 46.8 151.82L33.78 159.93C33.7015 159.976 33.6118 160 33.52 160H33.24C33.1091 160.003 32.9845 160.056 32.8929 160.15C32.8013 160.243 32.75 160.369 32.75 160.5L32.76 168.46C32.76 169.447 32.71 169.45 32.61 168.47C32.49 167.31 32.4367 166.143 32.45 164.97C32.4567 164.717 32.3933 164.697 32.26 164.91L32.04 165.25C32.05 152.63 30.86 136.99 33.22 126.14C36.4333 111.367 44.86 100.397 58.5 93.23C64.77 89.93 73.21 88 80.55 85.79C122.13 73.25 161.82 53.05 195.23 25.15C202.75 18.87 207.837 14.8967 210.49 13.23C223.203 5.23667 237.31 0.826667 252.81 0Z" fill="white"/>
<path d="M291.99 8.01999C306.42 14.77 319.28 27.31 330.04 35.75C328.8 36.5433 327.687 36.31 326.7 35.05C326.604 34.9326 326.481 34.8396 326.342 34.7788C326.203 34.7179 326.052 34.6909 325.9 34.7C324.873 34.7733 324.077 35.2767 323.51 36.21C323.348 36.4762 323.102 36.6832 322.81 36.8C319.87 37.9333 317.177 39.4867 314.73 41.46C314.653 41.5222 314.523 41.5798 314.352 41.6283C314.18 41.6768 313.971 41.715 313.74 41.74C313.347 41.78 312.997 41.5333 312.69 41C312.634 40.8994 312.541 40.824 312.43 40.7888C312.318 40.7536 312.197 40.7612 312.09 40.81C311.85 40.9233 311.723 41.1533 311.71 41.5C300.46 32.54 291.85 24.5 277.95 19.52C282.297 16.18 286.877 13.23 291.69 10.67C291.997 10.5069 292.341 10.4373 292.68 10.47L294.18 10.61C295.487 10.7233 295.527 10.58 294.3 10.18C293.133 9.78666 292.363 9.06666 291.99 8.01999Z" fill="white"/>
<path d="M330.04 35.75C341.487 43.9967 353.433 51.5867 365.88 58.52C362.373 62.1 358.353 64.8867 353.82 66.88C353.51 67.02 353.52 67.13 353.46 67.44C353.452 67.4858 353.433 67.5289 353.404 67.5659C353.376 67.6029 353.339 67.6327 353.296 67.6531C353.253 67.6735 353.206 67.6838 353.158 67.6833C353.11 67.6827 353.063 67.6713 353.02 67.65L352.59 67.43C352.532 67.3996 352.467 67.3845 352.401 67.3859C352.335 67.3874 352.271 67.4054 352.214 67.4383C352.157 67.4712 352.11 67.518 352.076 67.5742C352.042 67.6305 352.023 67.6944 352.02 67.76L351.96 69C337.713 61.04 324.297 51.8733 311.71 41.5C311.723 41.1533 311.85 40.9233 312.09 40.81C312.197 40.7612 312.318 40.7537 312.43 40.7889C312.541 40.824 312.634 40.8994 312.69 41C312.997 41.5333 313.347 41.78 313.74 41.74C313.971 41.7151 314.18 41.6769 314.352 41.6283C314.523 41.5798 314.653 41.5222 314.73 41.46C317.177 39.4867 319.87 37.9333 322.81 36.8C323.102 36.6832 323.348 36.4762 323.51 36.21C324.077 35.2767 324.873 34.7733 325.9 34.7C326.052 34.691 326.203 34.718 326.342 34.7788C326.481 34.8396 326.604 34.9326 326.7 35.05C327.687 36.31 328.8 36.5433 330.04 35.75Z" fill="white"/>
<path d="M289.46 57C288.907 57.7067 288.773 58.5067 289.06 59.4C289.103 59.5326 289.099 59.6764 289.048 59.8074C288.997 59.9384 288.902 60.0487 288.78 60.12L276.29 67.42C270.24 47.55 243.6 44.96 236.48 65.19C233.88 72.5833 235.317 79.6033 240.79 86.25L240.75 86.63C240.73 86.83 240.64 86.8667 240.48 86.74C240.387 86.6667 240.287 86.6367 240.18 86.65C239.98 86.6767 239.947 86.77 240.08 86.93L240.63 87.58C240.673 87.63 240.705 87.6895 240.721 87.7536C240.738 87.8177 240.74 87.8848 240.726 87.9497C240.713 88.0146 240.684 88.0754 240.643 88.1275C240.602 88.1796 240.55 88.2215 240.49 88.25C236.51 90.0967 232.777 92.3467 229.29 95C229.259 95.0241 229.223 95.0395 229.184 95.0448C229.145 95.0501 229.106 95.0449 229.07 95.03L228.81 94.92C228.75 94.8963 228.686 94.887 228.622 94.8928C228.558 94.8986 228.496 94.9194 228.442 94.9534C228.387 94.9875 228.341 95.0339 228.308 95.0889C228.275 95.1439 228.255 95.2059 228.25 95.27L228.21 95.75L225.84 93.12C225.741 93.0127 225.606 92.9453 225.46 92.9306C225.315 92.9159 225.169 92.9548 225.05 93.04C198.657 112.573 170.223 128.497 139.75 140.81C139.612 140.864 139.497 140.964 139.426 141.094C139.354 141.224 139.331 141.375 139.36 141.52L140.31 146.48C139.203 145.693 138.52 145.943 138.26 147.23C138.232 147.378 138.167 147.517 138.072 147.636C137.976 147.754 137.852 147.848 137.71 147.91C134.17 149.43 130.75 152.2 127.06 153.35C126.922 153.392 126.797 153.469 126.698 153.572C126.598 153.675 126.527 153.802 126.49 153.94L126.27 154.77C126.063 155.563 125.883 155.557 125.73 154.75L124.75 149.72C122.57 135.01 106.58 126.17 93.58 134.09C81.03 141.75 79.9 157.07 90.25 167.71C89.3567 167.903 88.7367 167.58 88.39 166.74C88.2167 166.32 88.04 166.317 87.86 166.73L87.41 167.74C87.2675 168.056 87.0235 168.311 86.72 168.46C83.1467 170.227 79.8067 172.333 76.7 174.78C76.582 174.874 76.4911 174.997 76.4367 175.138C76.3822 175.279 76.3661 175.431 76.39 175.58L76.46 176C59.63 158.43 67.08 128.49 88.26 118.76C102.91 112.03 119.29 115.21 130.7 126.78C130.804 126.884 130.936 126.955 131.08 126.985C131.224 127.015 131.373 127.003 131.51 126.95C162.977 114.51 192.17 98.0567 219.09 77.59C219.218 77.4922 219.32 77.3637 219.384 77.2168C219.449 77.0698 219.475 76.9092 219.46 76.75C215.62 34.68 270.67 18.77 289.46 57Z" fill="white"/>
<path d="M289.46 57C292.22 63.2267 293.25 69.74 292.55 76.54C292.535 76.6936 292.559 76.8486 292.62 76.9903C292.681 77.132 292.778 77.2558 292.9 77.35L300.25 83.04C300.11 83.62 300.23 84.0867 300.61 84.44C300.646 84.474 300.673 84.516 300.689 84.5626C300.706 84.6093 300.711 84.6591 300.704 84.708C300.697 84.757 300.679 84.8035 300.65 84.8439C300.622 84.8842 300.584 84.9172 300.54 84.94C295.88 87.29 291.37 89.73 287.75 93.54C287.47 93.1933 287.153 92.9867 286.8 92.92C286.647 92.8898 286.489 92.9028 286.344 92.9576C286.199 93.0125 286.073 93.1069 285.98 93.23C271.41 112.25 244.01 114.61 228.21 95.75L228.25 95.27C228.255 95.2059 228.275 95.1439 228.308 95.0889C228.341 95.0339 228.387 94.9875 228.442 94.9534C228.496 94.9194 228.558 94.8986 228.622 94.8928C228.686 94.887 228.75 94.8963 228.81 94.92L229.07 95.03C229.106 95.045 229.145 95.0501 229.184 95.0448C229.223 95.0395 229.259 95.0241 229.29 95C232.777 92.3467 236.51 90.0967 240.49 88.25C240.55 88.2215 240.602 88.1796 240.643 88.1275C240.684 88.0754 240.713 88.0146 240.726 87.9497C240.74 87.8848 240.738 87.8177 240.721 87.7536C240.705 87.6895 240.673 87.6301 240.63 87.58L240.08 86.93C239.947 86.77 239.98 86.6767 240.18 86.65C240.287 86.6367 240.387 86.6667 240.48 86.74C240.64 86.8667 240.73 86.83 240.75 86.63L240.79 86.25C255.85 101.36 280.23 88.28 276.29 67.42L288.78 60.12C288.902 60.0487 288.997 59.9384 289.048 59.8074C289.099 59.6764 289.103 59.5326 289.06 59.4C288.773 58.5067 288.907 57.7067 289.46 57Z" fill="white"/>
<path d="M365.88 58.52C380.26 66.1933 395.133 72.95 410.5 78.79C409.333 78.91 407.877 79.6767 406.13 81.09C404.943 82.0433 402.173 83.63 397.82 85.85C395.62 86.9767 395.083 88.4433 396.21 90.25C380.89 84.3433 366.14 77.26 351.96 69L352.02 67.76C352.023 67.6944 352.042 67.6304 352.076 67.5742C352.11 67.518 352.157 67.4712 352.214 67.4383C352.271 67.4054 352.335 67.3874 352.401 67.3859C352.467 67.3845 352.532 67.3996 352.59 67.43L353.02 67.65C353.063 67.6713 353.11 67.6827 353.158 67.6832C353.206 67.6838 353.253 67.6735 353.296 67.6531C353.339 67.6327 353.376 67.6029 353.404 67.5659C353.433 67.5289 353.452 67.4858 353.46 67.44C353.52 67.13 353.51 67.02 353.82 66.88C358.353 64.8867 362.373 62.1 365.88 58.52Z" fill="white"/>
<path d="M410.5 78.79C420.733 82.4767 432.047 86.0667 444.44 89.56C449.16 90.8933 453.763 93.0267 458.25 95.96C455.09 95.26 454.78 96.83 452.77 97.99C449.317 99.9833 445.827 101.89 442.3 103.71C442.164 103.782 442.052 103.89 441.974 104.023C441.896 104.155 441.857 104.307 441.86 104.46C441.867 104.887 441.997 105.303 442.25 105.71C426.617 101.403 411.27 96.25 396.21 90.25C395.083 88.4433 395.62 86.9767 397.82 85.85C402.173 83.63 404.943 82.0433 406.13 81.09C407.877 79.6767 409.333 78.91 410.5 78.79Z" fill="white"/>
<path d="M300.25 83.04C325.123 100.807 351.72 115.46 380.04 127L380.28 127.44C380.307 127.489 380.324 127.543 380.33 127.599C380.336 127.654 380.33 127.711 380.313 127.764C380.296 127.817 380.269 127.867 380.232 127.909C380.195 127.951 380.15 127.986 380.1 128.01C379.633 128.243 379.137 128.353 378.61 128.34C378.289 128.333 377.968 128.413 377.68 128.57C374.487 130.357 371.293 132.173 368.1 134.02C366.79 134.77 366.28 136.27 364.45 135.93C364.303 135.901 364.151 135.917 364.014 135.976C363.876 136.034 363.76 136.134 363.68 136.26C363.507 136.54 363.53 136.857 363.75 137.21C336.703 125.63 311.37 111.073 287.75 93.54C291.37 89.73 295.88 87.29 300.54 84.94C300.584 84.9172 300.622 84.8842 300.65 84.8439C300.679 84.8035 300.697 84.757 300.704 84.708C300.711 84.6591 300.706 84.6093 300.689 84.5627C300.673 84.516 300.646 84.474 300.61 84.44C300.23 84.0867 300.11 83.62 300.25 83.04Z" fill="white"/>
<path d="M458.25 95.96C468.443 102.773 475.123 112.12 478.29 124C478.243 124.213 478.163 124.37 478.05 124.47C477.683 124.79 477.46 124.71 477.38 124.23L477.24 123.47C476.727 120.557 476.553 120.577 476.72 123.53L476.74 123.99C476.748 124.139 476.713 124.288 476.639 124.418C476.564 124.547 476.453 124.652 476.32 124.72C472.967 126.427 469.69 128.26 466.49 130.22C465.47 130.85 465.15 131.66 464.96 132.76C464.86 133.347 464.767 133.347 464.68 132.76L464.45 131.21C464.441 131.155 464.42 131.102 464.389 131.055C464.358 131.009 464.318 130.969 464.271 130.939C464.224 130.909 464.171 130.889 464.116 130.88C464.06 130.872 464.004 130.875 463.95 130.89L463.54 131C461.153 118.553 454.057 110.123 442.25 105.71C441.997 105.303 441.867 104.887 441.86 104.46C441.857 104.307 441.896 104.155 441.974 104.023C442.052 103.89 442.164 103.782 442.3 103.71C445.827 101.89 449.317 99.9833 452.77 97.99C454.78 96.83 455.09 95.26 458.25 95.96Z" fill="white"/>
<path d="M441.71 137.75L438.55 137.06C438.249 136.996 437.937 137.049 437.68 137.21C435.87 138.35 429.39 142.49 428.68 141.86C428.585 141.777 428.462 141.733 428.336 141.737C428.21 141.74 428.09 141.792 428 141.88C427.447 142.433 427.183 143.14 427.21 144C422.177 134.16 414.45 130.07 404.03 131.73C385.22 134.74 382.09 158.18 396.29 169.25C395.137 169.177 394.067 168.83 393.08 168.21C392.833 168.057 392.75 168.117 392.83 168.39C393.09 169.31 392.85 170.05 392.11 170.61C388.783 173.13 384.927 175.01 380.54 176.25C371.993 166.243 369.337 154.753 372.57 141.78C372.604 141.642 372.588 141.497 372.526 141.369C372.464 141.241 372.359 141.139 372.23 141.08L363.75 137.21C363.53 136.857 363.507 136.54 363.68 136.26C363.76 136.134 363.876 136.034 364.014 135.976C364.151 135.917 364.303 135.901 364.45 135.93C366.28 136.27 366.79 134.77 368.1 134.02C371.293 132.173 374.487 130.357 377.68 128.57C377.968 128.413 378.289 128.333 378.61 128.34C379.137 128.353 379.633 128.243 380.1 128.01C380.15 127.986 380.195 127.951 380.232 127.909C380.269 127.867 380.296 127.817 380.313 127.764C380.33 127.711 380.336 127.654 380.33 127.599C380.324 127.543 380.307 127.489 380.28 127.44L380.04 127C380.187 126.993 380.333 127.027 380.48 127.1C380.579 127.147 380.69 127.162 380.798 127.142C380.906 127.122 381.004 127.069 381.08 126.99C400.01 107.42 430.32 113.07 441.71 137.75Z" fill="white"/>
<path d="M478.29 124C479.383 127.86 479.933 131.38 479.94 134.56C479.947 144.707 479.953 154.853 479.96 165C479.42 166.18 479.27 167.437 479.51 168.77C479.703 169.863 479.637 169.92 479.31 168.94L479.23 168.68C479.213 168.634 479.181 168.596 479.139 168.571C479.097 168.545 479.048 168.535 479 168.54C476.293 168.847 473.883 169.807 471.77 171.42C469.85 172.88 467.92 173.57 465.94 174.72C465.893 174.747 465.84 174.762 465.786 174.763C465.732 174.765 465.679 174.752 465.631 174.727C465.583 174.702 465.542 174.666 465.512 174.621C465.483 174.576 465.464 174.524 465.46 174.47L465.01 168C464.95 167.213 464.883 167.213 464.81 168C464.557 170.733 464.457 173.473 464.51 176.22C464.517 176.673 464.457 176.68 464.33 176.24L464.04 175.25C463.993 161.75 463.98 148.25 464 134.75C464 133.99 463.847 132.74 463.54 131L463.95 130.89C464.004 130.875 464.06 130.872 464.116 130.88C464.171 130.889 464.224 130.909 464.271 130.939C464.318 130.969 464.358 131.009 464.389 131.055C464.42 131.102 464.441 131.155 464.45 131.21L464.68 132.76C464.767 133.347 464.86 133.347 464.96 132.76C465.15 131.66 465.47 130.85 466.49 130.22C469.69 128.26 472.967 126.427 476.32 124.72C476.453 124.652 476.564 124.547 476.639 124.418C476.713 124.288 476.748 124.139 476.74 123.99L476.72 123.53C476.553 120.577 476.727 120.557 477.24 123.47L477.38 124.23C477.46 124.71 477.683 124.79 478.05 124.47C478.163 124.37 478.243 124.213 478.29 124Z" fill="white"/>
<path d="M296.5 146.04L296.28 146.94C296.277 146.94 296.275 146.941 296.273 146.943C296.271 146.945 296.27 146.947 296.27 146.95C296.27 146.953 296.271 146.955 296.273 146.957C296.275 146.959 296.277 146.96 296.28 146.96L296.54 147C296.66 147.027 296.667 147.07 296.56 147.13L288.1 152.13C288.071 152.148 288.046 152.169 288.028 152.19C288.01 152.211 288.001 152.232 288 152.25L287.99 152.66C287.989 152.771 287.958 152.879 287.9 152.971C287.841 153.063 287.758 153.136 287.66 153.18L281.97 155.75C281.864 155.799 281.777 155.88 281.719 155.98C281.662 156.081 281.638 156.196 281.65 156.31C281.663 156.45 281.697 156.583 281.75 156.71C254.017 147.317 229.537 151.767 208.31 170.06C196.517 180.227 188.83 193.553 185.25 210.04C184.437 209.993 184.04 210.37 184.06 211.17C184.063 211.294 184.026 211.416 183.954 211.517C183.882 211.618 183.779 211.693 183.66 211.73C183.073 211.917 182.83 212.333 182.93 212.98C182.954 213.142 182.929 213.308 182.858 213.456C182.786 213.604 182.672 213.728 182.53 213.81L171.41 220.28C171.143 220.436 170.836 220.506 170.53 220.48C170.137 220.447 169.883 220.62 169.77 221C169.57 221.68 169.393 221.68 169.24 221L169.01 219.99C168.937 219.697 168.87 219.697 168.81 219.99C168.71 220.443 168.453 220.78 168.04 221C171.27 156.37 238.26 116.17 296.5 146.04Z" fill="white"/>
<path d="M441.71 137.75C450.38 159.21 438.81 181.86 416.59 187.72C416.45 187.757 416.325 187.839 416.237 187.953C416.148 188.067 416.1 188.207 416.1 188.35L415.96 200C415.133 200.687 414.893 201.603 415.24 202.75C415.313 202.977 415.243 203.03 415.03 202.91L414.71 202.72C414.692 202.71 414.678 202.696 414.668 202.678C414.658 202.661 414.653 202.64 414.653 202.62C414.653 202.599 414.658 202.578 414.668 202.559C414.678 202.539 414.692 202.523 414.71 202.51C414.863 202.41 414.843 202.217 414.65 201.93C414.546 201.778 414.389 201.67 414.21 201.627C414.03 201.585 413.841 201.611 413.68 201.7L402.02 208.22C401.922 208.272 401.842 208.352 401.79 208.45L401.58 208.81C401.427 209.077 401.323 209.06 401.27 208.76L400.99 207.27C400.877 206.657 400.787 206.66 400.72 207.28L400.04 213.25L399.94 188.32C399.94 188.174 399.892 188.033 399.803 187.918C399.714 187.804 399.59 187.724 399.45 187.69C391.977 185.797 385.673 181.983 380.54 176.25C384.927 175.01 388.783 173.13 392.11 170.61C392.85 170.05 393.09 169.31 392.83 168.39C392.75 168.117 392.833 168.057 393.08 168.21C394.067 168.83 395.137 169.177 396.29 169.25C404.87 174.59 414.46 173.78 422.01 167.17C428.47 161.523 430.203 153.8 427.21 144C427.183 143.14 427.447 142.433 428 141.88C428.09 141.791 428.21 141.74 428.336 141.737C428.462 141.733 428.585 141.777 428.68 141.86C429.39 142.49 435.87 138.35 437.68 137.21C437.937 137.049 438.249 136.996 438.55 137.06L441.71 137.75Z" fill="white"/>
<path d="M140.31 146.48C142.81 165.5 131.51 182.68 113 187.58C112.06 187.82 111.79 188.28 111.95 189.22C111.057 188.06 110.783 188.837 111.13 191.55C111.136 191.607 111.13 191.664 111.111 191.718C111.092 191.772 111.061 191.821 111.021 191.861C110.981 191.901 110.932 191.932 110.878 191.951C110.824 191.97 110.767 191.976 110.71 191.97C106.04 191.39 102.35 195.17 98.56 196.77C98.1527 196.943 97.8172 197.25 97.6097 197.64C97.4021 198.03 97.3352 198.478 97.42 198.91C97.6467 200.05 97.6067 201.157 97.3 202.23C97.2 202.577 97.1433 202.57 97.13 202.21C97.0633 200.65 96.9467 199.097 96.78 197.55C97.0867 199.89 96.84 202.123 96.04 204.25L96.01 188.42C96.0104 188.23 95.9463 188.045 95.8283 187.896C95.7102 187.747 95.5451 187.643 95.36 187.6C87.7733 185.78 81.4733 181.913 76.46 176L76.39 175.58C76.3661 175.431 76.3822 175.279 76.4367 175.138C76.4911 174.997 76.582 174.874 76.7 174.78C79.8067 172.333 83.1467 170.227 86.72 168.46C87.0235 168.311 87.2676 168.056 87.41 167.74L87.86 166.73C88.04 166.317 88.2167 166.32 88.39 166.74C88.7367 167.58 89.3567 167.903 90.25 167.71C105.45 179.93 125.28 168.92 124.75 149.72L125.73 154.75C125.883 155.557 126.063 155.563 126.27 154.77L126.49 153.94C126.527 153.802 126.598 153.675 126.698 153.572C126.797 153.469 126.922 153.392 127.06 153.35C130.75 152.2 134.17 149.43 137.71 147.91C137.852 147.848 137.976 147.754 138.072 147.636C138.167 147.517 138.232 147.378 138.26 147.23C138.52 145.943 139.203 145.693 140.31 146.48Z" fill="white"/>
<path d="M296.5 146.04C309.213 152.567 319.63 161.707 327.75 173.46L326.8 173.29C326.723 173.276 326.645 173.282 326.571 173.306C326.497 173.331 326.43 173.373 326.376 173.429C326.323 173.486 326.284 173.555 326.264 173.63C326.244 173.705 326.242 173.784 326.26 173.86C326.347 174.273 326.24 174.487 325.94 174.5C325.747 174.507 325.57 174.557 325.41 174.65L316.15 180.1C315.984 180.198 315.79 180.238 315.598 180.214C315.407 180.191 315.228 180.105 315.09 179.97L313.62 178.52C313.513 178.417 313.379 178.347 313.233 178.321C313.087 178.294 312.936 178.311 312.8 178.37C312.56 178.47 312.363 178.68 312.21 179C303.95 169 293.797 161.57 281.75 156.71C281.697 156.583 281.663 156.45 281.65 156.31C281.638 156.196 281.662 156.081 281.719 155.98C281.777 155.88 281.864 155.799 281.97 155.75L287.66 153.18C287.758 153.136 287.841 153.063 287.9 152.971C287.958 152.879 287.989 152.771 287.99 152.66L288 152.25C288.001 152.232 288.01 152.211 288.028 152.19C288.046 152.169 288.071 152.148 288.1 152.13L296.56 147.13C296.667 147.07 296.66 147.027 296.54 147L296.28 146.96C296.277 146.96 296.275 146.959 296.273 146.957C296.271 146.955 296.27 146.953 296.27 146.95C296.27 146.947 296.271 146.945 296.273 146.943C296.275 146.941 296.277 146.94 296.28 146.94L296.5 146.04Z" fill="white"/>
<path d="M47.96 147.5V196.5L47.68 197.46C47.5933 197.76 47.55 197.753 47.55 197.44C47.55 195.807 47.4967 194.173 47.39 192.54C47.29 191.033 47.24 191.037 47.24 192.55L47.25 199.06C47.2567 199.82 47.1133 199.85 46.82 199.15C46.6 198.637 46.4933 198.077 46.5 197.47C46.5044 197.322 46.4689 197.175 46.3974 197.045C46.3258 196.915 46.2208 196.807 46.0932 196.731C45.9656 196.656 45.8201 196.616 45.6718 196.616C45.5235 196.615 45.3779 196.655 45.25 196.73L34.03 203.28C33.9768 203.311 33.9172 203.331 33.8557 203.336C33.7941 203.341 33.7321 203.332 33.6744 203.31C33.6167 203.288 33.5648 203.253 33.5224 203.208C33.4801 203.163 33.4485 203.109 33.43 203.05L33.03 201.71C32.8567 201.13 32.7967 201.143 32.85 201.75C32.99 203.21 32.72 204.543 32.04 205.75V165.25L32.26 164.91C32.3933 164.697 32.4567 164.717 32.45 164.97C32.4367 166.143 32.49 167.31 32.61 168.47C32.71 169.45 32.76 169.447 32.76 168.46L32.75 160.5C32.75 160.369 32.8013 160.243 32.8929 160.15C32.9845 160.056 33.1091 160.003 33.24 160H33.52C33.6118 160 33.7015 159.976 33.78 159.93L46.8 151.82C46.8607 151.784 46.911 151.733 46.946 151.671C46.981 151.61 46.9996 151.541 47 151.47V151.19C47 151.017 47.04 151.007 47.12 151.16L47.3 151.47C47.4333 151.703 47.4867 151.687 47.46 151.42C47.3267 150.06 47.4933 148.753 47.96 147.5Z" fill="white"/>
<path d="M479.96 165V212L479.42 217.45C479.413 217.563 479.4 217.567 479.38 217.46C479.24 216.427 479.197 215.19 479.25 213.75C479.34 211.58 477.76 211.14 476.06 212.02C472.76 213.72 469.387 215.337 465.94 216.87C465.877 216.897 465.809 216.909 465.741 216.905C465.672 216.9 465.606 216.88 465.547 216.844C465.489 216.809 465.439 216.76 465.403 216.702C465.367 216.644 465.345 216.578 465.34 216.51L465.04 210.53C465 209.863 464.947 209.863 464.88 210.53L464.04 218.25V175.25L464.33 176.24C464.457 176.68 464.517 176.673 464.51 176.22C464.457 173.473 464.557 170.733 464.81 168C464.883 167.213 464.95 167.213 465.01 168L465.46 174.47C465.464 174.524 465.483 174.576 465.512 174.621C465.542 174.666 465.583 174.702 465.631 174.727C465.679 174.752 465.732 174.765 465.786 174.763C465.84 174.762 465.893 174.747 465.94 174.72C467.92 173.57 469.85 172.88 471.77 171.42C473.883 169.807 476.293 168.847 479 168.54C479.048 168.535 479.097 168.545 479.139 168.571C479.181 168.596 479.213 168.634 479.23 168.68L479.31 168.94C479.637 169.92 479.703 169.863 479.51 168.77C479.27 167.437 479.42 166.18 479.96 165Z" fill="white"/>
<path d="M327.75 173.46C335.223 183.833 340.093 195.23 342.36 207.65C339.567 208.977 335.537 211.17 330.27 214.23C329.183 214.863 328.193 214.607 327.3 213.46C325.173 200.713 320.143 189.227 312.21 179C312.363 178.68 312.56 178.47 312.8 178.37C312.936 178.311 313.087 178.294 313.233 178.321C313.379 178.347 313.513 178.417 313.62 178.52L315.09 179.97C315.228 180.105 315.406 180.191 315.598 180.214C315.79 180.238 315.983 180.198 316.15 180.1L325.41 174.65C325.57 174.557 325.747 174.507 325.94 174.5C326.24 174.487 326.347 174.273 326.26 173.86C326.242 173.784 326.244 173.705 326.264 173.63C326.284 173.555 326.323 173.486 326.376 173.429C326.43 173.373 326.497 173.331 326.571 173.306C326.645 173.282 326.723 173.276 326.8 173.29L327.75 173.46Z" fill="white"/>
<path d="M292.5 193.21L291.37 193.08C290.883 193.027 290.743 193.223 290.95 193.67L291.06 193.9C291.126 194.036 291.138 194.192 291.093 194.337C291.049 194.482 290.951 194.604 290.82 194.68C288.06 196.287 285.313 197.91 282.58 199.55C280.68 200.68 279.19 200.34 277.82 198.76C277.723 198.648 277.594 198.567 277.45 198.528C277.306 198.488 277.153 198.493 277.01 198.54C276.63 198.673 276.363 198.91 276.21 199.25C257.19 184.85 230.23 193.35 224.85 216.98C223.46 223.1 224 231.48 223.96 238.5C223.693 239.447 223.667 240.497 223.88 241.65C223.987 242.243 223.797 242.363 223.31 242.01C222.417 241.377 221.747 241.537 221.3 242.49C221.151 242.807 220.901 243.065 220.59 243.22C216.69 245.167 212.96 247.397 209.4 249.91C207.23 251.45 204.61 251.69 202.62 253.9C202.413 254.134 202.131 254.292 201.82 254.35L200.99 254.5C199.083 254.86 199.107 254.98 201.06 254.86C201.8 254.813 202.28 255.18 202.5 255.96L184.56 256.06C184.427 256.06 184.3 256.113 184.206 256.206C184.113 256.3 184.06 256.427 184.06 256.56L183.96 265.5L183.39 269.7C183.383 269.727 183.38 269.727 183.38 269.7L183.15 265.54C183.137 265.293 183.07 265.28 182.95 265.5C182.39 266.56 175.59 269.2 174.13 269.7C173.793 269.817 173.502 270.041 173.3 270.34C172.433 271.6 171.247 272.02 169.74 271.6C169.582 271.554 169.44 271.467 169.327 271.347C169.215 271.228 169.136 271.08 169.1 270.92L168.9 270.03C168.76 269.417 168.71 269.423 168.75 270.05C168.99 273.503 168.753 276.903 168.04 280.25V221C168.453 220.78 168.71 220.443 168.81 219.99C168.87 219.697 168.937 219.697 169.01 219.99L169.24 221C169.393 221.68 169.57 221.68 169.77 221C169.883 220.62 170.137 220.447 170.53 220.48C170.836 220.506 171.143 220.436 171.41 220.28L182.53 213.81C182.672 213.728 182.786 213.604 182.858 213.456C182.929 213.308 182.954 213.142 182.93 212.98C182.83 212.333 183.073 211.917 183.66 211.73C183.779 211.693 183.882 211.618 183.954 211.517C184.026 211.416 184.063 211.294 184.06 211.17C184.04 210.37 184.437 209.993 185.25 210.04C183.923 219.82 183.57 229.637 184.19 239.49C184.198 239.628 184.258 239.758 184.358 239.853C184.459 239.947 184.592 240 184.73 240H207.46C207.588 240 207.711 239.95 207.803 239.86C207.895 239.77 207.947 239.648 207.95 239.52C208.1 232.59 207.55 224.66 208.42 218.52C214.4 176.48 264.16 161.22 292.5 193.21Z" fill="white"/>
<path d="M111.95 189.22C112.01 203.54 112.027 217.837 112 232.11C111.993 235.223 111.703 237.44 111.13 238.76C107.51 247.13 96.06 243.63 96.02 234.27C95.9733 224.263 95.98 214.257 96.04 204.25C96.84 202.123 97.0867 199.89 96.78 197.55C96.9467 199.097 97.0633 200.65 97.13 202.21C97.1433 202.57 97.2 202.577 97.3 202.23C97.6067 201.157 97.6467 200.05 97.42 198.91C97.3352 198.478 97.4021 198.03 97.6097 197.64C97.8172 197.25 98.1527 196.943 98.56 196.77C102.35 195.17 106.04 191.39 110.71 191.97C110.767 191.976 110.824 191.97 110.878 191.951C110.932 191.932 110.981 191.901 111.021 191.861C111.061 191.821 111.092 191.772 111.111 191.718C111.13 191.664 111.136 191.607 111.13 191.55C110.783 188.837 111.057 188.06 111.95 189.22Z" fill="white"/>
<path d="M47.96 196.5V234.75L47.18 238.69C47.1719 238.737 47.1521 238.781 47.1224 238.818C47.0927 238.855 47.0539 238.884 47.0095 238.903C46.9651 238.921 46.9164 238.929 46.8677 238.925C46.8189 238.921 46.7717 238.906 46.73 238.88L46.51 238.73C46.4368 238.684 46.3526 238.66 46.2664 238.658C46.1802 238.656 46.095 238.677 46.02 238.72L34.09 245.73C33.5967 246.017 33.3933 245.877 33.48 245.31C33.66 244.223 33.51 243.197 33.03 242.23C32.7967 241.763 32.6633 241.79 32.63 242.31L32.29 247.5L32.04 205.75C32.72 204.543 32.99 203.21 32.85 201.75C32.7967 201.143 32.8567 201.13 33.03 201.71L33.43 203.05C33.4485 203.109 33.4801 203.163 33.5224 203.208C33.5648 203.253 33.6167 203.288 33.6744 203.31C33.7321 203.332 33.7941 203.341 33.8557 203.336C33.9172 203.331 33.9768 203.311 34.03 203.28L45.25 196.73C45.3779 196.655 45.5235 196.615 45.6718 196.616C45.8201 196.616 45.9656 196.656 46.0932 196.731C46.2208 196.807 46.3258 196.915 46.3974 197.045C46.4689 197.175 46.5044 197.322 46.5 197.47C46.4933 198.077 46.6 198.637 46.82 199.15C47.1133 199.85 47.2567 199.82 47.25 199.06L47.24 192.55C47.24 191.037 47.29 191.033 47.39 192.54C47.4967 194.173 47.55 195.807 47.55 197.44C47.55 197.753 47.5933 197.76 47.68 197.46L47.96 196.5Z" fill="white"/>
<path d="M292.5 193.21C304.23 206.8 304.42 221.41 303.96 238.5L303.72 238.94C303.447 239.44 303.3 239.407 303.28 238.84L303.26 237.64C303.259 237.595 303.249 237.551 303.229 237.511C303.21 237.47 303.183 237.434 303.149 237.405C303.115 237.376 303.075 237.354 303.032 237.341C302.99 237.328 302.944 237.324 302.9 237.33L301.09 237.55C300.777 237.59 300.483 237.687 300.21 237.84C298.64 238.7 288 244.62 287.98 245.58C287.974 245.742 287.927 245.899 287.843 246.037C287.759 246.176 287.641 246.29 287.5 246.37L286.56 246.9C286.419 246.98 286.256 247.012 286.095 246.99C285.934 246.969 285.785 246.895 285.67 246.78L284.72 245.85C284.614 245.746 284.473 245.685 284.323 245.679C284.174 245.674 284.026 245.724 283.91 245.82C280.74 248.46 279.69 252.42 276.23 253.22C275.923 253.293 275.907 253.41 276.18 253.57L276.53 253.77C276.581 253.799 276.626 253.838 276.661 253.885C276.696 253.933 276.721 253.987 276.733 254.044C276.746 254.101 276.746 254.159 276.733 254.216C276.72 254.272 276.695 254.325 276.66 254.37C276.16 255.043 275.523 255.573 274.75 255.96H202.5C202.28 255.18 201.8 254.813 201.06 254.86C199.107 254.98 199.083 254.86 200.99 254.5L201.82 254.35C202.131 254.292 202.413 254.134 202.62 253.9C204.61 251.69 207.23 251.45 209.4 249.91C212.96 247.397 216.69 245.167 220.59 243.22C220.901 243.065 221.151 242.807 221.3 242.49C221.747 241.537 222.417 241.377 223.31 242.01C223.797 242.363 223.987 242.243 223.88 241.65C223.667 240.497 223.693 239.447 223.96 238.5L224.02 239.51C224.028 239.643 224.086 239.767 224.183 239.858C224.279 239.95 224.407 240 224.54 240H287.5C287.573 240 287.645 239.985 287.713 239.957C287.78 239.929 287.841 239.888 287.892 239.835C287.944 239.783 287.984 239.721 288.011 239.654C288.038 239.586 288.051 239.513 288.05 239.44C287.84 223.58 289.67 210.7 276.21 199.25C276.363 198.91 276.63 198.673 277.01 198.54C277.153 198.493 277.306 198.488 277.45 198.528C277.594 198.567 277.723 198.648 277.82 198.76C279.19 200.34 280.68 200.68 282.58 199.55C285.313 197.91 288.06 196.287 290.82 194.68C290.951 194.604 291.049 194.482 291.093 194.337C291.138 194.192 291.126 194.036 291.06 193.9L290.95 193.67C290.743 193.223 290.883 193.027 291.37 193.08L292.5 193.21Z" fill="white"/>
<path d="M415.96 200C416.02 211.02 416.027 222.04 415.98 233.06C415.967 235.887 415.637 237.913 414.99 239.14C412.15 244.55 404.27 244.73 401.24 239.58C398.59 235.07 400 219.01 400.04 213.25L400.72 207.28C400.787 206.66 400.877 206.657 400.99 207.27L401.27 208.76C401.323 209.06 401.427 209.077 401.58 208.81L401.79 208.45C401.842 208.352 401.922 208.272 402.02 208.22L413.68 201.7C413.841 201.611 414.03 201.585 414.21 201.627C414.389 201.67 414.546 201.778 414.65 201.93C414.843 202.217 414.863 202.41 414.71 202.51C414.692 202.523 414.678 202.539 414.668 202.559C414.658 202.578 414.653 202.599 414.653 202.62C414.653 202.64 414.658 202.661 414.668 202.678C414.678 202.696 414.692 202.71 414.71 202.72L415.03 202.91C415.243 203.03 415.313 202.977 415.24 202.75C414.893 201.603 415.133 200.687 415.96 200Z" fill="white"/>
<path d="M342.36 207.65C344.77 220.32 344.19 234.13 343.96 247C343.2 248.307 342.96 249.763 343.24 251.37C343.32 251.837 343.153 251.957 342.74 251.73L342.48 251.6C342.355 251.533 342.215 251.5 342.072 251.506C341.93 251.511 341.791 251.554 341.67 251.63L330.96 258.28C330.9 258.319 330.826 258.334 330.754 258.321C330.682 258.308 330.616 258.268 330.57 258.21L330.35 257.94C330.143 257.68 330.02 257.713 329.98 258.04L329.75 259.97C329.657 260.717 329.53 260.723 329.37 259.99L329.1 258.75C328.98 258.177 328.943 258.19 328.99 258.79C329.07 259.83 328.757 260.333 328.05 260.3L327.97 256.5C327.967 256.364 327.91 256.234 327.811 256.139C327.712 256.043 327.579 255.99 327.44 255.99L274.75 255.96C275.523 255.573 276.16 255.043 276.66 254.37C276.695 254.325 276.72 254.272 276.733 254.216C276.746 254.159 276.746 254.101 276.733 254.044C276.721 253.987 276.696 253.933 276.661 253.885C276.626 253.838 276.581 253.799 276.53 253.77L276.18 253.57C275.907 253.41 275.923 253.293 276.23 253.22C279.69 252.42 280.74 248.46 283.91 245.82C284.026 245.724 284.174 245.674 284.323 245.679C284.473 245.685 284.614 245.746 284.72 245.85L285.67 246.78C285.785 246.895 285.934 246.969 286.095 246.99C286.256 247.012 286.419 246.98 286.56 246.9L287.5 246.37C287.641 246.29 287.759 246.176 287.843 246.037C287.927 245.899 287.974 245.742 287.98 245.58C288 244.62 298.64 238.7 300.21 237.84C300.483 237.687 300.777 237.59 301.09 237.55L302.9 237.33C302.944 237.324 302.99 237.328 303.032 237.341C303.075 237.354 303.115 237.376 303.149 237.405C303.183 237.434 303.21 237.47 303.229 237.511C303.249 237.551 303.259 237.595 303.26 237.64L303.28 238.84C303.3 239.407 303.447 239.44 303.72 238.94L303.96 238.5L304.02 239.51C304.028 239.643 304.086 239.767 304.183 239.858C304.279 239.95 304.407 240 304.54 240H327.44C327.564 240 327.683 239.951 327.773 239.863C327.862 239.776 327.915 239.656 327.92 239.53C328.253 230.837 328.047 222.147 327.3 213.46C328.193 214.607 329.183 214.863 330.27 214.23C335.537 211.17 339.567 208.977 342.36 207.65Z" fill="white"/>
<path d="M479.96 212C480.22 226.76 479.97 241.51 479.21 256.25L478.75 256.05C478.623 255.991 478.513 255.902 478.428 255.791C478.342 255.679 478.285 255.549 478.26 255.41L477.8 252.78C477.747 252.493 477.65 252.477 477.51 252.73L477.38 252.96C477.203 253.274 476.947 253.534 476.64 253.71L464.69 260.56C464.556 260.64 464.444 260.753 464.367 260.888C464.29 261.023 464.25 261.175 464.25 261.33V262.21C464.25 262.49 464.153 262.533 463.96 262.34L463.69 262.07C463.35 261.73 463.197 261.8 463.23 262.28L463.3 263.09C463.307 263.217 463.333 263.22 463.38 263.1C463.433 262.96 463.51 262.867 463.61 262.82C463.668 262.789 463.734 262.772 463.8 262.773C463.866 262.774 463.931 262.791 463.99 262.824C464.048 262.857 464.098 262.904 464.135 262.961C464.171 263.017 464.194 263.082 464.2 263.15L464.26 263.75C464.266 263.815 464.257 263.881 464.236 263.943C464.214 264.005 464.179 264.062 464.134 264.109C464.088 264.156 464.033 264.194 463.972 264.218C463.911 264.242 463.846 264.253 463.78 264.25C463.587 264.243 463.497 264.33 463.51 264.51C463.53 264.963 463.467 264.96 463.32 264.5L463.18 264.05C463.073 263.703 463.03 263.713 463.05 264.08C463.077 264.473 463.047 264.853 462.96 265.22C462.893 265.493 462.847 265.49 462.82 265.21L462.54 262.5C463.82 247.78 464.32 233.03 464.04 218.25L464.88 210.53C464.947 209.863 465 209.863 465.04 210.53L465.34 216.51C465.345 216.578 465.367 216.644 465.403 216.702C465.439 216.76 465.489 216.809 465.547 216.844C465.606 216.88 465.672 216.9 465.741 216.905C465.809 216.909 465.877 216.897 465.94 216.87C469.387 215.337 472.76 213.72 476.06 212.02C477.76 211.14 479.34 211.58 479.25 213.75C479.197 215.19 479.24 216.427 479.38 217.46C479.4 217.567 479.413 217.563 479.42 217.45L479.96 212Z" fill="white"/>
<path d="M47.96 234.75C48.1133 250.163 49.3767 265.483 51.75 280.71C51.6233 280.843 51.5333 280.99 51.48 281.15C51.477 281.162 51.4706 281.174 51.4616 281.183C51.4526 281.192 51.4414 281.198 51.429 281.201C51.4167 281.204 51.4038 281.204 51.3916 281.2C51.3794 281.196 51.3685 281.189 51.36 281.18L49.96 279.86C49.9206 279.822 49.8728 279.793 49.8203 279.777C49.7677 279.76 49.7118 279.756 49.6568 279.765C49.6017 279.773 49.5491 279.795 49.5029 279.827C49.4566 279.859 49.418 279.901 49.39 279.95C48.47 281.56 39.85 285.69 37.73 286.7C37.6847 286.722 37.6348 286.734 37.5843 286.734C37.5337 286.734 37.4838 286.723 37.4384 286.701C37.3929 286.679 37.3532 286.646 37.3223 286.606C37.2914 286.566 37.2701 286.52 37.26 286.47C37.1867 286.143 36.9467 285.987 36.54 286C34.3133 273.26 32.8967 260.427 32.29 247.5L32.63 242.31C32.6633 241.79 32.7967 241.763 33.03 242.23C33.51 243.197 33.66 244.223 33.48 245.31C33.3933 245.877 33.5967 246.017 34.09 245.73L46.02 238.72C46.095 238.677 46.1802 238.656 46.2664 238.658C46.3526 238.66 46.4368 238.684 46.51 238.73L46.73 238.88C46.7717 238.906 46.8189 238.921 46.8677 238.925C46.9164 238.929 46.9651 238.921 47.0095 238.903C47.0539 238.884 47.0927 238.855 47.1224 238.818C47.1521 238.781 47.1719 238.737 47.18 238.69L47.96 234.75Z" fill="white"/>
<path d="M343.96 247V296L343.38 291.77C343.287 291.11 343.24 291.113 343.24 291.78L343.25 298.55C343.25 298.756 343.171 298.953 343.03 299.1L342.79 299.35C342.583 299.563 342.45 299.523 342.39 299.23L341.97 297.25C341.92 297.007 341.823 296.777 341.683 296.572C341.544 296.367 341.366 296.192 341.158 296.056C340.951 295.921 340.719 295.827 340.476 295.782C340.232 295.736 339.982 295.739 339.74 295.79C336.273 296.537 332.99 297.803 329.89 299.59C329.845 299.617 329.794 299.632 329.742 299.633C329.689 299.634 329.637 299.622 329.59 299.597C329.543 299.572 329.503 299.535 329.473 299.49C329.444 299.445 329.425 299.394 329.42 299.34L328.78 293.3C328.74 292.96 328.693 292.957 328.64 293.29L328.04 297.25L328.05 260.3C328.757 260.333 329.07 259.83 328.99 258.79C328.943 258.19 328.98 258.177 329.1 258.75L329.37 259.99C329.53 260.723 329.657 260.717 329.75 259.97L329.98 258.04C330.02 257.713 330.143 257.68 330.35 257.94L330.57 258.21C330.616 258.268 330.682 258.308 330.754 258.321C330.826 258.334 330.9 258.319 330.96 258.28L341.67 251.63C341.791 251.554 341.93 251.511 342.072 251.506C342.215 251.5 342.355 251.533 342.48 251.6L342.74 251.73C343.153 251.957 343.32 251.837 343.24 251.37C342.96 249.763 343.2 248.307 343.96 247Z" fill="white"/>
<path d="M479.21 256.25C478.097 270.497 475.983 284.583 472.87 298.51C471.943 298.77 471.407 299.423 471.26 300.47C471.253 300.52 471.235 300.568 471.205 300.61C471.176 300.651 471.137 300.685 471.091 300.707C471.046 300.73 470.995 300.741 470.945 300.74C470.894 300.739 470.844 300.725 470.8 300.7C470.22 300.387 469.73 300.347 469.33 300.58C465.183 302.987 461.003 305.327 456.79 307.6C456.49 307.76 456.24 307.973 456.04 308.24C455.533 308.907 454.983 309.497 454.39 310.01C454.348 310.046 454.299 310.073 454.246 310.089C454.193 310.104 454.137 310.109 454.082 310.101C454.027 310.094 453.974 310.074 453.928 310.045C453.881 310.015 453.841 309.976 453.81 309.93L453.54 309.5C457.967 294.107 460.967 278.44 462.54 262.5L462.82 265.21C462.847 265.49 462.893 265.493 462.96 265.22C463.047 264.853 463.077 264.473 463.05 264.08C463.03 263.713 463.073 263.703 463.18 264.05L463.32 264.5C463.467 264.96 463.53 264.963 463.51 264.51C463.497 264.33 463.587 264.243 463.78 264.25C463.846 264.253 463.911 264.242 463.972 264.218C464.033 264.194 464.088 264.156 464.134 264.109C464.179 264.062 464.214 264.005 464.236 263.943C464.257 263.881 464.266 263.815 464.26 263.75L464.2 263.15C464.194 263.083 464.171 263.017 464.135 262.961C464.098 262.904 464.048 262.857 463.99 262.824C463.931 262.791 463.866 262.774 463.8 262.773C463.734 262.772 463.668 262.789 463.61 262.82C463.51 262.867 463.433 262.96 463.38 263.1C463.333 263.22 463.307 263.217 463.3 263.09L463.23 262.28C463.197 261.8 463.35 261.73 463.69 262.07L463.96 262.34C464.153 262.533 464.25 262.49 464.25 262.21V261.33C464.25 261.175 464.29 261.023 464.367 260.888C464.444 260.753 464.556 260.64 464.69 260.56L476.64 253.71C476.947 253.534 477.203 253.274 477.38 252.96L477.51 252.73C477.65 252.477 477.747 252.493 477.8 252.78L478.26 255.41C478.285 255.549 478.342 255.679 478.428 255.791C478.513 255.902 478.623 255.991 478.75 256.05L479.21 256.25Z" fill="white"/>
<path d="M127.52 323.59C122.453 325.743 117.843 328.543 113.69 331.99C106.67 314.223 101.69 295.057 98.75 274.49C96.97 262 112.76 260.1 114.43 271.91C116.943 289.683 121.307 306.91 127.52 323.59Z" fill="white"/>
<path d="M405.96 309.25L405.19 309.09C405.122 309.075 405.052 309.076 404.985 309.091C404.918 309.106 404.854 309.135 404.799 309.177C404.744 309.219 404.699 309.272 404.666 309.333C404.633 309.394 404.614 309.461 404.61 309.53C404.517 310.857 403.86 311.467 402.64 311.36C402.308 311.327 401.976 311.401 401.69 311.57C400.14 312.46 388.35 318.81 388.12 319.33C388.058 319.467 387.965 319.587 387.848 319.68C387.732 319.774 387.596 319.839 387.45 319.87L385.71 320.25C391.077 305.097 394.93 289.577 397.27 273.69C397.697 270.797 398.293 268.76 399.06 267.58C403.43 260.86 414.28 264.68 413.53 272.49C412.523 282.943 410 295.197 405.96 309.25Z" fill="white"/>
<path d="M183.96 265.5V308.5L183.66 307.03C183.62 306.837 183.58 306.837 183.54 307.03L183.28 308.49C183.249 308.665 183.178 308.829 183.074 308.972C182.97 309.114 182.835 309.229 182.68 309.31C179.12 311.19 175.72 313.57 172.16 315.42C171.24 315.893 170.383 316.47 169.59 317.15C169.383 317.33 169.297 317.28 169.33 317C169.39 316.607 169.323 316.25 169.13 315.93C168.937 315.603 168.83 315.63 168.81 316.01L168.04 328.75V280.25C168.753 276.903 168.99 273.503 168.75 270.05C168.71 269.423 168.76 269.417 168.9 270.03L169.1 270.92C169.136 271.08 169.215 271.228 169.327 271.347C169.44 271.467 169.582 271.554 169.74 271.6C171.247 272.02 172.433 271.6 173.3 270.34C173.502 270.041 173.793 269.817 174.13 269.7C175.59 269.2 182.39 266.56 182.95 265.5C183.07 265.28 183.137 265.293 183.15 265.54L183.38 269.7C183.38 269.727 183.383 269.727 183.39 269.7L183.96 265.5Z" fill="white"/>
<path d="M279.21 306.75L278.55 307.47C278.397 307.63 278.307 307.6 278.28 307.38C278.24 307.04 278.06 306.833 277.74 306.76C277.456 306.692 277.189 306.64 276.98 306.613C276.772 306.586 276.635 306.585 276.59 306.61L268.17 311.61C267.85 311.803 267.577 312.043 267.35 312.33C266.93 312.857 266.377 313.037 265.69 312.87C265.527 312.832 265.381 312.743 265.273 312.617C265.165 312.491 265.101 312.335 265.09 312.17C265.01 311.243 264.577 310.687 263.79 310.5C262.63 306.053 259.947 303.88 255.74 303.98C246.41 304.2 245.09 317.46 255.06 320.02C255.967 320.987 255.287 321.207 253.02 320.68C252.973 320.673 252.967 320.653 253 320.62L253.38 320.27C253.947 319.743 253.9 319.677 253.24 320.07L242.27 326.52C241.977 326.69 241.74 326.94 241.59 327.24C241.123 328.167 240.417 328.84 239.47 329.26C226.58 316.58 231.2 296.79 247.4 289.77C247.538 289.71 247.657 289.613 247.744 289.492C247.83 289.37 247.881 289.227 247.89 289.08C248.32 282.32 246.33 271.35 256.84 272.26C265.66 273.03 263.94 283.37 264.09 289.09C264.092 289.238 264.138 289.383 264.222 289.505C264.305 289.628 264.423 289.723 264.56 289.78C272.327 292.94 277.21 298.597 279.21 306.75Z" fill="white"/>
<path d="M51.75 280.71C53.9633 292.563 56.7733 304.227 60.18 315.7C59.7867 316.233 58.7333 317.08 57.02 318.24C53.2733 320.78 49.9733 322.51 47.12 323.43C46.9704 323.479 46.8357 323.565 46.7289 323.68C46.6221 323.796 46.5468 323.937 46.51 324.09C46.4567 324.29 46.44 324.51 46.46 324.75C42.22 312.077 38.9133 299.16 36.54 286C36.9467 285.987 37.1867 286.143 37.26 286.47C37.2701 286.52 37.2914 286.566 37.3223 286.606C37.3532 286.646 37.3929 286.679 37.4384 286.701C37.4838 286.723 37.5337 286.734 37.5843 286.734C37.6348 286.734 37.6847 286.722 37.73 286.7C39.85 285.69 48.47 281.56 49.39 279.95C49.418 279.901 49.4566 279.859 49.5029 279.827C49.5491 279.795 49.6017 279.773 49.6568 279.765C49.7118 279.756 49.7677 279.76 49.8203 279.777C49.8728 279.793 49.9206 279.822 49.96 279.86L51.36 281.18C51.3685 281.189 51.3794 281.196 51.3916 281.2C51.4038 281.204 51.4167 281.204 51.429 281.201C51.4414 281.198 51.4526 281.192 51.4616 281.183C51.4706 281.174 51.477 281.162 51.48 281.15C51.5333 280.99 51.6233 280.843 51.75 280.71Z" fill="white"/>
<path d="M343.96 296C344.04 312.18 344.053 322.513 344 327C343.77 346.24 332.18 361.94 313.63 366.63C309.903 367.57 304.277 368.033 296.75 368.02C286.003 368.007 275.253 367.987 264.5 367.96C264.367 367.427 264.03 367.147 263.49 367.12C263.183 367.107 263.17 367.033 263.45 366.9C263.843 366.713 264.277 366.637 264.75 366.67C264.876 366.678 265 366.635 265.095 366.551C265.19 366.467 265.25 366.348 265.26 366.22L265.31 365.56C265.33 365.211 265.471 364.881 265.71 364.63L267.68 362.53C267.927 362.263 268.213 362.05 268.54 361.89C269.64 361.357 269.827 360.65 269.1 359.77C269.06 359.723 269.034 359.666 269.023 359.605C269.013 359.544 269.018 359.482 269.04 359.424C269.061 359.366 269.097 359.315 269.145 359.276C269.192 359.236 269.249 359.21 269.31 359.2L274.73 358.16C274.87 358.131 275.014 358.131 275.154 358.158C275.295 358.186 275.43 358.241 275.55 358.32L276.46 358.92C276.739 359.102 277.072 359.19 277.41 359.17C279.803 359.017 281.917 358.223 283.75 356.79C283.937 356.643 283.913 356.55 283.68 356.51C283.533 356.483 283.407 356.417 283.3 356.31C283.033 356.043 283.087 355.913 283.46 355.92L287.62 356.04C288.893 356.073 288.927 355.887 287.72 355.48C286.787 355.167 285.84 355.05 284.88 355.13C284.573 355.157 284.263 355.153 283.95 355.12L278.9 354.64C278.693 354.62 278.667 354.543 278.82 354.41L279.02 354.24C279.133 354.147 279.117 354.1 278.97 354.1C278.51 354.107 278.123 353.95 277.81 353.63C277.443 353.257 277.52 353.067 278.04 353.06L287.48 352.97C287.62 352.967 287.754 352.915 287.859 352.823C287.963 352.732 288.031 352.606 288.05 352.47C288.063 352.33 288.047 352.187 288 352.04C295.41 351.95 304.54 352.84 311.01 350.8C324.05 346.7 328.06 336.35 328.01 323.68C327.977 314.867 327.987 306.057 328.04 297.25L328.64 293.29C328.693 292.957 328.74 292.96 328.78 293.3L329.42 299.34C329.425 299.394 329.444 299.445 329.473 299.49C329.503 299.535 329.543 299.572 329.59 299.597C329.637 299.622 329.689 299.634 329.742 299.633C329.794 299.632 329.845 299.617 329.89 299.59C332.99 297.803 336.273 296.537 339.74 295.79C339.982 295.739 340.232 295.736 340.476 295.782C340.719 295.827 340.951 295.921 341.158 296.057C341.366 296.192 341.544 296.367 341.683 296.572C341.823 296.777 341.92 297.007 341.97 297.25L342.39 299.23C342.45 299.523 342.583 299.563 342.79 299.35L343.03 299.1C343.171 298.953 343.25 298.756 343.25 298.55L343.24 291.78C343.24 291.113 343.287 291.11 343.38 291.77L343.96 296Z" fill="white"/>
<path d="M472.87 298.51C465.177 332.237 451.9 363.567 433.04 392.5L432.35 390.63C432.328 390.564 432.291 390.504 432.242 390.455C432.193 390.405 432.133 390.367 432.068 390.343C432.002 390.319 431.931 390.31 431.86 390.317C431.79 390.323 431.721 390.345 431.66 390.38L410.46 402.56C410.2 402.707 409.92 402.79 409.62 402.81C408.587 402.857 407.837 403.347 407.37 404.28C407.301 404.413 407.195 404.523 407.066 404.596C406.936 404.669 406.788 404.702 406.64 404.69C406.047 404.643 405.667 404.233 405.5 403.46C427.653 375.3 443.667 343.98 453.54 309.5L453.81 309.93C453.841 309.976 453.881 310.015 453.928 310.045C453.974 310.074 454.027 310.094 454.082 310.101C454.137 310.109 454.193 310.104 454.246 310.089C454.299 310.073 454.348 310.046 454.39 310.01C454.983 309.497 455.533 308.907 456.04 308.24C456.24 307.973 456.49 307.76 456.79 307.6C461.003 305.327 465.183 302.987 469.33 300.58C469.73 300.347 470.22 300.387 470.8 300.7C470.844 300.725 470.894 300.739 470.945 300.74C470.995 300.741 471.046 300.73 471.091 300.707C471.137 300.685 471.176 300.651 471.205 300.61C471.235 300.568 471.253 300.52 471.26 300.47C471.407 299.423 471.943 298.77 472.87 298.51Z" fill="white"/>
<path d="M183.96 308.5C184.04 319.72 181.83 332.82 188.99 342.69C189.323 344.077 189.973 345.32 190.94 346.42C191.147 346.647 191.097 346.76 190.79 346.76C188 346.73 178.96 353.63 178.36 353.15C178.147 352.983 178.033 353.033 178.02 353.3L177.96 354.25C171.687 346.95 168.38 338.45 168.04 328.75L168.81 316.01C168.83 315.63 168.937 315.603 169.13 315.93C169.323 316.25 169.39 316.607 169.33 317C169.297 317.28 169.383 317.33 169.59 317.15C170.383 316.47 171.24 315.893 172.16 315.42C175.72 313.57 179.12 311.19 182.68 309.31C182.835 309.23 182.97 309.114 183.074 308.972C183.178 308.829 183.249 308.665 183.28 308.49L183.54 307.03C183.58 306.837 183.62 306.837 183.66 307.03L183.96 308.5Z" fill="white"/>
<path d="M279.21 306.75C284.93 330.03 256.43 345.16 239.47 329.26C240.417 328.84 241.123 328.167 241.59 327.24C241.74 326.94 241.977 326.69 242.27 326.52L253.24 320.07C253.9 319.677 253.947 319.743 253.38 320.27L253 320.62C252.967 320.653 252.973 320.673 253.02 320.68C255.287 321.207 255.967 320.987 255.06 320.02C261.173 319.767 264.083 316.593 263.79 310.5C264.577 310.687 265.01 311.243 265.09 312.17C265.101 312.335 265.165 312.491 265.273 312.617C265.381 312.743 265.527 312.832 265.69 312.87C266.377 313.037 266.93 312.857 267.35 312.33C267.577 312.043 267.85 311.803 268.17 311.61L276.59 306.61C276.635 306.585 276.772 306.586 276.98 306.613C277.189 306.64 277.456 306.692 277.74 306.76C278.06 306.833 278.24 307.04 278.28 307.38C278.307 307.6 278.397 307.63 278.55 307.47L279.21 306.75Z" fill="white"/>
<path d="M405.96 309.25C399.36 333.07 389.053 355.153 375.04 375.5L374.75 374.25C374.563 373.477 374.343 373.467 374.09 374.22C373.757 375.187 373.123 375.463 372.19 375.05C372.057 374.99 371.907 374.975 371.765 375.007C371.622 375.04 371.494 375.118 371.4 375.23C370.88 375.863 370.263 376.387 369.55 376.8C361.197 381.633 352.82 386.447 344.42 391.24C344.287 391.314 344.139 391.356 343.988 391.361C343.836 391.366 343.686 391.335 343.55 391.27L341.96 390.5C361.453 370.16 376.037 346.743 385.71 320.25L387.45 319.87C387.596 319.839 387.732 319.774 387.848 319.68C387.965 319.587 388.058 319.467 388.12 319.33C388.35 318.81 400.14 312.46 401.69 311.57C401.976 311.401 402.308 311.327 402.64 311.36C403.86 311.467 404.517 310.857 404.61 309.53C404.614 309.461 404.633 309.394 404.666 309.333C404.699 309.272 404.744 309.219 404.799 309.177C404.854 309.135 404.918 309.106 404.985 309.091C405.052 309.076 405.122 309.075 405.19 309.09L405.96 309.25Z" fill="white"/>
<path d="M60.18 315.7C64.5533 329.287 69.8133 342.47 75.96 355.25L74.84 355.13C74.8268 355.129 74.8139 355.125 74.8022 355.118C74.7905 355.112 74.7801 355.102 74.7717 355.091C74.7634 355.08 74.7571 355.067 74.7534 355.053C74.7497 355.039 74.7485 355.025 74.75 355.01L74.79 354.68C74.8233 354.38 74.7133 354.313 74.46 354.48C70.3267 357.107 65.9633 359.447 61.37 361.5C55.4767 349.66 50.5067 337.41 46.46 324.75C46.44 324.51 46.4567 324.29 46.51 324.09C46.5467 323.937 46.6221 323.796 46.7289 323.68C46.8357 323.565 46.9704 323.479 47.12 323.43C49.9733 322.51 53.2733 320.78 57.02 318.24C58.7333 317.08 59.7867 316.233 60.18 315.7Z" fill="white"/>
<path d="M127.52 323.59C132.233 335.53 137.88 346.917 144.46 357.75L144.27 360.18C144.257 360.307 144.207 360.327 144.12 360.24L143.9 360.04C143.845 359.985 143.774 359.95 143.697 359.939C143.619 359.929 143.54 359.943 143.47 359.98L131.27 366.85C124.35 355.757 118.49 344.137 113.69 331.99C117.843 328.543 122.453 325.743 127.52 323.59Z" fill="white"/>
<path d="M188.99 342.69C195.59 350.67 202.32 351.93 213.18 351.95C238.12 351.997 263.06 352.027 288 352.04C288.047 352.187 288.063 352.33 288.05 352.47C288.031 352.606 287.963 352.732 287.859 352.823C287.754 352.915 287.62 352.967 287.48 352.97L278.04 353.06C277.52 353.067 277.443 353.257 277.81 353.63C278.123 353.95 278.51 354.107 278.97 354.1C279.117 354.1 279.133 354.147 279.02 354.24L278.82 354.41C278.667 354.543 278.693 354.62 278.9 354.64L283.95 355.12C284.263 355.153 284.573 355.157 284.88 355.13C285.84 355.05 286.787 355.167 287.72 355.48C288.927 355.887 288.893 356.073 287.62 356.04L283.46 355.92C283.087 355.913 283.033 356.043 283.3 356.31C283.407 356.417 283.533 356.483 283.68 356.51C283.913 356.55 283.937 356.643 283.75 356.79C281.917 358.223 279.803 359.017 277.41 359.17C277.072 359.19 276.739 359.102 276.46 358.92L275.55 358.32C275.43 358.241 275.295 358.186 275.154 358.158C275.014 358.131 274.87 358.131 274.73 358.16L269.31 359.2C269.249 359.21 269.192 359.236 269.145 359.276C269.097 359.315 269.061 359.366 269.04 359.424C269.018 359.482 269.013 359.544 269.023 359.605C269.034 359.666 269.06 359.723 269.1 359.77C269.827 360.65 269.64 361.357 268.54 361.89C268.213 362.05 267.927 362.263 267.68 362.53L265.71 364.63C265.471 364.881 265.33 365.211 265.31 365.56L265.26 366.22C265.25 366.348 265.19 366.467 265.095 366.551C265 366.635 264.876 366.678 264.75 366.67C264.277 366.637 263.843 366.713 263.45 366.9C263.17 367.033 263.183 367.107 263.49 367.12C264.03 367.147 264.367 367.427 264.5 367.96C246 368.007 227.5 368.007 209 367.96C196.56 367.92 186.213 363.35 177.96 354.25L178.02 353.3C178.033 353.033 178.147 352.983 178.36 353.15C178.96 353.63 188 346.73 190.79 346.76C191.097 346.76 191.147 346.647 190.94 346.42C189.973 345.32 189.323 344.077 188.99 342.69Z" fill="white"/>
<path d="M75.96 355.25C81.1867 365.557 86.9467 375.54 93.24 385.2C92.2867 386.52 91.61 387.273 91.21 387.46C90.85 387.63 80.85 393.24 80.67 393.11C80.6302 393.083 80.5847 393.065 80.5369 393.059C80.4892 393.052 80.4406 393.057 80.3949 393.072C80.3493 393.088 80.3079 393.114 80.2741 393.148C80.2403 393.182 80.2149 393.224 80.2 393.27L79.96 394C73.0467 383.613 66.85 372.78 61.37 361.5C65.9633 359.447 70.3267 357.107 74.46 354.48C74.7133 354.313 74.8233 354.38 74.79 354.68L74.75 355.01C74.7485 355.025 74.7497 355.039 74.7534 355.053C74.7571 355.067 74.7634 355.08 74.7717 355.091C74.7801 355.102 74.7905 355.112 74.8022 355.118C74.8139 355.125 74.8268 355.129 74.84 355.13L75.96 355.25Z" fill="white"/>
<path d="M144.46 357.75C151.793 369.43 160.223 380.25 169.75 390.21L169.58 391.13C169.565 391.204 169.532 391.274 169.484 391.333C169.435 391.391 169.373 391.437 169.303 391.466C169.233 391.494 169.156 391.505 169.081 391.497C169.005 391.489 168.933 391.463 168.87 391.42L168.48 391.16C168.374 391.091 168.252 391.053 168.126 391.049C168.001 391.045 167.878 391.077 167.77 391.14L157.03 397.4C156.883 397.484 156.72 397.535 156.552 397.549C156.384 397.563 156.216 397.539 156.06 397.48C155.607 397.307 155.087 397.243 154.5 397.29C145.753 387.857 138.01 377.71 131.27 366.85L143.47 359.98C143.54 359.943 143.619 359.929 143.697 359.939C143.774 359.95 143.845 359.985 143.9 360.04L144.12 360.24C144.207 360.327 144.257 360.307 144.27 360.18L144.46 357.75Z" fill="white"/>
<path d="M375.04 375.5C353.713 405.793 326.303 428.92 292.81 444.88C292.67 444.946 292.547 445.043 292.452 445.165C292.356 445.286 292.291 445.428 292.26 445.58C286.16 476.25 250.47 487.81 228.75 464.29C229.07 463.957 229.197 463.653 229.13 463.38C229.104 463.282 229.111 463.179 229.149 463.085C229.187 462.992 229.254 462.913 229.34 462.86L240.18 456.6C240.502 456.42 240.876 456.367 241.23 456.45L242.54 456.76C242.847 456.833 242.89 456.76 242.67 456.54L242.42 456.3C242.398 456.279 242.381 456.252 242.371 456.223C242.361 456.194 242.358 456.162 242.363 456.132C242.368 456.101 242.38 456.072 242.399 456.048C242.418 456.023 242.442 456.003 242.47 455.99C242.543 455.95 242.637 455.94 242.75 455.96C259.06 469.12 281.66 453.45 275.79 433.5C278.26 430.01 283.39 428.18 286.95 425.7C287.058 425.625 287.182 425.577 287.313 425.56C287.443 425.543 287.576 425.558 287.699 425.603C287.823 425.648 287.934 425.722 288.023 425.819C288.112 425.916 288.176 426.033 288.21 426.16L288.51 427.26C288.617 427.633 288.697 427.627 288.75 427.24L288.79 426.92C288.823 426.68 288.937 426.637 289.13 426.79L290.48 427.91C309.78 418.437 326.94 405.967 341.96 390.5L343.55 391.27C343.686 391.335 343.836 391.366 343.988 391.361C344.139 391.356 344.287 391.314 344.42 391.24C352.82 386.447 361.197 381.633 369.55 376.8C370.263 376.387 370.88 375.863 371.4 375.23C371.494 375.118 371.622 375.04 371.765 375.007C371.907 374.975 372.057 374.99 372.19 375.05C373.123 375.463 373.757 375.187 374.09 374.22C374.343 373.467 374.563 373.477 374.75 374.25L375.04 375.5Z" fill="white"/>
<path d="M93.24 385.2C99.5533 394.547 106.307 403.55 113.5 412.21C113.88 413.49 114.597 414.567 115.65 415.44C115.688 415.471 115.718 415.512 115.735 415.558C115.753 415.604 115.758 415.654 115.75 415.703C115.741 415.752 115.72 415.798 115.689 415.836C115.657 415.874 115.616 415.903 115.57 415.92C110.843 417.76 106.46 420.31 102.42 423.57C94.2667 414.25 86.78 404.393 79.96 394L80.2 393.27C80.2149 393.224 80.2403 393.182 80.2741 393.148C80.3079 393.114 80.3493 393.088 80.3949 393.072C80.4406 393.057 80.4892 393.052 80.5369 393.059C80.5847 393.065 80.6302 393.083 80.67 393.11C80.85 393.24 90.85 387.63 91.21 387.46C91.61 387.273 92.2867 386.52 93.24 385.2Z" fill="white"/>
<path d="M169.75 390.21C180.817 401.43 192.997 411.277 206.29 419.75C205.337 420.357 204.517 420.173 203.83 419.2C203.75 419.089 203.629 419.015 203.495 418.992C203.36 418.97 203.222 419.001 203.11 419.08L202.82 419.29C202.79 419.312 202.764 419.34 202.746 419.373C202.728 419.406 202.718 419.443 202.716 419.48C202.714 419.518 202.721 419.555 202.735 419.59C202.75 419.624 202.772 419.655 202.8 419.68L203.03 419.89C203.07 419.926 203.102 419.971 203.121 420.022C203.14 420.072 203.147 420.127 203.141 420.18C203.136 420.234 203.117 420.286 203.087 420.331C203.057 420.376 203.017 420.414 202.97 420.44C198.437 422.927 195.097 424.857 192.95 426.23C192.003 426.837 191.673 427.843 191.96 429.25C178.113 420.19 165.627 409.537 154.5 397.29C155.087 397.243 155.607 397.307 156.06 397.48C156.216 397.539 156.384 397.563 156.552 397.549C156.72 397.535 156.883 397.484 157.03 397.4L167.77 391.14C167.878 391.077 168.001 391.045 168.126 391.049C168.252 391.053 168.374 391.091 168.48 391.16L168.87 391.42C168.933 391.463 169.005 391.489 169.081 391.497C169.156 391.505 169.233 391.494 169.303 391.466C169.373 391.437 169.435 391.391 169.484 391.333C169.532 391.274 169.565 391.204 169.58 391.13L169.75 390.21Z" fill="white"/>
<path d="M433.04 392.5C397.453 446.327 349.587 484.223 289.44 506.19C280.06 509.61 269.727 511.547 258.44 512H252.19C241.317 511.387 230.773 509.2 220.56 505.44C200.44 498.027 181.407 488.463 163.46 476.75C163.313 475.243 163.973 474.047 165.44 473.16C168.247 471.473 171.073 469.797 173.92 468.13C174.9 467.55 175.26 466.21 176.81 467.31C176.918 467.386 177.047 467.424 177.177 467.417C177.306 467.41 177.428 467.358 177.52 467.27C177.613 467.183 177.69 467.08 177.75 466.96C192.623 476.087 208.227 483.69 224.56 489.77C253.22 500.43 274.85 495.87 301.78 483.95C342.86 465.77 377.433 438.94 405.5 403.46C405.667 404.233 406.047 404.643 406.64 404.69C406.788 404.702 406.936 404.669 407.066 404.596C407.195 404.523 407.301 404.413 407.37 404.28C407.837 403.347 408.587 402.857 409.62 402.81C409.92 402.79 410.2 402.707 410.46 402.56L431.66 390.38C431.721 390.345 431.79 390.323 431.86 390.317C431.931 390.31 432.002 390.319 432.068 390.343C432.133 390.367 432.193 390.405 432.242 390.455C432.291 390.504 432.328 390.564 432.35 390.63L433.04 392.5Z" fill="white"/>
<path d="M290.48 427.91L289.13 426.79C288.937 426.637 288.823 426.68 288.79 426.92L288.75 427.24C288.697 427.627 288.617 427.633 288.51 427.26L288.21 426.16C288.176 426.033 288.112 425.916 288.023 425.819C287.934 425.722 287.823 425.648 287.699 425.603C287.576 425.558 287.443 425.543 287.313 425.56C287.182 425.577 287.058 425.625 286.95 425.7C283.39 428.18 278.26 430.01 275.79 433.5C269.97 418.05 249.7 413.75 239.62 427.36C232.74 436.65 234.07 448.25 242.75 455.96C242.637 455.94 242.543 455.95 242.47 455.99C242.442 456.003 242.418 456.023 242.399 456.048C242.38 456.072 242.368 456.101 242.363 456.132C242.358 456.162 242.361 456.194 242.371 456.223C242.381 456.252 242.398 456.279 242.42 456.3L242.67 456.54C242.89 456.76 242.847 456.833 242.54 456.76L241.23 456.45C240.876 456.367 240.502 456.42 240.18 456.6L229.34 462.86C229.254 462.913 229.187 462.992 229.149 463.085C229.111 463.179 229.104 463.282 229.13 463.38C229.197 463.653 229.07 463.957 228.75 464.29C224.017 458.983 221.023 452.82 219.77 445.8C219.742 445.648 219.68 445.504 219.588 445.381C219.496 445.257 219.377 445.158 219.24 445.09C209.773 440.443 200.68 435.163 191.96 429.25C191.673 427.843 192.003 426.837 192.95 426.23C195.097 424.857 198.437 422.927 202.97 420.44C203.017 420.414 203.057 420.376 203.087 420.331C203.117 420.286 203.136 420.234 203.141 420.18C203.147 420.127 203.14 420.072 203.121 420.022C203.102 419.971 203.07 419.926 203.03 419.89L202.8 419.68C202.772 419.655 202.75 419.624 202.735 419.59C202.721 419.555 202.714 419.518 202.716 419.48C202.718 419.443 202.728 419.406 202.746 419.373C202.764 419.34 202.79 419.312 202.82 419.29L203.11 419.08C203.222 419.001 203.36 418.97 203.495 418.992C203.629 419.015 203.75 419.089 203.83 419.2C204.517 420.173 205.337 420.357 206.29 419.75L220.84 427.86C220.897 427.89 220.959 427.908 221.023 427.912C221.086 427.917 221.151 427.908 221.211 427.886C221.271 427.865 221.326 427.831 221.372 427.787C221.419 427.742 221.455 427.689 221.48 427.63C234.38 395.3 277.96 394.97 290.48 427.91Z" fill="white"/>
<path d="M113.5 412.21C123.4 423.517 134.08 434.03 145.54 443.75C144.58 444.383 143.78 444.16 143.14 443.08C143.007 442.853 142.89 442.863 142.79 443.11C142.73 443.257 142.75 443.383 142.85 443.49C142.899 443.544 142.937 443.607 142.961 443.675C142.986 443.743 142.996 443.816 142.992 443.888C142.989 443.961 142.971 444.032 142.939 444.097C142.908 444.163 142.864 444.222 142.81 444.27C139.37 447.37 133.45 448.6 131.75 452.79C121.17 443.903 111.393 434.163 102.42 423.57C106.46 420.31 110.843 417.76 115.57 415.92C115.616 415.903 115.657 415.874 115.689 415.836C115.72 415.798 115.741 415.752 115.75 415.703C115.758 415.654 115.753 415.604 115.735 415.558C115.718 415.512 115.688 415.471 115.65 415.44C114.597 414.567 113.88 413.49 113.5 412.21Z" fill="white"/>
<path d="M145.54 443.75C155.727 452.25 166.463 459.987 177.75 466.96C177.69 467.08 177.613 467.183 177.52 467.27C177.428 467.358 177.306 467.41 177.177 467.417C177.047 467.424 176.918 467.386 176.81 467.31C175.26 466.21 174.9 467.55 173.92 468.13C171.073 469.797 168.247 471.473 165.44 473.16C163.973 474.047 163.313 475.243 163.46 476.75C152.227 469.643 141.657 461.657 131.75 452.79C133.45 448.6 139.37 447.37 142.81 444.27C142.864 444.222 142.908 444.163 142.939 444.097C142.971 444.032 142.989 443.961 142.992 443.888C142.996 443.816 142.986 443.743 142.961 443.675C142.937 443.607 142.899 443.544 142.85 443.49C142.75 443.383 142.73 443.257 142.79 443.11C142.89 442.863 143.007 442.853 143.14 443.08C143.78 444.16 144.58 444.383 145.54 443.75Z" fill="white"/>
</svg>
