<svg xmlns="http://www.w3.org/2000/svg" xmlns:xlink="http://www.w3.org/1999/xlink" width="200" zoomAndPan="magnify" viewBox="0 0 150 149.999998" height="200" preserveAspectRatio="xMidYMid meet" version="1.0"><path fill="#ebf0f2" d="M 48.214844 69.644531 C 45.257812 69.644531 42.855469 67.25 42.855469 64.285156 L 42.855469 53.570312 C 42.855469 50.609375 45.257812 48.214844 48.214844 48.214844 C 51.171875 48.214844 53.570312 50.609375 53.570312 53.570312 L 53.570312 64.285156 C 53.570312 67.25 51.171875 69.644531 48.214844 69.644531 Z M 48.214844 69.644531 " fill-opacity="1" fill-rule="nonzero"/><path fill="#ebf0f2" d="M 75 48.214844 L 75 42.855469 C 75 39.894531 77.398438 37.5 80.355469 37.5 C 83.3125 37.5 85.714844 39.894531 85.714844 42.855469 L 85.714844 48.214844 C 85.714844 51.175781 83.3125 53.570312 80.355469 53.570312 C 77.398438 53.570312 75 51.175781 75 48.214844 Z M 75 48.214844 " fill-opacity="1" fill-rule="nonzero"/><path fill="#ebf0f2" d="M 96.429688 53.570312 C 93.472656 53.570312 91.070312 51.175781 91.070312 48.214844 L 91.070312 42.855469 C 91.070312 39.894531 93.472656 37.5 96.429688 37.5 C 99.386719 37.5 101.785156 39.894531 101.785156 42.855469 L 101.785156 48.214844 C 101.785156 51.175781 99.386719 53.570312 96.429688 53.570312 Z M 96.429688 53.570312 " fill-opacity="1" fill-rule="nonzero"/><path fill="#ebf0f2" d="M 53.570312 150 L 53.570312 107.144531 C 47.015625 100.585938 42.855469 91.070312 42.855469 75 L 42.855469 73.511719 C 44.4375 74.433594 46.253906 75 48.214844 75 C 51.429688 75 54.285156 73.546875 56.25 71.296875 C 58.214844 73.546875 61.070312 75 64.285156 75 C 67.164062 75 69.765625 73.847656 71.695312 71.996094 C 74.433594 76.957031 79.648438 80.355469 85.714844 80.355469 L 91.070312 80.355469 L 91.070312 75 L 85.714844 75 C 79.792969 75 75 70.207031 75 64.285156 L 75 61.605469 C 75 60.128906 76.199219 58.929688 77.679688 58.929688 L 96.429688 58.929688 C 102.347656 58.929688 107.144531 63.722656 107.144531 69.644531 L 107.144531 75 C 107.144531 91.070312 102.835938 100.675781 91.070312 107.144531 L 91.070312 150 Z M 53.570312 150 " fill-opacity="1" fill-rule="nonzero"/><path fill="#ebf0f2" d="M 64.285156 69.644531 C 61.328125 69.644531 58.929688 67.25 58.929688 64.285156 L 58.929688 48.214844 C 58.929688 45.25 61.328125 42.855469 64.285156 42.855469 C 67.242188 42.855469 69.644531 45.25 69.644531 48.214844 L 69.644531 64.285156 C 69.644531 67.25 67.242188 69.644531 64.285156 69.644531 Z M 64.285156 69.644531 " fill-opacity="1" fill-rule="nonzero"/><path fill="#ebf0f2" d="M 72.589844 0 L 77.410156 0 C 78.300781 0 79.019531 0.71875 79.019531 1.605469 L 79.019531 14.464844 C 79.019531 15.355469 78.300781 16.070312 77.410156 16.070312 L 72.589844 16.070312 C 71.699219 16.070312 70.980469 15.355469 70.980469 14.464844 L 70.980469 1.605469 C 70.980469 0.71875 71.699219 0 72.589844 0 Z M 72.589844 0 " fill-opacity="1" fill-rule="nonzero"/><path fill="#ebf0f2" d="M 35.410156 11.253906 L 39.582031 8.84375 C 40.355469 8.398438 41.339844 8.664062 41.785156 9.429688 L 48.214844 20.566406 C 48.660156 21.332031 48.394531 22.316406 47.625 22.761719 L 43.453125 25.171875 C 42.679688 25.617188 41.695312 25.351562 41.25 24.582031 L 34.820312 13.445312 C 34.382812 12.679688 34.644531 11.695312 35.410156 11.253906 Z M 35.410156 11.253906 " fill-opacity="1" fill-rule="nonzero"/><path fill="#ebf0f2" d="M 8.84375 39.589844 L 11.253906 35.417969 C 11.695312 34.644531 12.679688 34.382812 13.445312 34.820312 L 24.578125 41.25 C 25.34375 41.695312 25.613281 42.675781 25.167969 43.445312 L 22.757812 47.621094 C 22.3125 48.386719 21.332031 48.652344 20.5625 48.207031 L 9.429688 41.785156 C 8.664062 41.339844 8.398438 40.355469 8.84375 39.589844 Z M 8.84375 39.589844 " fill-opacity="1" fill-rule="nonzero"/><path fill="#ebf0f2" d="M 136.554688 115.179688 L 125.421875 108.75 C 124.65625 108.304688 124.386719 107.324219 124.832031 106.554688 L 127.242188 102.378906 C 127.6875 101.613281 128.667969 101.347656 129.4375 101.792969 L 140.570312 108.21875 C 141.335938 108.664062 141.605469 109.644531 141.160156 110.417969 L 138.75 114.589844 C 138.304688 115.355469 137.320312 115.617188 136.554688 115.179688 Z M 136.554688 115.179688 " fill-opacity="1" fill-rule="nonzero"/><path fill="#ebf0f2" d="M 115.179688 13.445312 L 108.75 24.578125 C 108.304688 25.34375 107.324219 25.613281 106.554688 25.167969 L 102.378906 22.757812 C 101.613281 22.3125 101.347656 21.332031 101.792969 20.5625 L 108.21875 9.429688 C 108.664062 8.664062 109.644531 8.394531 110.417969 8.839844 L 114.589844 11.25 C 115.355469 11.695312 115.617188 12.679688 115.179688 13.445312 Z M 115.179688 13.445312 " fill-opacity="1" fill-rule="nonzero"/><path fill="#ebf0f2" d="M 140.570312 41.785156 L 129.433594 48.214844 C 128.667969 48.660156 127.683594 48.394531 127.238281 47.625 L 124.828125 43.453125 C 124.382812 42.6875 124.644531 41.699219 125.417969 41.253906 L 136.546875 34.828125 C 137.3125 34.382812 138.300781 34.644531 138.746094 35.417969 L 141.15625 39.589844 C 141.601562 40.355469 141.335938 41.339844 140.570312 41.785156 Z M 140.570312 41.785156 " fill-opacity="1" fill-rule="nonzero"/><path fill="#ebf0f2" d="M 11.253906 114.589844 L 8.84375 110.417969 C 8.398438 109.648438 8.664062 108.664062 9.433594 108.21875 L 20.566406 101.785156 C 21.332031 101.339844 22.316406 101.605469 22.761719 102.375 L 25.171875 106.546875 C 25.617188 107.3125 25.355469 108.300781 24.582031 108.746094 L 13.445312 115.179688 C 12.679688 115.617188 11.695312 115.355469 11.253906 114.589844 Z M 11.253906 114.589844 " fill-opacity="1" fill-rule="nonzero"/><path fill="#ebf0f2" d="M 0 77.410156 L 0 72.589844 C 0 71.699219 0.71875 70.980469 1.605469 70.980469 L 14.464844 70.980469 C 15.355469 70.980469 16.070312 71.699219 16.070312 72.589844 L 16.070312 77.410156 C 16.070312 78.300781 15.355469 79.019531 14.464844 79.019531 L 1.605469 79.019531 C 0.71875 79.019531 0 78.300781 0 77.410156 Z M 0 77.410156 " fill-opacity="1" fill-rule="nonzero"/><path fill="#ebf0f2" d="M 148.394531 79.019531 L 135.535156 79.019531 C 134.644531 79.019531 133.929688 78.300781 133.929688 77.410156 L 133.929688 72.589844 C 133.929688 71.699219 134.644531 70.980469 135.535156 70.980469 L 148.394531 70.980469 C 149.28125 70.980469 150 71.699219 150 72.589844 L 150 77.410156 C 150 78.300781 149.28125 79.019531 148.394531 79.019531 Z M 148.394531 79.019531 " fill-opacity="1" fill-rule="nonzero"/></svg>