<svg width="512" height="512" viewBox="0 0 512 512" fill="none" xmlns="http://www.w3.org/2000/svg">
<path d="M47.6101 239.55C16.6201 233.09 15.9701 190.75 47.4701 184.43C47.6054 184.404 47.7275 184.331 47.8152 184.223C47.9029 184.116 47.9506 183.98 47.9501 183.84C48.0168 150.727 48.0268 117.63 47.9801 84.55C47.9601 71.91 51.6701 61.59 64.5301 57.36C67.3034 56.4467 71.3368 55.99 76.6301 55.99C205.797 56.01 334.963 56.0067 464.13 55.98C471.41 55.98 476.597 56.48 479.69 57.48C492.9 61.75 496.02 72.62 496.02 85.58C495.987 179.373 495.987 273.173 496.02 366.98C496.027 375.067 495.51 380.697 494.47 383.87C490.29 396.62 479.59 400.01 467.03 400.01C382.29 400.003 297.543 399.997 212.79 399.99C212.639 399.99 212.489 400.032 212.358 400.111C212.226 400.19 212.116 400.304 212.04 400.44C189.59 440.74 145.5 463.31 99.7001 453.96C17.5601 437.19 -11.9299 336.68 47.6501 277.39C47.8742 277.166 48.0001 276.863 48.0001 276.55V240.02C47.9997 239.91 47.9608 239.803 47.8898 239.718C47.8188 239.632 47.72 239.573 47.6101 239.55ZM116.94 164.69C103.733 176.223 90.6034 187.86 77.5501 199.6C77.4259 199.71 77.3405 199.858 77.3063 200.022C77.2722 200.186 77.291 200.357 77.3601 200.51C83.6301 214.38 77.9201 229.87 64.4001 236.95C64.279 237.016 64.1779 237.113 64.1076 237.231C64.0372 237.349 64.0001 237.483 64.0001 237.62V263.68C64.0015 263.76 64.0239 263.838 64.0648 263.907C64.1058 263.976 64.164 264.033 64.2337 264.072C64.3034 264.112 64.3821 264.132 64.4622 264.132C64.5422 264.131 64.6208 264.11 64.6901 264.07C148.02 213.58 247.67 290.72 219.03 383.61C219.019 383.649 219.017 383.69 219.024 383.729C219.031 383.769 219.047 383.806 219.07 383.838C219.093 383.87 219.123 383.896 219.158 383.914C219.193 383.931 219.231 383.94 219.27 383.94C302.317 384.12 385.387 384.137 468.48 383.99C474.55 383.98 480 382.69 480 375.75C480 277.677 480 179.603 480 81.53C480 74.14 476.18 72 469.07 72C337.19 72 205.31 72 73.4301 72C66.4901 72 64.0101 75.55 64.0101 82.39C63.9968 116.723 63.9934 151.057 64.0001 185.39C64.0001 186.88 64.6301 187.48 65.9501 187.87C66.1065 187.913 66.2708 187.916 66.4281 187.879C66.5853 187.843 66.7304 187.767 66.8501 187.66L106.48 152.43C106.588 152.333 106.665 152.206 106.699 152.066C106.733 151.927 106.723 151.782 106.67 151.65C100.52 136.48 106.99 118.63 123.09 113.4C148.66 105.08 168.85 132.46 155.75 155C155.672 155.129 155.645 155.282 155.672 155.431C155.7 155.58 155.781 155.715 155.9 155.81L187.45 180.78C187.582 180.885 187.744 180.948 187.914 180.958C188.084 180.969 188.253 180.928 188.4 180.84C198.58 174.587 208.84 174.453 219.18 180.44C219.315 180.519 219.472 180.555 219.629 180.543C219.787 180.53 219.937 180.47 220.06 180.37L265.44 142.87C265.561 142.77 265.649 142.636 265.694 142.485C265.739 142.333 265.737 142.172 265.69 142.02C262.357 131.747 263.82 122.607 270.08 114.6C281.5 99.99 304.46 100.93 314.71 116.07C332.02 141.64 302.65 171.12 276.64 155.3C276.448 155.183 276.223 155.129 275.998 155.145C275.772 155.161 275.556 155.247 275.38 155.39L230.33 192.63C230.212 192.727 230.125 192.858 230.081 193.006C230.036 193.153 230.036 193.311 230.08 193.46C233.653 205.227 231.767 215.037 224.42 222.89C211.4 236.83 189.55 234.21 179.92 218.06C175.74 211.047 174.99 203.027 177.67 194C177.714 193.851 177.712 193.691 177.664 193.543C177.616 193.395 177.524 193.265 177.4 193.17L143.19 166.19C143.047 166.077 142.877 166.002 142.697 165.972C142.517 165.943 142.332 165.959 142.16 166.02C133.807 168.96 125.767 168.337 118.04 164.15C117.908 164.079 117.756 164.051 117.606 164.069C117.456 164.087 117.315 164.15 117.2 164.25C117.04 164.39 116.953 164.537 116.94 164.69ZM303.95 132C303.95 128.833 302.692 125.796 300.453 123.557C298.214 121.318 295.177 120.06 292.01 120.06C288.843 120.06 285.806 121.318 283.567 123.557C281.328 125.796 280.07 128.833 280.07 132C280.07 135.167 281.328 138.204 283.567 140.443C285.806 142.682 288.843 143.94 292.01 143.94C295.177 143.94 298.214 142.682 300.453 140.443C302.692 138.204 303.95 135.167 303.95 132ZM143.92 140C143.92 136.833 142.662 133.796 140.423 131.557C138.184 129.318 135.147 128.06 131.98 128.06C128.813 128.06 125.776 129.318 123.537 131.557C121.298 133.796 120.04 136.833 120.04 140C120.04 143.167 121.298 146.204 123.537 148.443C125.776 150.682 128.813 151.94 131.98 151.94C135.147 151.94 138.184 150.682 140.423 148.443C142.662 146.204 143.92 143.167 143.92 140ZM215.92 204C215.92 200.833 214.662 197.796 212.423 195.557C210.184 193.318 207.147 192.06 203.98 192.06C200.813 192.06 197.776 193.318 195.537 195.557C193.298 197.796 192.04 200.833 192.04 204C192.04 207.167 193.298 210.204 195.537 212.443C197.776 214.682 200.813 215.94 203.98 215.94C207.147 215.94 210.184 214.682 212.423 212.443C214.662 210.204 215.92 207.167 215.92 204ZM63.9501 211.99C63.9501 208.823 62.6921 205.786 60.453 203.547C58.2138 201.308 55.1768 200.05 52.0101 200.05C48.8434 200.05 45.8064 201.308 43.5672 203.547C41.3281 205.786 40.0701 208.823 40.0701 211.99C40.0701 215.157 41.3281 218.194 43.5672 220.433C45.8064 222.672 48.8434 223.93 52.0101 223.93C55.1768 223.93 58.2138 222.672 60.453 220.433C62.6921 218.194 63.9501 215.157 63.9501 211.99ZM207.51 343.6C202.97 301.34 170.68 268.95 128.41 264.45C128.358 264.444 128.306 264.45 128.256 264.466C128.207 264.482 128.161 264.508 128.122 264.543C128.083 264.578 128.053 264.621 128.032 264.669C128.011 264.716 128 264.768 128 264.82V343.5C128 343.633 128.053 343.76 128.147 343.854C128.24 343.947 128.367 344 128.5 344H207.16C207.21 344 207.259 343.99 207.304 343.97C207.349 343.949 207.39 343.919 207.423 343.881C207.456 343.843 207.481 343.799 207.496 343.75C207.511 343.702 207.516 343.651 207.51 343.6ZM111.99 346.86L112 265.03C112.001 264.961 111.986 264.893 111.958 264.83C111.93 264.767 111.889 264.711 111.837 264.665C111.785 264.618 111.724 264.583 111.657 264.562C111.59 264.54 111.52 264.533 111.45 264.54C52.5601 270.87 15.9401 330.83 38.9301 386.06C38.9525 386.112 38.9855 386.159 39.027 386.198C39.0685 386.237 39.1176 386.266 39.1712 386.285C39.2247 386.304 39.2817 386.311 39.3383 386.307C39.3949 386.303 39.45 386.287 39.5001 386.26L111.67 347.4C111.766 347.349 111.847 347.272 111.903 347.177C111.96 347.082 111.99 346.972 111.99 346.86ZM46.9701 400.78C65.7401 429.87 101.15 444.26 134.74 438.64C173.7 432.13 203.66 399.86 207.42 360.53C207.427 360.467 207.421 360.403 207.401 360.342C207.382 360.282 207.35 360.226 207.307 360.179C207.265 360.132 207.213 360.094 207.155 360.068C207.097 360.043 207.034 360.03 206.97 360.03C179.37 359.997 151.773 359.987 124.18 360C122.727 360.007 121.36 360.353 120.08 361.04C95.7534 374.153 71.4201 387.26 47.0801 400.36C47.0435 400.379 47.0112 400.405 46.9855 400.437C46.9597 400.469 46.941 400.506 46.9306 400.545C46.9202 400.585 46.9183 400.626 46.9251 400.667C46.932 400.707 46.9473 400.746 46.9701 400.78Z" fill="white"/>
<path d="M351.98 119.9C356.349 119.9 359.89 116.359 359.89 111.99C359.89 107.621 356.349 104.08 351.98 104.08C347.611 104.08 344.07 107.621 344.07 111.99C344.07 116.359 347.611 119.9 351.98 119.9Z" fill="white"/>
<path d="M448.08 104.02H375.9C371.581 104.02 368.08 107.521 368.08 111.84V112.16C368.08 116.479 371.581 119.98 375.9 119.98H448.08C452.399 119.98 455.9 116.479 455.9 112.16V111.84C455.9 107.521 452.399 104.02 448.08 104.02Z" fill="white"/>
<path d="M351.98 151.9C356.349 151.9 359.89 148.359 359.89 143.99C359.89 139.621 356.349 136.08 351.98 136.08C347.611 136.08 344.07 139.621 344.07 143.99C344.07 148.359 347.611 151.9 351.98 151.9Z" fill="white"/>
<path d="M448.08 136.02H375.9C371.581 136.02 368.08 139.521 368.08 143.84V144.16C368.08 148.479 371.581 151.98 375.9 151.98H448.08C452.399 151.98 455.9 148.479 455.9 144.16V143.84C455.9 139.521 452.399 136.02 448.08 136.02Z" fill="white"/>
<path d="M351.98 183.9C356.349 183.9 359.89 180.359 359.89 175.99C359.89 171.621 356.349 168.08 351.98 168.08C347.611 168.08 344.07 171.621 344.07 175.99C344.07 180.359 347.611 183.9 351.98 183.9Z" fill="white"/>
<path d="M448.08 168.02H375.9C371.581 168.02 368.08 171.521 368.08 175.84V176.16C368.08 180.479 371.581 183.98 375.9 183.98H448.08C452.399 183.98 455.9 180.479 455.9 176.16V175.84C455.9 171.521 452.399 168.02 448.08 168.02Z" fill="white"/>
<path d="M280.5 368.02C270.02 368.02 260.68 361.57 257.3 351.68C256.453 349.213 256.027 345.17 256.02 339.55C255.993 299.097 255.987 258.637 256 218.17C256 215.817 256.24 214.07 256.72 212.93C259.44 206.48 268.39 206.47 271.23 212.83C271.737 213.97 271.99 215.667 271.99 217.92C272.003 258.947 272.007 299.973 272 341C271.99 347.01 273.16 350.83 279.36 352.01C279.437 352.025 279.515 352.022 279.591 352.002C279.666 351.982 279.737 351.946 279.797 351.895C279.857 351.845 279.905 351.781 279.939 351.709C279.972 351.638 279.99 351.559 279.99 351.48C280.003 323.893 280.003 296.247 279.99 268.54C279.99 254.36 285.05 248.03 299.69 248.01C310.03 247.99 321.73 246.18 326.56 257.69C327.533 260.01 328.017 263.783 328.01 269.01C327.99 296.457 327.99 323.907 328.01 351.36C328.01 351.53 328.078 351.693 328.198 351.813C328.318 351.933 328.48 352 328.65 352H335.35C335.522 352 335.688 351.932 335.81 351.81C335.932 351.688 336 351.522 336 351.35C336 315.457 336.003 279.573 336.01 243.7C336.01 229.76 341.87 224.04 355.75 224.01C366.1 223.98 377.75 222.2 382.57 233.7C383.53 235.98 384.01 239.58 384.01 244.5C383.997 280.12 383.997 315.74 384.01 351.36C384.01 351.53 384.078 351.693 384.198 351.813C384.318 351.933 384.48 352 384.65 352H391.35C391.52 352 391.683 351.933 391.803 351.813C391.923 351.693 391.99 351.53 391.99 351.36C392.003 331.74 392.003 312.133 391.99 292.54C391.99 278.32 397.08 272.03 411.73 272.01C422.1 271.99 433.76 270.19 438.58 281.72C439.533 283.993 440.01 287.58 440.01 292.48C439.997 312.16 439.993 331.86 440 351.58C440 351.633 440.01 351.685 440.031 351.733C440.051 351.782 440.08 351.826 440.117 351.863C440.154 351.9 440.198 351.929 440.247 351.95C440.296 351.97 440.348 351.98 440.4 351.98C445.12 352.01 454.99 350.97 459.08 352.72C468.04 356.58 464 367.99 454.39 367.99C396.423 368.003 338.46 368.013 280.5 368.02ZM368 240.59C368 240.434 367.938 240.283 367.827 240.173C367.717 240.062 367.567 240 367.41 240H352.59C352.434 240 352.284 240.062 352.173 240.173C352.062 240.283 352 240.434 352 240.59V351.41C352 351.566 352.062 351.717 352.173 351.827C352.284 351.938 352.434 352 352.59 352H367.41C367.567 352 367.717 351.938 367.827 351.827C367.938 351.717 368 351.566 368 351.41V240.59ZM312 264.58C312 264.426 311.939 264.279 311.83 264.17C311.721 264.061 311.574 264 311.42 264H296.58C296.426 264 296.279 264.061 296.17 264.17C296.061 264.279 296 264.426 296 264.58V351.42C296 351.574 296.061 351.721 296.17 351.83C296.279 351.939 296.426 352 296.58 352H311.42C311.574 352 311.721 351.939 311.83 351.83C311.939 351.721 312 351.574 312 351.42V264.58ZM424 288.58C424 288.426 423.939 288.279 423.83 288.17C423.721 288.061 423.574 288 423.42 288H408.58C408.426 288 408.279 288.061 408.17 288.17C408.061 288.279 408 288.426 408 288.58V351.42C408 351.574 408.061 351.721 408.17 351.83C408.279 351.939 408.426 352 408.58 352H423.42C423.574 352 423.721 351.939 423.83 351.83C423.939 351.721 424 351.574 424 351.42V288.58Z" fill="white"/>
</svg>
