<svg xmlns="http://www.w3.org/2000/svg" xmlns:xlink="http://www.w3.org/1999/xlink" width="200" zoomAndPan="magnify" viewBox="0 0 150 149.999998" height="200" preserveAspectRatio="xMidYMid meet" version="1.0"><defs><clipPath id="ff4f8b337b"><path d="M 1 22.699219 L 150 22.699219 L 150 126.949219 L 1 126.949219 Z M 1 22.699219 " clip-rule="nonzero"/></clipPath></defs><g clip-path="url(#ff4f8b337b)"><path fill="#ffffff" d="M 122.75 67.875 C 113.195312 51.816406 95.316406 41.289062 74.265625 41.289062 C 35.355469 41.289062 7.628906 82.039062 24.984375 118.300781 L 8.339844 126.933594 C -17.707031 58.558594 37.71875 22.699219 76.628906 22.699219 C 100.671875 22.699219 129.222656 37.976562 141.859375 64.800781 Z M 129.53125 86.785156 C 131.019531 96.339844 130.035156 106.816406 125.957031 117.609375 L 142.269531 126.933594 C 148.980469 108.988281 149.839844 92.933594 146.761719 79.132812 Z M 149.074219 69.382812 C 149.296875 69.351562 149.507812 69.394531 149.699219 69.511719 C 149.890625 69.628906 150.027344 69.792969 150.097656 70.003906 C 150.171875 70.21875 150.167969 70.429688 150.089844 70.640625 C 150.007812 70.851562 149.871094 71.011719 149.675781 71.125 C 134.28125 79.894531 82.734375 109.046875 77.285156 109.203125 C 76.316406 109.226562 75.351562 109.15625 74.394531 108.992188 C 73.4375 108.828125 72.507812 108.570312 71.601562 108.222656 C 70.695312 107.875 69.832031 107.445312 69.011719 106.929688 C 68.191406 106.414062 67.429688 105.824219 66.722656 105.15625 C 66.019531 104.492188 65.386719 103.765625 64.828125 102.976562 C 64.265625 102.191406 63.789062 101.355469 63.390625 100.472656 C 62.996094 99.589844 62.691406 98.679688 62.472656 97.738281 C 62.257812 96.796875 62.136719 95.839844 62.109375 94.875 C 62.082031 93.910156 62.148438 92.953125 62.308594 92 C 62.472656 91.046875 62.722656 90.117188 63.070312 89.214844 C 63.414062 88.3125 63.84375 87.453125 64.359375 86.632812 C 64.875 85.8125 65.464844 85.054688 66.128906 84.347656 C 66.792969 83.644531 67.519531 83.011719 68.308594 82.453125 C 69.101562 81.890625 69.9375 81.410156 70.820312 81.011719 C 71.707031 80.613281 72.621094 80.304688 73.566406 80.085938 C 74.511719 79.867188 75.46875 79.742188 76.441406 79.710938 C 79.722656 79.621094 132.542969 71.832031 149.09375 69.382812 Z M 149.074219 69.382812 " fill-opacity="1" fill-rule="nonzero"/></g></svg>