<svg xmlns="http://www.w3.org/2000/svg" xmlns:xlink="http://www.w3.org/1999/xlink" width="200" zoomAndPan="magnify" viewBox="0 0 150 149.999998" height="200" preserveAspectRatio="xMidYMid meet" version="1.0"><path fill="#ffffff" d="M 28.0625 33.683594 C 26.761719 33.785156 25.113281 34.355469 22.980469 35.585938 C 9.328125 43.464844 28.984375 47.09375 21.105469 60.746094 C 13.226562 74.394531 0.261719 59.179688 0.261719 74.941406 C 0.261719 90.703125 13.226562 75.492188 21.105469 89.140625 C 28.988281 102.789062 9.332031 106.417969 22.980469 114.300781 C 36.628906 122.179688 29.933594 103.339844 45.695312 103.339844 C 61.457031 103.339844 54.761719 122.179688 68.414062 114.300781 C 82.0625 106.417969 62.40625 102.789062 70.285156 89.140625 C 78.167969 75.492188 91.128906 90.703125 91.128906 74.941406 C 91.128906 59.179688 78.167969 74.394531 70.285156 60.746094 C 62.40625 47.09375 82.0625 43.464844 68.414062 35.585938 C 54.761719 27.707031 61.457031 46.546875 45.695312 46.546875 C 32.398438 46.546875 35.097656 33.140625 28.0625 33.683594 Z M 45.695312 56.769531 C 55.734375 56.769531 63.867188 64.90625 63.867188 74.941406 C 63.867188 84.980469 55.734375 93.113281 45.695312 93.113281 C 35.660156 93.113281 27.523438 84.980469 27.523438 74.941406 C 27.523438 64.90625 35.660156 56.769531 45.695312 56.769531 Z M 45.695312 56.769531 " fill-opacity="1" fill-rule="nonzero"/><path fill="#ffffff" d="M 87.347656 54.753906 C 86.539062 55.308594 85.683594 56.296875 84.761719 57.898438 C 78.851562 68.132812 92.976562 63.121094 92.976562 74.941406 C 92.976562 86.761719 78.855469 81.742188 84.765625 91.976562 C 90.675781 102.214844 93.390625 87.472656 103.625 93.382812 C 113.863281 99.292969 102.457031 109.023438 114.277344 109.023438 C 126.097656 109.023438 114.683594 99.292969 124.921875 93.382812 C 135.160156 87.472656 137.878906 102.222656 143.785156 91.984375 C 149.695312 81.746094 135.570312 86.761719 135.570312 74.941406 C 135.570312 63.121094 149.695312 68.140625 143.78125 57.902344 C 137.871094 47.667969 135.160156 62.40625 124.921875 56.496094 C 114.683594 50.585938 126.089844 40.859375 114.269531 40.859375 C 102.449219 40.859375 113.863281 50.585938 103.625 56.496094 C 94.988281 61.484375 91.710938 51.765625 87.347656 54.753906 Z M 107.457031 63.136719 C 113.976562 59.375 122.3125 61.605469 126.078125 68.125 C 129.839844 74.644531 127.609375 82.980469 121.089844 86.746094 C 114.570312 90.507812 106.234375 88.273438 102.46875 81.753906 C 98.707031 75.234375 100.941406 66.902344 107.457031 63.136719 Z M 107.457031 63.136719 " fill-opacity="1" fill-rule="nonzero"/></svg>