<svg width="512" height="512" viewBox="0 0 512 512" fill="none" xmlns="http://www.w3.org/2000/svg">
<path d="M167.06 16.19C174.06 20.09 180.27 25.2367 185.69 31.63C185.787 31.746 185.909 31.8392 186.047 31.9031C186.185 31.9671 186.337 32.0001 186.49 32H303.5C303.633 32 303.76 32.0527 303.854 32.1465C303.947 32.2402 304 32.3674 304 32.5V47.38C304 47.5444 304.066 47.7021 304.185 47.8184C304.303 47.9347 304.463 48 304.63 48H336.39C336.486 47.9994 336.579 47.9654 336.653 47.9036C336.728 47.8418 336.78 47.7558 336.8 47.66C346.8 -3.66 419.05 -5.38 430.68 45.7C431.593 49.7067 432.043 55.6133 432.03 63.42C431.983 87.4467 431.977 111.473 432.01 135.5C432.011 135.565 432 135.63 431.976 135.691C431.952 135.751 431.916 135.806 431.87 135.853C431.824 135.9 431.77 135.937 431.71 135.962C431.65 135.987 431.585 136 431.52 136H408.5C408.367 136 408.24 136.053 408.146 136.146C408.053 136.24 408 136.367 408 136.5V151.71C408 151.913 408.073 152.109 408.205 152.263C408.337 152.417 408.519 152.519 408.72 152.55C445.27 158.03 470.78 186.27 472.09 223.49C472.093 223.626 472.149 223.756 472.246 223.851C472.343 223.947 472.474 224 472.61 224H503C503.265 224 503.52 224.105 503.707 224.293C503.895 224.48 504 224.735 504 225V479.5C504 479.633 503.947 479.76 503.854 479.854C503.76 479.947 503.633 480 503.5 480H232.5C232.367 480 232.24 480.053 232.146 480.146C232.053 480.24 232 480.367 232 480.5V503.5C232 503.633 231.947 503.76 231.854 503.854C231.76 503.947 231.633 504 231.5 504H8.48C8.4148 504 8.35025 503.987 8.29014 503.962C8.23003 503.938 8.17557 503.901 8.12993 503.856C8.0843 503.81 8.04842 503.756 8.02439 503.697C8.00036 503.637 7.98867 503.574 7.99 503.51C8.06 493.25 6.89 480.61 9.1 471.31C12.8333 455.63 22.95 445.503 39.45 440.93C39.5882 440.889 39.7095 440.805 39.796 440.69C39.8825 440.574 39.9295 440.434 39.93 440.29C40.01 398.177 40.0333 356.05 40 313.91C39.98 298.63 41.27 288.54 48.27 276.43C48.4337 276.148 48.52 275.828 48.52 275.5C48.4933 274.16 48.5867 273.013 48.8 272.06C55.9 241.093 68.2 187.817 85.7 112.23C85.7345 112.076 85.7354 111.917 85.7026 111.763C85.6698 111.61 85.6041 111.465 85.51 111.34C79.21 102.9 75.1267 93.96 73.26 84.52C62.76 31.32 119.47 -10.37 167.06 16.19ZM183.91 72C183.91 59.2935 178.862 47.1074 169.877 38.1225C160.893 29.1376 148.707 24.09 136 24.09C123.293 24.09 111.107 29.1376 102.123 38.1225C93.1376 47.1074 88.09 59.2935 88.09 72C88.09 84.7065 93.1376 96.8926 102.123 105.877C111.107 114.862 123.293 119.91 136 119.91C148.707 119.91 160.893 114.862 169.877 105.877C178.862 96.8926 183.91 84.7065 183.91 72ZM378.51 24.48C363.24 27.39 352.02 40.48 352.01 56.01C351.997 77.2167 351.997 98.3967 352.01 119.55C352.01 119.669 352.057 119.784 352.142 119.868C352.226 119.953 352.341 120 352.46 120H415.54C415.659 120 415.774 119.953 415.858 119.868C415.943 119.784 415.99 119.669 415.99 119.55C416.017 100.537 416.013 81.55 415.98 62.59C415.973 54.9567 415.463 49.49 414.45 46.19C409.85 31.23 393.54 21.62 378.51 24.48ZM195.47 48.69C201.41 64 201.37 79.93 195.51 95.23C195.478 95.3159 195.467 95.4084 195.478 95.4995C195.489 95.5906 195.522 95.6776 195.574 95.7532C195.626 95.8288 195.696 95.8907 195.777 95.9337C195.858 95.9766 195.948 95.9994 196.04 96H287.5C287.633 96 287.76 95.9473 287.854 95.8536C287.947 95.7598 288 95.6326 288 95.5V48.5C288 48.3674 287.947 48.2402 287.854 48.1465C287.76 48.0527 287.633 48 287.5 48H195.94C195.858 47.9989 195.778 48.0181 195.706 48.0559C195.633 48.0937 195.571 48.1491 195.525 48.2171C195.479 48.2851 195.449 48.3638 195.44 48.4462C195.43 48.5286 195.441 48.6123 195.47 48.69ZM336 64.6C336 64.4409 335.937 64.2883 335.824 64.1757C335.712 64.0632 335.559 64 335.4 64H304.6C304.441 64 304.288 64.0632 304.176 64.1757C304.063 64.2883 304 64.4409 304 64.6V79.4C304 79.5591 304.063 79.7117 304.176 79.8243C304.288 79.9368 304.441 80 304.6 80H335.4C335.559 80 335.712 79.9368 335.824 79.8243C335.937 79.7117 336 79.5591 336 79.4V64.6ZM303.5 112H186.35C186.209 112 186.071 112.031 185.944 112.09C185.818 112.148 185.707 112.234 185.62 112.34C179.707 119.493 172.593 125.153 164.28 129.32C164.121 129.398 163.981 129.512 163.87 129.654C163.759 129.795 163.681 129.962 163.64 130.14L142.13 223.39C142.113 223.464 142.113 223.54 142.13 223.613C142.146 223.687 142.179 223.755 142.225 223.814C142.271 223.873 142.33 223.92 142.396 223.952C142.463 223.984 142.536 224.001 142.61 224H168.12C168.26 224 168.396 223.951 168.504 223.862C168.611 223.772 168.684 223.648 168.71 223.51C175.38 186.02 215.23 164.22 249.86 182.52C265.727 190.913 275.55 204.543 279.33 223.41C279.365 223.577 279.455 223.727 279.586 223.835C279.718 223.942 279.881 224.001 280.05 224H295.37C295.509 224 295.642 223.947 295.741 223.851C295.84 223.756 295.897 223.626 295.9 223.49C297.13 186.69 323.21 157.17 359.51 152.55C359.647 152.531 359.772 152.463 359.862 152.36C359.952 152.257 360.001 152.126 360 151.99V136.5C360 136.367 359.947 136.24 359.854 136.146C359.76 136.053 359.633 136 359.5 136H336.5C336.367 136 336.24 135.947 336.146 135.854C336.053 135.76 336 135.633 336 135.5V96.5C336 96.3674 335.947 96.2402 335.854 96.1464C335.76 96.0527 335.633 96 335.5 96H304.63C304.463 96 304.303 96.0653 304.185 96.1816C304.066 96.2979 304 96.4556 304 96.62V111.5C304 111.633 303.947 111.76 303.854 111.854C303.76 111.947 303.633 112 303.5 112ZM145.18 135.28C128.55 137.22 113.48 133.98 99.68 124.53C99.6396 124.501 99.5924 124.482 99.5428 124.475C99.4933 124.469 99.4428 124.474 99.3961 124.492C99.3494 124.51 99.3079 124.54 99.2754 124.578C99.2429 124.616 99.2204 124.661 99.21 124.71L69.12 255.13C68.9733 255.777 69.19 255.94 69.77 255.62C85.2033 247.08 101.303 245.767 118.07 251.68C118.198 251.726 118.334 251.744 118.469 251.733C118.605 251.723 118.736 251.684 118.855 251.618C118.974 251.553 119.078 251.463 119.16 251.355C119.242 251.247 119.3 251.122 119.33 250.99L145.87 136.05C145.893 135.951 145.892 135.848 145.867 135.75C145.842 135.651 145.794 135.56 145.726 135.485C145.658 135.409 145.573 135.351 145.478 135.315C145.383 135.28 145.281 135.268 145.18 135.28ZM376.01 222.17C376.01 235.39 392.02 234.4 392.02 223.74C392.033 194.7 392.013 165.64 391.96 136.56C391.96 136.411 391.901 136.269 391.796 136.164C391.691 136.059 391.549 136 391.4 136L376.37 136.01C376.272 136.01 376.178 136.049 376.108 136.118C376.039 136.188 376 136.282 376 136.38C375.993 165 375.997 193.597 376.01 222.17ZM313.28 255.57C315.51 262.29 320.96 267.93 327.66 270.44C327.696 270.453 327.734 270.457 327.771 270.452C327.809 270.447 327.845 270.433 327.876 270.412C327.907 270.39 327.933 270.362 327.951 270.328C327.969 270.295 327.979 270.258 327.98 270.22C328.02 256.28 328.02 242.343 327.98 228.41C327.92 206.64 337.6 190.99 359.46 184.84C359.615 184.796 359.752 184.704 359.849 184.576C359.946 184.447 359.999 184.291 360 184.13V169.32C360 169.239 359.982 169.16 359.948 169.087C359.913 169.014 359.863 168.949 359.801 168.898C359.739 168.846 359.667 168.809 359.589 168.789C359.511 168.768 359.429 168.765 359.35 168.78C332.69 173.53 313.43 194.66 312.07 221.81C311.903 225.21 311.88 232.49 312 243.65C312.067 249.223 312.493 253.197 313.28 255.57ZM454.99 213.9C450.75 190.56 431.96 172.45 408.4 168.77C408.351 168.763 408.302 168.766 408.254 168.78C408.207 168.794 408.164 168.818 408.127 168.85C408.089 168.882 408.06 168.922 408.04 168.967C408.02 169.012 408.009 169.061 408.01 169.11L408 184.21C408 184.378 408.055 184.541 408.159 184.673C408.262 184.806 408.407 184.9 408.57 184.94C427.35 189.38 439.91 205.4 439.96 224.5C440 239.733 440.013 254.98 440 270.24C439.999 270.285 440.01 270.33 440.031 270.37C440.053 270.41 440.084 270.444 440.122 270.469C440.159 270.494 440.203 270.509 440.248 270.513C440.293 270.516 440.339 270.508 440.38 270.49C458.16 262.89 456.07 247.94 455.99 231.31C455.95 223.143 455.617 217.34 454.99 213.9ZM232 208.5V239.5C232 239.633 232.053 239.76 232.146 239.854C232.24 239.947 232.367 240 232.5 240H262.3C262.576 240 262.843 239.9 263.051 239.717C263.259 239.535 263.394 239.284 263.43 239.01C265.86 220.21 257.42 203.64 240.63 195.61C227.59 189.38 209.91 191.59 199.05 200.81C187.31 210.783 182.49 223.59 184.59 239.23C184.617 239.442 184.721 239.638 184.883 239.779C185.045 239.921 185.254 240 185.47 240H215.6C215.706 240 215.808 239.957 215.883 239.88C215.958 239.803 216 239.699 216 239.59V208.5C216 208.367 216.053 208.24 216.146 208.146C216.24 208.053 216.367 208 216.5 208H231.5C231.633 208 231.76 208.053 231.854 208.146C231.947 208.24 232 208.367 232 208.5ZM343.46 287.87C329.81 288.69 317.7 286.17 307.8 276.16C298.853 267.113 294.987 255.593 296.2 241.6C296.217 241.396 296.191 241.19 296.124 240.997C296.057 240.803 295.95 240.625 295.811 240.475C295.672 240.325 295.503 240.205 295.316 240.123C295.128 240.041 294.925 239.999 294.72 240H279.8C279.679 240 279.563 240.043 279.471 240.12C279.38 240.197 279.319 240.303 279.3 240.42C274.65 265.44 255.45 285.14 229.93 287.65C199.93 290.6 173.8 270.21 168.78 240.5C168.754 240.36 168.68 240.233 168.571 240.141C168.461 240.05 168.323 240 168.18 240H138.87C138.705 240.001 138.544 240.057 138.415 240.161C138.286 240.264 138.196 240.409 138.16 240.57L133.77 259.63C133.734 259.779 133.742 259.935 133.791 260.081C133.841 260.226 133.93 260.354 134.05 260.45C144.07 268.403 150.72 278.003 154 289.25C168.673 339.49 183.337 389.747 197.99 440.02C198.039 440.183 198.131 440.33 198.258 440.447C198.384 440.563 198.541 440.643 198.71 440.68C212.437 443.46 222.347 451.113 228.44 463.64C228.491 463.748 228.572 463.839 228.673 463.903C228.774 463.966 228.891 464 229.01 464H487.5C487.633 464 487.76 463.947 487.854 463.854C487.947 463.76 488 463.633 488 463.5V240.62C488 240.456 487.935 240.298 487.818 240.182C487.702 240.065 487.544 240 487.38 240H473.58C472.287 240 471.69 240.643 471.79 241.93C473.91 270.37 453.2 291.06 424.52 287.74C424.381 287.723 424.254 287.656 424.162 287.553C424.07 287.45 424.019 287.317 424.02 287.18C424.007 267.627 423.997 248.073 423.99 228.52C423.99 215.7 420.72 207.27 408.62 201.71C408.555 201.68 408.483 201.667 408.411 201.672C408.339 201.676 408.269 201.699 408.208 201.738C408.148 201.777 408.098 201.831 408.063 201.894C408.028 201.957 408.01 202.028 408.01 202.1C408.01 211.21 409.24 224.04 406.54 231.88C399.31 252.92 369.16 253.24 361.55 232.4C358.7 224.58 359.99 211.24 359.96 202.03C359.959 201.974 359.945 201.92 359.918 201.871C359.892 201.822 359.854 201.781 359.807 201.75C359.761 201.72 359.708 201.701 359.652 201.696C359.597 201.69 359.541 201.699 359.49 201.72C346.97 207.09 343.97 216.28 343.99 229.33C344.023 248.643 344.013 267.977 343.96 287.33C343.96 287.468 343.909 287.601 343.816 287.702C343.723 287.802 343.595 287.862 343.46 287.87ZM192.95 256.65C209.74 277.51 238.78 276.57 255.28 256.64C255.328 256.583 255.358 256.514 255.367 256.44C255.377 256.366 255.365 256.292 255.334 256.224C255.302 256.157 255.252 256.1 255.19 256.061C255.127 256.021 255.054 256 254.98 256H193.26C193.185 256 193.111 256.022 193.048 256.062C192.984 256.103 192.934 256.16 192.901 256.228C192.869 256.296 192.856 256.371 192.865 256.446C192.874 256.521 192.903 256.591 192.95 256.65ZM138.78 294.45C133.46 276.3 116.42 263.71 97.72 264.07C74.04 264.53 56.05 283.47 56.03 307C56.0033 351.213 55.9933 395.397 56 439.55C56 439.609 56.0119 439.668 56.035 439.722C56.0581 439.777 56.092 439.826 56.1347 439.868C56.1774 439.91 56.2282 439.943 56.284 439.966C56.3398 439.988 56.3996 440 56.46 440H180.91C180.958 440 181.005 439.99 181.047 439.968C181.09 439.947 181.127 439.916 181.156 439.877C181.185 439.839 181.205 439.793 181.215 439.745C181.224 439.697 181.222 439.648 181.21 439.6C167.103 391.187 152.96 342.803 138.78 294.45ZM215.76 487.53C217.62 471.61 209.82 456.14 192 456.11C145.34 456.03 98.6833 455.997 52.03 456.01C31.46 456.01 22.65 467.69 24.09 487.64C24.0976 487.738 24.142 487.83 24.2143 487.897C24.2866 487.963 24.3816 488 24.48 488H215.23C215.359 488.001 215.484 487.954 215.582 487.867C215.68 487.78 215.743 487.661 215.76 487.53Z" fill="white"/>
<path d="M167.92 71.99C167.92 80.4584 164.556 88.5799 158.568 94.5679C152.58 100.556 144.458 103.92 135.99 103.92C127.522 103.92 119.4 100.556 113.412 94.5679C107.424 88.5799 104.06 80.4584 104.06 71.99C104.06 63.5216 107.424 55.4001 113.412 49.4121C119.4 43.424 127.522 40.06 135.99 40.06C144.458 40.06 152.58 43.424 158.568 49.4121C164.556 55.4001 167.92 63.5216 167.92 71.99ZM151.93 72C151.93 67.7724 150.251 63.718 147.261 60.7287C144.272 57.7394 140.218 56.06 135.99 56.06C131.762 56.06 127.708 57.7394 124.719 60.7287C121.729 63.718 120.05 67.7724 120.05 72C120.05 76.2275 121.729 80.2819 124.719 83.2713C127.708 86.2606 131.762 87.94 135.99 87.94C140.218 87.94 144.272 86.2606 147.261 83.2713C150.251 80.2819 151.93 76.2275 151.93 72Z" fill="white"/>
<path d="M119.92 303.99C119.92 310.337 117.399 316.423 112.911 320.911C108.423 325.399 102.337 327.92 95.99 327.92C89.6434 327.92 83.5567 325.399 79.0689 320.911C74.5812 316.423 72.06 310.337 72.06 303.99C72.06 300.847 72.679 297.736 73.8816 294.832C75.0842 291.929 76.8468 289.291 79.0689 287.069C81.291 284.847 83.9291 283.084 86.8324 281.882C89.7357 280.679 92.8475 280.06 95.99 280.06C99.1325 280.06 102.244 280.679 105.148 281.882C108.051 283.084 110.689 284.847 112.911 287.069C115.133 289.291 116.896 291.929 118.098 294.832C119.301 297.736 119.92 300.847 119.92 303.99ZM103.93 304C103.93 301.897 103.095 299.88 101.607 298.393C100.12 296.905 98.1032 296.07 96 296.07C93.8968 296.07 91.8798 296.905 90.3926 298.393C88.9055 299.88 88.07 301.897 88.07 304C88.07 306.103 88.9055 308.12 90.3926 309.607C91.8798 311.095 93.8968 311.93 96 311.93C98.1032 311.93 100.12 311.095 101.607 309.607C103.095 308.12 103.93 306.103 103.93 304Z" fill="white"/>
<path d="M280 383.42C280 383.574 279.939 383.721 279.83 383.83C279.721 383.939 279.574 384 279.42 384H200.58C200.426 384 200.279 383.939 200.17 383.83C200.061 383.721 200 383.574 200 383.42V304.58C200 304.426 200.061 304.279 200.17 304.17C200.279 304.061 200.426 304 200.58 304H279.42C279.574 304 279.721 304.061 279.83 304.17C279.939 304.279 280 304.426 280 304.58V383.42ZM264 320.57C264 320.419 263.94 320.274 263.833 320.167C263.726 320.06 263.581 320 263.43 320H216.57C216.419 320 216.274 320.06 216.167 320.167C216.06 320.274 216 320.419 216 320.57V367.43C216 367.581 216.06 367.726 216.167 367.833C216.274 367.94 216.419 368 216.57 368H263.43C263.581 368 263.726 367.94 263.833 367.833C263.94 367.726 264 367.581 264 367.43V320.57Z" fill="white"/>
<path d="M471.4 304H296.6C296.269 304 296 304.269 296 304.6V319.4C296 319.731 296.269 320 296.6 320H471.4C471.731 320 472 319.731 472 319.4V304.6C472 304.269 471.731 304 471.4 304Z" fill="white"/>
<path d="M471.4 336H296.6C296.269 336 296 336.269 296 336.6V351.4C296 351.731 296.269 352 296.6 352H471.4C471.731 352 472 351.731 472 351.4V336.6C472 336.269 471.731 336 471.4 336Z" fill="white"/>
<path d="M471.47 368H296.53C296.237 368 296 368.237 296 368.53V383.47C296 383.763 296.237 384 296.53 384H471.47C471.763 384 472 383.763 472 383.47V368.53C472 368.237 471.763 368 471.47 368Z" fill="white"/>
<path d="M344 447.43C344 447.581 343.94 447.726 343.833 447.833C343.726 447.94 343.581 448 343.43 448H296.57C296.419 448 296.274 447.94 296.167 447.833C296.06 447.726 296 447.581 296 447.43V400.57C296 400.419 296.06 400.274 296.167 400.167C296.274 400.06 296.419 400 296.57 400H343.43C343.581 400 343.726 400.06 343.833 400.167C343.94 400.274 344 400.419 344 400.57V447.43ZM327.987 416.576C327.987 416.499 327.972 416.422 327.942 416.35C327.912 416.279 327.868 416.214 327.814 416.159C327.759 416.104 327.693 416.061 327.622 416.032C327.55 416.002 327.473 415.987 327.396 415.987L312.576 416.013C312.499 416.013 312.422 416.028 312.35 416.058C312.279 416.088 312.214 416.132 312.159 416.186C312.104 416.241 312.061 416.307 312.032 416.378C312.002 416.45 311.987 416.527 311.987 416.604L312.013 431.424C312.013 431.501 312.028 431.578 312.058 431.65C312.088 431.721 312.132 431.786 312.186 431.841C312.241 431.896 312.307 431.939 312.378 431.968C312.45 431.998 312.527 432.013 312.604 432.013L327.424 431.987C327.501 431.987 327.578 431.972 327.65 431.942C327.721 431.912 327.786 431.868 327.841 431.814C327.896 431.759 327.939 431.693 327.968 431.622C327.998 431.55 328.013 431.473 328.013 431.396L327.987 416.576Z" fill="white"/>
<path d="M408 447.49C408 447.625 407.946 447.755 407.851 447.851C407.755 447.946 407.625 448 407.49 448H360.51C360.375 448 360.245 447.946 360.149 447.851C360.054 447.755 360 447.625 360 447.49V400.51C360 400.375 360.054 400.245 360.149 400.149C360.245 400.054 360.375 400 360.51 400H407.49C407.625 400 407.755 400.054 407.851 400.149C407.946 400.245 408 400.375 408 400.51V447.49ZM391.987 416.576C391.987 416.499 391.972 416.422 391.942 416.35C391.912 416.279 391.868 416.214 391.814 416.159C391.759 416.104 391.693 416.061 391.622 416.032C391.55 416.002 391.473 415.987 391.396 415.987L376.576 416.013C376.499 416.013 376.422 416.028 376.35 416.058C376.279 416.088 376.214 416.132 376.159 416.186C376.104 416.241 376.061 416.307 376.032 416.378C376.002 416.45 375.987 416.527 375.987 416.604L376.013 431.424C376.013 431.501 376.028 431.578 376.058 431.65C376.088 431.721 376.132 431.786 376.186 431.841C376.241 431.896 376.307 431.939 376.378 431.968C376.45 431.998 376.527 432.013 376.604 432.013L391.424 431.987C391.501 431.987 391.578 431.972 391.65 431.942C391.721 431.912 391.786 431.868 391.841 431.814C391.896 431.759 391.939 431.693 391.968 431.622C391.998 431.55 392.013 431.473 392.013 431.396L391.987 416.576Z" fill="white"/>
<path d="M472 447.57C472 447.684 471.955 447.793 471.874 447.874C471.793 447.955 471.684 448 471.57 448H424.43C424.316 448 424.207 447.955 424.126 447.874C424.045 447.793 424 447.684 424 447.57V400.43C424 400.316 424.045 400.207 424.126 400.126C424.207 400.045 424.316 400 424.43 400H471.57C471.684 400 471.793 400.045 471.874 400.126C471.955 400.207 472 400.316 472 400.43V447.57ZM455.987 416.576C455.987 416.499 455.972 416.422 455.942 416.35C455.912 416.279 455.868 416.214 455.814 416.159C455.759 416.104 455.693 416.061 455.622 416.032C455.55 416.002 455.473 415.987 455.396 415.987L440.576 416.013C440.499 416.013 440.422 416.028 440.35 416.058C440.279 416.088 440.214 416.132 440.159 416.186C440.104 416.241 440.061 416.307 440.032 416.378C440.002 416.45 439.987 416.527 439.987 416.604L440.013 431.424C440.013 431.501 440.028 431.578 440.058 431.65C440.088 431.721 440.132 431.786 440.186 431.841C440.241 431.896 440.307 431.939 440.378 431.968C440.45 431.998 440.527 432.013 440.604 432.013L455.424 431.987C455.501 431.987 455.578 431.972 455.65 431.942C455.721 431.912 455.786 431.868 455.841 431.814C455.896 431.759 455.939 431.693 455.968 431.622C455.998 431.55 456.013 431.473 456.013 431.396L455.987 416.576Z" fill="white"/>
</svg>
