<svg xmlns="http://www.w3.org/2000/svg" xmlns:xlink="http://www.w3.org/1999/xlink" width="200" zoomAndPan="magnify" viewBox="0 0 150 149.999998" height="200" preserveAspectRatio="xMidYMid meet" version="1.0"><defs><clipPath id="857e3b19f2"><path d="M 3.585938 3.585938 L 145.984375 3.585938 L 145.984375 146.085938 L 3.585938 146.085938 Z M 3.585938 3.585938 " clip-rule="nonzero"/></clipPath></defs><g clip-path="url(#857e3b19f2)"><path fill="#ffffff" d="M 74.34375 47.738281 C 89.15625 47.460938 101.378906 59.25 101.65625 74.066406 C 101.65625 74.332031 101.65625 74.585938 101.65625 74.851562 C 101.820312 89.664062 89.957031 101.808594 75.140625 101.972656 C 60.328125 102.136719 48.183594 90.273438 48.015625 75.457031 C 48.015625 75.253906 48.015625 75.050781 48.015625 74.851562 C 47.851562 60.113281 59.605469 48.003906 74.34375 47.738281 Z M 77.214844 3.652344 C 73.21875 3.511719 69.207031 3.714844 65.246094 4.246094 C 63.84375 4.433594 62.691406 5.421875 62.273438 6.761719 L 58.328125 19.617188 C 57.984375 20.703125 57.152344 21.578125 56.074219 21.957031 C 54.214844 22.628906 52.394531 23.375 50.609375 24.222656 C 49.574219 24.726562 48.359375 24.703125 47.347656 24.15625 L 35.480469 17.859375 C 34.226562 17.199219 32.710938 17.328125 31.597656 18.1875 C 26.511719 22.046875 21.980469 26.585938 18.109375 31.660156 C 17.25 32.785156 17.125 34.292969 17.78125 35.542969 L 24.09375 47.421875 C 24.636719 48.421875 24.6875 49.636719 24.222656 50.675781 C 23.359375 52.457031 22.601562 54.28125 21.945312 56.140625 C 21.5625 57.226562 20.691406 58.0625 19.589844 58.390625 L 6.75 62.351562 C 5.394531 62.753906 4.410156 63.917969 4.234375 65.3125 C 3.371094 71.648438 3.371094 78.050781 4.234375 84.390625 C 4.410156 85.78125 5.394531 86.945312 6.75 87.347656 L 19.589844 91.308594 C 20.691406 91.636719 21.5625 92.472656 21.945312 93.5625 C 22.601562 95.421875 23.359375 97.242188 24.222656 99.027344 C 24.6875 100.0625 24.636719 101.277344 24.09375 102.277344 L 17.78125 114.15625 C 17.125 115.394531 17.25 116.914062 18.109375 118.039062 C 21.980469 123.113281 26.511719 127.640625 31.597656 131.511719 C 32.710938 132.375 34.226562 132.488281 35.480469 131.84375 L 47.347656 125.542969 C 48.359375 125 49.574219 124.972656 50.609375 125.464844 C 52.394531 126.3125 54.214844 127.074219 56.074219 127.730469 C 57.152344 128.109375 57.984375 128.984375 58.328125 130.070312 L 62.273438 142.925781 C 62.691406 144.277344 63.84375 145.265625 65.246094 145.441406 C 71.574219 146.300781 77.988281 146.300781 84.3125 145.441406 C 85.703125 145.265625 86.867188 144.277344 87.285156 142.925781 L 91.234375 130.070312 C 91.574219 128.984375 92.410156 128.109375 93.484375 127.730469 C 95.34375 127.074219 97.179688 126.3125 98.949219 125.464844 C 99.988281 124.972656 101.1875 125 102.203125 125.542969 L 114.082031 131.84375 C 115.332031 132.488281 116.851562 132.375 117.964844 131.511719 C 123.050781 127.640625 127.578125 123.113281 131.449219 118.039062 C 132.308594 116.914062 132.4375 115.394531 131.777344 114.15625 L 125.480469 102.277344 C 124.921875 101.277344 124.882812 100.0625 125.351562 99.027344 C 126.199219 97.242188 126.960938 95.421875 127.617188 93.5625 C 127.996094 92.472656 128.871094 91.636719 129.96875 91.308594 L 142.824219 87.347656 C 144.164062 86.933594 145.152344 85.78125 145.339844 84.390625 C 146.1875 78.050781 146.1875 71.648438 145.339844 65.3125 C 145.152344 63.917969 144.164062 62.753906 142.824219 62.351562 L 129.96875 58.390625 C 128.871094 58.0625 127.996094 57.226562 127.617188 56.140625 C 126.960938 54.28125 126.199219 52.457031 125.351562 50.675781 C 124.882812 49.636719 124.921875 48.421875 125.480469 47.421875 L 131.777344 35.542969 C 132.4375 34.292969 132.308594 32.785156 131.449219 31.660156 C 127.578125 26.585938 123.050781 22.046875 117.964844 18.1875 C 116.851562 17.328125 115.332031 17.199219 114.082031 17.859375 L 102.203125 24.15625 C 101.1875 24.703125 99.988281 24.726562 98.949219 24.234375 C 97.179688 23.386719 95.34375 22.628906 93.484375 21.96875 C 92.410156 21.589844 91.574219 20.714844 91.234375 19.617188 L 87.285156 6.777344 C 86.867188 5.421875 85.703125 4.433594 84.3125 4.246094 C 81.960938 3.929688 79.59375 3.726562 77.214844 3.652344 " fill-opacity="1" fill-rule="nonzero"/></g></svg>