<svg xmlns="http://www.w3.org/2000/svg" xmlns:xlink="http://www.w3.org/1999/xlink" width="200" zoomAndPan="magnify" viewBox="0 0 150 149.999998" height="200" preserveAspectRatio="xMidYMid meet" version="1.0"><defs><clipPath id="b2f00d5510"><path d="M 53 30.75 L 98 30.75 L 98 75 L 53 75 Z M 53 30.75 " clip-rule="nonzero"/></clipPath><clipPath id="65abbae9f7"><path d="M 37.453125 73.347656 L 113.722656 73.347656 L 113.722656 119.140625 L 37.453125 119.140625 Z M 37.453125 73.347656 " clip-rule="nonzero"/></clipPath><clipPath id="0a7731d26a"><path d="M 98.164062 66.519531 L 150 66.519531 L 150 103.328125 L 98.164062 103.328125 Z M 98.164062 66.519531 " clip-rule="nonzero"/></clipPath></defs><g clip-path="url(#b2f00d5510)"><path fill="#ebf0f2" d="M 53.597656 52.726562 C 53.597656 40.644531 63.390625 30.851562 75.472656 30.851562 C 87.554688 30.851562 97.347656 40.644531 97.347656 52.726562 C 97.347656 64.808594 87.554688 74.601562 75.472656 74.601562 C 63.390625 74.601562 53.597656 64.808594 53.597656 52.726562 " fill-opacity="1" fill-rule="nonzero"/></g><g clip-path="url(#65abbae9f7)"><path fill="#ebf0f2" d="M 113.070312 107.175781 L 109.949219 95.152344 C 107.40625 85.355469 100.546875 77.585938 91.722656 73.660156 C 87.234375 77.152344 81.597656 79.234375 75.472656 79.234375 C 69.34375 79.234375 63.707031 77.152344 59.21875 73.660156 C 50.398438 77.585938 43.535156 85.355469 40.992188 95.152344 L 37.875 107.175781 C 36.304688 113.230469 40.875 119.136719 47.128906 119.136719 L 103.816406 119.136719 C 110.070312 119.136719 114.640625 113.230469 113.070312 107.175781 " fill-opacity="1" fill-rule="nonzero"/></g><path fill="#ebf0f2" d="M 13.859375 49.925781 C 13.859375 40.253906 21.699219 32.414062 31.367188 32.414062 C 41.039062 32.414062 48.878906 40.253906 48.878906 49.925781 C 48.878906 59.59375 41.039062 67.433594 31.367188 67.433594 C 21.699219 67.433594 13.859375 59.59375 13.859375 49.925781 " fill-opacity="1" fill-rule="nonzero"/><path fill="#ebf0f2" d="M 36.980469 94.992188 C 39.414062 85.621094 45.214844 77.828125 52.882812 72.777344 C 50.492188 70.195312 47.601562 68.113281 44.375 66.679688 C 40.785156 69.476562 36.269531 71.144531 31.367188 71.144531 C 26.464844 71.144531 21.949219 69.476562 18.359375 66.679688 C 11.296875 69.820312 5.804688 76.042969 3.769531 83.882812 L 1.273438 93.507812 C 0.015625 98.355469 3.675781 103.082031 8.679688 103.082031 L 34.882812 103.082031 L 36.980469 94.992188 " fill-opacity="1" fill-rule="nonzero"/><path fill="#ebf0f2" d="M 137.191406 49.925781 C 137.191406 40.253906 129.351562 32.414062 119.683594 32.414062 C 110.011719 32.414062 102.171875 40.253906 102.171875 49.925781 C 102.171875 59.59375 110.011719 67.433594 119.683594 67.433594 C 129.351562 67.433594 137.191406 59.59375 137.191406 49.925781 " fill-opacity="1" fill-rule="nonzero"/><g clip-path="url(#0a7731d26a)"><path fill="#ebf0f2" d="M 114.066406 94.992188 C 111.636719 85.621094 105.835938 77.828125 98.167969 72.777344 C 100.558594 70.195312 103.449219 68.113281 106.675781 66.679688 C 110.265625 69.476562 114.777344 71.144531 119.683594 71.144531 C 124.585938 71.144531 129.097656 69.476562 132.691406 66.679688 C 139.753906 69.820312 145.242188 76.042969 147.277344 83.882812 L 149.777344 93.507812 C 151.035156 98.355469 147.375 103.082031 142.367188 103.082031 L 116.167969 103.082031 L 114.066406 94.992188 " fill-opacity="1" fill-rule="nonzero"/></g></svg>