<svg width="200" height="200" viewBox="0 0 200 200" fill="none" xmlns="http://www.w3.org/2000/svg">
<g clip-path="url(#clip0_13_117)">
<path d="M137.66 72.02C135.1 60.09 131.63 51.4 120.45 45.17C120.319 45.0959 120.211 44.9869 120.14 44.8557C120.069 44.7246 120.038 44.5769 120.05 44.43C121.28 24.97 139.94 11.81 158.72 17.92C180.13 24.89 186.48 54.04 167.81 68.65C159.397 75.2234 149.537 76.5633 138.23 72.67C138.087 72.6207 137.959 72.5348 137.859 72.4208C137.759 72.3068 137.69 72.1686 137.66 72.02Z" fill="white"/>
<path d="M32.9399 69.31C21.1099 61.21 16.5899 46.34 23.2299 33.54C37.3399 6.34001 78.45 16.24 78.65 46.84C78.6499 46.996 78.6138 47.1501 78.5444 47.2905C78.4751 47.4309 78.3744 47.5539 78.25 47.65C71.4433 52.9033 67.2233 59.53 65.5899 67.53C65.2566 69.1567 64.8899 70.3933 64.4899 71.24C64.3478 71.5307 64.1067 71.7611 63.81 71.89C52.8166 76.7367 42.5266 75.8767 32.9399 69.31Z" fill="white"/>
<path d="M81.0428 96.4978C92.8448 107.698 111.325 107.385 122.32 95.7989C133.314 84.2132 132.659 65.7419 120.857 54.5422C109.055 43.3424 90.5749 43.6553 79.5805 55.2411C68.586 66.8268 69.2407 85.2981 81.0428 96.4978Z" fill="white"/>
<path d="M0 144.69V111.69C1.63 92.56 15.86 79.18 34.69 76.61C38.9433 76.03 48.8067 75.9567 64.28 76.39C64.4438 76.3948 64.5997 76.4603 64.7165 76.5734C64.8333 76.6865 64.9024 76.8389 64.91 77C65.35 86.3267 68.94 94.1867 75.68 100.58C75.7431 100.64 75.79 100.716 75.8163 100.799C75.8427 100.882 75.8476 100.971 75.8307 101.057C75.8137 101.142 75.7755 101.222 75.7194 101.289C75.6634 101.356 75.5914 101.408 75.51 101.44C58.8167 107.8 48.53 119.42 44.65 136.3C43.46 141.5 43.65 147.51 43.46 153.16C43.4575 153.224 43.4422 153.286 43.4149 153.343C43.3876 153.401 43.349 153.452 43.3013 153.494C43.2536 153.536 43.1979 153.568 43.1375 153.588C43.0771 153.608 43.0134 153.615 42.95 153.61C27.61 152.33 15.16 149.79 1.71 146.38C1.39147 146.295 1.11089 146.113 0.91 145.86L0 144.69Z" fill="white"/>
<path d="M200 114.56L200.05 141.41C186.52 148.85 172.97 150.18 158.02 152.31C157.957 152.319 157.893 152.314 157.833 152.296C157.772 152.279 157.716 152.248 157.669 152.207C157.621 152.167 157.583 152.116 157.558 152.06C157.532 152.003 157.519 151.942 157.52 151.88C157.79 133.18 154.74 118.42 138.59 107.57C135.48 105.47 130.92 103.51 127.16 101.31C127.104 101.275 127.056 101.228 127.021 101.172C126.985 101.116 126.964 101.053 126.957 100.987C126.95 100.922 126.959 100.855 126.982 100.793C127.005 100.731 127.042 100.675 127.09 100.63C133.87 94.2633 137.35 86.38 137.53 76.98C137.533 76.8181 137.597 76.6633 137.711 76.5479C137.824 76.4324 137.978 76.3651 138.14 76.36C144.907 76.18 153.27 76.2267 163.23 76.5C184.41 77.1 198.7 94.04 200 114.56Z" fill="white"/>
<path d="M123.94 108.03C138.58 112.42 149.85 125.01 150.87 140.59C151.537 150.823 151.18 162.3 149.8 175.02C149.782 175.172 149.724 175.315 149.633 175.437C149.541 175.558 149.42 175.652 149.28 175.71C128.37 184.49 103.95 185.11 82 182.25C75.6134 181.417 65.1734 178.993 50.68 174.98C50.5441 174.944 50.4246 174.862 50.341 174.747C50.2574 174.633 50.2147 174.493 50.22 174.35C50.66 162.18 49.94 145.44 51.61 136.53C54.2 122.69 65.14 111.71 78.65 107.93C86.77 105.65 97.68 106.49 106.91 106.49C114.823 106.49 120.5 107.003 123.94 108.03Z" fill="white"/>
</g>
<defs>
<clipPath id="clip0_13_117">
<rect width="200" height="200" fill="white"/>
</clipPath>
</defs>
</svg>
