<svg xmlns="http://www.w3.org/2000/svg" xmlns:xlink="http://www.w3.org/1999/xlink" width="200" zoomAndPan="magnify" viewBox="0 0 150 149.999998" height="200" preserveAspectRatio="xMidYMid meet" version="1.0"><defs><clipPath id="6b2825d1e9"><path d="M 0.28125 118 L 59 118 L 59 150 L 0.28125 150 Z M 0.28125 118 " clip-rule="nonzero"/></clipPath></defs><path fill="#ffffff" d="M 77.105469 125.269531 L 71.375 125.269531 C 70.402344 125.269531 69.570312 124.542969 69.398438 123.609375 L 68.496094 118.214844 C 67.246094 117.695312 66.097656 117.039062 65.058594 116.242188 L 59.886719 118.144531 C 58.984375 118.488281 57.941406 118.109375 57.457031 117.277344 L 54.609375 112.332031 C 54.121094 111.46875 54.332031 110.429688 55.058594 109.808594 L 59.296875 106.316406 C 59.191406 105.660156 59.15625 105 59.15625 104.34375 C 59.15625 103.652344 59.191406 102.996094 59.296875 102.375 L 55.058594 98.878906 C 54.332031 98.257812 54.121094 97.1875 54.609375 96.320312 L 57.457031 91.410156 C 57.941406 90.546875 58.984375 90.199219 59.886719 90.511719 L 65.058594 92.414062 C 66.097656 91.617188 67.246094 90.960938 68.496094 90.441406 L 69.398438 85.046875 C 69.570312 84.113281 70.402344 83.386719 71.375 83.386719 L 77.105469 83.386719 C 78.074219 83.386719 78.910156 84.113281 79.082031 85.046875 L 79.984375 90.441406 C 81.199219 90.960938 82.378906 91.617188 83.421875 92.414062 L 88.558594 90.511719 C 89.496094 90.199219 90.503906 90.546875 90.988281 91.410156 L 93.871094 96.320312 C 94.355469 97.1875 94.148438 98.257812 93.382812 98.878906 L 89.183594 102.339844 C 89.253906 102.996094 89.289062 103.652344 89.289062 104.34375 C 89.289062 105 89.253906 105.660156 89.183594 106.316406 L 93.382812 109.808594 C 94.148438 110.429688 94.355469 111.46875 93.871094 112.332031 L 90.988281 117.277344 C 90.503906 118.109375 89.496094 118.488281 88.558594 118.144531 L 83.421875 116.242188 C 82.378906 117.039062 81.199219 117.695312 79.984375 118.214844 L 79.082031 123.609375 C 78.910156 124.542969 78.074219 125.269531 77.105469 125.269531 Z M 74.222656 110.882812 C 77.867188 110.882812 80.816406 107.941406 80.816406 104.34375 C 80.816406 100.714844 77.867188 97.773438 74.222656 97.773438 C 70.613281 97.773438 67.660156 100.714844 67.660156 104.34375 C 67.660156 107.941406 70.613281 110.882812 74.222656 110.882812 Z M 74.222656 100.023438 C 76.617188 100.023438 78.5625 101.957031 78.5625 104.34375 C 78.5625 106.695312 76.617188 108.667969 74.222656 108.667969 C 71.828125 108.667969 69.882812 106.695312 69.882812 104.34375 C 69.882812 101.957031 71.828125 100.023438 74.222656 100.023438 Z M 74.222656 100.023438 " fill-opacity="1" fill-rule="evenodd"/><g clip-path="url(#6b2825d1e9)"><path fill="#ffffff" d="M 56.378906 149.960938 L 45.6875 149.960938 L 45.6875 141.625 L 58.394531 141.625 L 58.394531 147.957031 C 58.394531 149.0625 57.488281 149.960938 56.378906 149.960938 Z M 29.335938 142.144531 C 29.960938 142.144531 30.449219 141.625 30.449219 141.003906 L 30.449219 137.476562 C 30.449219 136.855469 29.960938 136.371094 29.335938 136.371094 C 28.710938 136.371094 28.226562 136.855469 28.226562 137.476562 L 28.226562 141.003906 C 28.226562 141.625 28.710938 142.144531 29.335938 142.144531 Z M 45.6875 139.414062 L 45.6875 137.546875 C 45.6875 136.921875 45.167969 136.4375 44.578125 136.4375 C 43.953125 136.4375 43.429688 136.921875 43.429688 137.546875 L 43.429688 149.960938 L 15.207031 149.960938 L 15.207031 137.546875 C 15.207031 136.921875 14.722656 136.4375 14.097656 136.4375 C 13.472656 136.4375 12.988281 136.921875 12.988281 137.546875 L 12.988281 139.414062 L 0.28125 139.414062 L 0.28125 134.363281 C 0.28125 125.785156 7.292969 118.765625 15.9375 118.765625 L 21.039062 118.765625 C 21.5625 118.765625 22.082031 119.007812 22.464844 119.390625 L 29.335938 126.410156 L 36.175781 119.390625 C 36.558594 119.007812 37.078125 118.765625 37.632812 118.765625 L 42.738281 118.765625 C 51.378906 118.765625 58.394531 125.785156 58.394531 134.363281 L 58.394531 139.414062 Z M 12.988281 141.625 L 12.988281 149.960938 L 2.292969 149.960938 C 1.183594 149.960938 0.28125 149.0625 0.28125 147.957031 L 0.28125 141.625 Z M 12.988281 141.625 " fill-opacity="1" fill-rule="evenodd"/></g><path fill="#ffffff" d="M 29.335938 118.628906 C 21.976562 118.628906 15.9375 112.644531 15.867188 105.242188 L 15.832031 101.371094 C 15.832031 100.265625 16.699219 99.363281 17.8125 99.363281 C 18.957031 99.328125 19.824219 100.230469 19.824219 101.335938 L 19.859375 105.210938 C 19.929688 110.429688 24.164062 114.652344 29.335938 114.652344 C 34.542969 114.652344 38.777344 110.429688 38.777344 105.242188 L 38.777344 101.507812 C 38.777344 100.402344 39.683594 99.503906 40.792969 99.503906 C 41.902344 99.503906 42.769531 100.402344 42.769531 101.507812 L 42.769531 105.242188 C 42.769531 112.609375 36.730469 118.628906 29.335938 118.628906 Z M 29.335938 118.628906 " fill-opacity="1" fill-rule="evenodd"/><path fill="#ffffff" d="M 40.792969 103.480469 C 40.617188 103.480469 40.480469 103.480469 40.339844 103.445312 C 39.265625 103.203125 38.605469 102.164062 38.8125 101.128906 C 38.988281 100.125 39.160156 97.253906 37.808594 95.628906 C 36.382812 93.933594 33.398438 93.726562 29.128906 94.9375 C 28.503906 95.109375 27.84375 94.972656 27.359375 94.59375 C 26.558594 94.003906 24.09375 92.449219 22.21875 92.449219 C 21.421875 92.449219 21.074219 92.722656 20.832031 93 C 20.207031 93.65625 19.269531 95.628906 19.859375 101.128906 C 19.964844 102.164062 19.234375 103.132812 18.226562 103.308594 C 17.1875 103.480469 16.179688 102.859375 15.902344 101.855469 C 13.992188 94.660156 15.9375 90.0625 17.949219 87.46875 C 20.554688 84.113281 24.824219 82.105469 29.40625 82.105469 C 34.023438 82.105469 38.15625 84.007812 40.722656 87.363281 C 42.738281 89.992188 44.714844 94.625 42.703125 101.992188 C 42.460938 102.890625 41.660156 103.480469 40.792969 103.480469 Z M 40.792969 103.480469 " fill-opacity="1" fill-rule="evenodd"/><path fill="#ffffff" d="M 37.632812 122.777344 C 36.835938 122.777344 36.105469 122.292969 35.757812 121.53125 L 33.398438 115.722656 C 32.980469 114.71875 33.46875 113.542969 34.507812 113.128906 C 35.515625 112.714844 36.695312 113.199219 37.113281 114.234375 L 39.472656 120.011719 C 39.890625 121.050781 39.402344 122.191406 38.398438 122.605469 C 38.121094 122.707031 37.875 122.777344 37.632812 122.777344 Z M 37.632812 122.777344 " fill-opacity="1" fill-rule="evenodd"/><path fill="#ffffff" d="M 21.039062 122.777344 C 20.796875 122.777344 20.519531 122.707031 20.277344 122.605469 C 19.269531 122.191406 18.75 121.050781 19.164062 120.011719 L 21.5625 114.234375 C 21.976562 113.199219 23.125 112.714844 24.164062 113.128906 C 25.171875 113.542969 25.691406 114.71875 25.277344 115.722656 L 22.878906 121.53125 C 22.566406 122.292969 21.839844 122.777344 21.039062 122.777344 Z M 21.039062 122.777344 " fill-opacity="1" fill-rule="evenodd"/><path fill="#ffffff" d="M 148.269531 149.960938 L 137.574219 149.960938 L 137.574219 141.625 L 150.28125 141.625 L 150.28125 147.957031 C 150.28125 149.0625 149.378906 149.960938 148.269531 149.960938 Z M 121.226562 142.144531 C 121.851562 142.144531 122.335938 141.625 122.335938 141.003906 L 122.335938 137.476562 C 122.335938 136.855469 121.851562 136.371094 121.226562 136.371094 C 120.601562 136.371094 120.113281 136.855469 120.113281 137.476562 L 120.113281 141.003906 C 120.113281 141.625 120.601562 142.144531 121.226562 142.144531 Z M 137.574219 139.414062 L 137.574219 137.546875 C 137.574219 136.921875 137.089844 136.4375 136.464844 136.4375 C 135.839844 136.4375 135.355469 136.921875 135.355469 137.546875 L 135.355469 149.960938 L 107.132812 149.960938 L 107.132812 137.546875 C 107.132812 136.921875 106.609375 136.4375 105.984375 136.4375 C 105.394531 136.4375 104.875 136.921875 104.875 137.546875 L 104.875 139.414062 L 92.167969 139.414062 L 92.167969 134.363281 C 92.167969 125.785156 99.183594 118.765625 107.824219 118.765625 L 112.929688 118.765625 C 113.484375 118.765625 114.003906 119.007812 114.351562 119.390625 L 121.226562 126.410156 L 128.097656 119.390625 C 128.480469 119.007812 129 118.765625 129.523438 118.765625 L 134.625 118.765625 C 143.269531 118.765625 150.28125 125.785156 150.28125 134.363281 L 150.28125 139.414062 Z M 104.875 141.625 L 104.875 149.960938 L 94.183594 149.960938 C 93.070312 149.960938 92.167969 149.0625 92.167969 147.957031 L 92.167969 141.625 Z M 104.875 141.625 " fill-opacity="1" fill-rule="evenodd"/><path fill="#ffffff" d="M 121.226562 118.628906 C 113.867188 118.628906 107.824219 112.644531 107.757812 105.242188 L 107.722656 101.371094 C 107.722656 100.265625 108.589844 99.363281 109.699219 99.363281 C 109.734375 99.363281 109.734375 99.363281 109.734375 99.363281 C 110.847656 99.363281 111.714844 100.230469 111.75 101.335938 L 111.785156 105.210938 C 111.816406 110.429688 116.054688 114.652344 121.226562 114.652344 C 126.433594 114.652344 130.667969 110.429688 130.667969 105.242188 L 130.667969 101.507812 C 130.667969 100.402344 131.570312 99.503906 132.679688 99.503906 C 133.792969 99.503906 134.695312 100.402344 134.695312 101.507812 L 134.695312 105.242188 C 134.695312 112.609375 128.65625 118.628906 121.226562 118.628906 Z M 121.226562 118.628906 " fill-opacity="1" fill-rule="evenodd"/><path fill="#ffffff" d="M 132.679688 103.480469 C 132.542969 103.480469 132.367188 103.480469 132.230469 103.445312 C 131.1875 103.203125 130.496094 102.164062 130.703125 101.128906 C 130.910156 100.125 131.050781 97.253906 129.695312 95.628906 C 128.308594 93.933594 125.320312 93.726562 121.015625 94.9375 C 120.425781 95.109375 119.765625 94.972656 119.246094 94.59375 C 118.449219 94.003906 115.984375 92.449219 114.109375 92.449219 C 113.34375 92.449219 112.964844 92.722656 112.71875 93 C 112.128906 93.65625 111.191406 95.628906 111.75 101.128906 C 111.851562 102.164062 111.125 103.132812 110.117188 103.308594 C 109.074219 103.480469 108.070312 102.859375 107.824219 101.855469 C 105.882812 94.660156 107.859375 90.0625 109.839844 87.46875 C 112.441406 84.113281 116.710938 82.105469 121.328125 82.105469 C 125.910156 82.105469 130.042969 84.007812 132.613281 87.363281 C 134.625 89.992188 136.605469 94.625 134.625 101.992188 C 134.382812 102.890625 133.582031 103.480469 132.679688 103.480469 Z M 132.679688 103.480469 " fill-opacity="1" fill-rule="evenodd"/><path fill="#ffffff" d="M 129.523438 122.777344 C 128.722656 122.777344 127.996094 122.292969 127.683594 121.53125 L 125.285156 115.722656 C 124.871094 114.71875 125.390625 113.542969 126.398438 113.128906 C 127.4375 112.714844 128.585938 113.199219 129 114.234375 L 131.398438 120.011719 C 131.8125 121.050781 131.292969 122.191406 130.285156 122.605469 C 130.042969 122.707031 129.765625 122.777344 129.523438 122.777344 Z M 129.523438 122.777344 " fill-opacity="1" fill-rule="evenodd"/><path fill="#ffffff" d="M 112.929688 122.777344 C 112.6875 122.777344 112.40625 122.707031 112.164062 122.605469 C 111.160156 122.191406 110.671875 121.050781 111.089844 120.011719 L 113.449219 114.234375 C 113.867188 113.199219 115.046875 112.714844 116.054688 113.128906 C 117.09375 113.542969 117.582031 114.71875 117.164062 115.722656 L 114.769531 121.53125 C 114.457031 122.292969 113.726562 122.777344 112.929688 122.777344 Z M 112.929688 122.777344 " fill-opacity="1" fill-rule="evenodd"/><path fill="#ffffff" d="M 103.9375 77.644531 L 91.441406 77.644531 L 91.441406 68.167969 L 105.953125 68.167969 L 105.953125 75.640625 C 105.953125 76.746094 105.046875 77.644531 103.9375 77.644531 Z M 72.765625 70.210938 C 73.390625 70.210938 73.910156 69.691406 73.910156 69.070312 L 73.910156 66.71875 C 73.910156 66.09375 73.390625 65.609375 72.765625 65.609375 C 72.175781 65.609375 71.652344 66.09375 71.652344 66.71875 L 71.652344 69.070312 C 71.652344 69.691406 72.175781 70.210938 72.765625 70.210938 Z M 72.765625 62.601562 C 73.390625 62.601562 73.910156 62.082031 73.910156 61.496094 L 73.910156 59.109375 C 73.910156 58.519531 73.390625 58 72.765625 58 C 72.175781 58 71.652344 58.519531 71.652344 59.109375 L 71.652344 61.496094 C 71.652344 62.082031 72.175781 62.601562 72.765625 62.601562 Z M 91.441406 65.957031 L 91.441406 63.640625 C 91.441406 63.015625 90.953125 62.53125 90.328125 62.53125 C 89.703125 62.53125 89.21875 63.015625 89.21875 63.640625 L 89.21875 77.644531 L 56.34375 77.644531 L 56.34375 63.640625 C 56.34375 63.015625 55.859375 62.53125 55.234375 62.53125 C 54.609375 62.53125 54.121094 63.015625 54.121094 63.640625 L 54.121094 65.957031 L 39.613281 65.957031 L 39.613281 59.972656 C 39.613281 50.21875 47.5625 42.300781 57.316406 42.300781 L 63.21875 42.300781 C 63.773438 42.300781 64.257812 42.507812 64.640625 42.921875 L 72.765625 51.222656 L 80.886719 42.921875 C 81.269531 42.507812 81.789062 42.300781 82.34375 42.300781 L 88.210938 42.300781 C 98 42.300781 105.953125 50.21875 105.953125 59.972656 L 105.953125 65.957031 Z M 54.121094 68.167969 L 54.121094 77.644531 L 41.589844 77.644531 C 40.515625 77.644531 39.613281 76.746094 39.613281 75.640625 L 39.613281 68.167969 Z M 54.121094 68.167969 " fill-opacity="1" fill-rule="evenodd"/><path fill="#ffffff" d="M 72.765625 41.539062 C 64.46875 41.539062 57.664062 34.761719 57.558594 26.425781 L 57.523438 21.929688 C 57.523438 20.824219 58.394531 19.925781 59.503906 19.925781 C 59.503906 19.925781 59.539062 19.925781 59.539062 19.925781 C 60.613281 19.925781 61.515625 20.789062 61.515625 21.894531 L 61.585938 26.390625 C 61.65625 32.546875 66.65625 37.5625 72.765625 37.5625 C 78.945312 37.5625 83.976562 32.546875 83.976562 26.390625 L 83.976562 22.101562 C 83.976562 20.996094 84.878906 20.097656 85.957031 20.097656 C 87.066406 20.097656 87.96875 20.996094 87.96875 22.101562 L 87.96875 26.390625 C 87.96875 34.761719 81.164062 41.539062 72.765625 41.539062 Z M 72.765625 41.539062 " fill-opacity="1" fill-rule="evenodd"/><path fill="#ffffff" d="M 85.957031 24.074219 C 85.816406 24.074219 85.679688 24.074219 85.503906 24.039062 C 84.464844 23.796875 83.804688 22.761719 84.011719 21.722656 C 84.011719 21.652344 84.777344 17.503906 82.761719 15.117188 C 81.789062 13.90625 80.191406 13.355469 77.972656 13.355469 C 76.410156 13.355469 74.570312 13.628906 72.453125 14.253906 C 71.863281 14.425781 71.203125 14.289062 70.679688 13.90625 C 69.746094 13.214844 66.828125 11.347656 64.605469 11.347656 C 63.53125 11.347656 63.042969 11.761719 62.765625 12.074219 C 62.039062 12.902344 60.890625 15.222656 61.550781 21.722656 C 61.65625 22.761719 60.925781 23.695312 59.921875 23.867188 C 58.878906 24.074219 57.871094 23.453125 57.628906 22.449219 C 55.40625 14.253906 57.628906 9.03125 59.886719 6.125 C 62.835938 2.320312 67.695312 0.0390625 72.867188 0.0390625 C 78.074219 0.0390625 82.726562 2.21875 85.679688 6.023438 C 87.933594 8.960938 90.15625 14.21875 87.898438 22.585938 C 87.65625 23.488281 86.859375 24.074219 85.957031 24.074219 Z M 85.957031 24.074219 " fill-opacity="1" fill-rule="evenodd"/><path fill="#ffffff" d="M 82.34375 46.3125 C 81.546875 46.3125 80.785156 45.828125 80.472656 45.066406 L 77.761719 38.390625 C 77.347656 37.355469 77.832031 36.214844 78.839844 35.796875 C 79.882812 35.382812 81.0625 35.867188 81.476562 36.871094 L 84.183594 43.546875 C 84.601562 44.582031 84.117188 45.722656 83.109375 46.140625 C 82.832031 46.242188 82.589844 46.3125 82.34375 46.3125 Z M 82.34375 46.3125 " fill-opacity="1" fill-rule="evenodd"/><path fill="#ffffff" d="M 63.21875 46.3125 C 62.976562 46.3125 62.699219 46.242188 62.453125 46.140625 C 61.449219 45.722656 60.960938 44.582031 61.378906 43.546875 L 64.085938 36.871094 C 64.503906 35.867188 65.683594 35.347656 66.691406 35.765625 C 67.730469 36.179688 68.21875 37.355469 67.800781 38.390625 L 65.058594 45.066406 C 64.746094 45.828125 64.015625 46.3125 63.21875 46.3125 Z M 63.21875 46.3125 " fill-opacity="1" fill-rule="evenodd"/></svg>