<svg width="400" height="400" viewBox="0 0 400 400" fill="none" xmlns="http://www.w3.org/2000/svg">
<path d="M117.91 42.62C133.217 23.28 152.857 10.5133 176.83 4.32001C176.873 4.30943 176.918 4.3128 176.96 4.32961C177.001 4.34643 177.035 4.37584 177.059 4.41361C177.082 4.45138 177.093 4.49558 177.089 4.53985C177.086 4.58412 177.069 4.62619 177.04 4.66001C167.64 15.71 162.14 28.91 158.39 42.78C158.353 42.9182 158.27 43.0402 158.157 43.127C158.043 43.2138 157.903 43.2606 157.76 43.26L118.22 43.27C117.673 43.27 117.57 43.0533 117.91 42.62Z" fill="white"/>
<path d="M223.23 4.34003C247.1 9.27003 268.1 23.19 282.22 42.99C282.241 43.0172 282.254 43.0497 282.257 43.0839C282.26 43.1181 282.253 43.1524 282.238 43.1829C282.222 43.2134 282.198 43.2387 282.168 43.2559C282.138 43.2731 282.104 43.2815 282.07 43.28L242.1 43.24C241.966 43.2399 241.836 43.1972 241.728 43.1181C241.62 43.039 241.54 42.9276 241.5 42.8C237.16 29.25 232.07 15.82 222.99 4.72003C222.961 4.6811 222.944 4.63408 222.942 4.58527C222.939 4.53646 222.952 4.48817 222.978 4.44686C223.004 4.40556 223.043 4.37319 223.087 4.3541C223.132 4.33501 223.182 4.3301 223.23 4.34003Z" fill="white"/>
<path d="M197.51 10.52C210.1 6.33999 220.77 34.39 223.04 42.8C223.054 42.8533 223.055 42.9091 223.044 42.963C223.033 43.0169 223.009 43.0676 222.976 43.111C222.942 43.1545 222.898 43.1896 222.849 43.2137C222.799 43.2378 222.745 43.2502 222.69 43.25H177.29C177.235 43.2506 177.18 43.2382 177.131 43.2138C177.081 43.1894 177.038 43.1536 177.004 43.1091C176.97 43.0647 176.947 43.0128 176.936 42.9575C176.925 42.9022 176.926 42.8449 176.94 42.79C179.68 32.58 187.42 13.87 197.51 10.52Z" fill="white"/>
<path d="M291.23 60.76C291.326 60.76 291.42 60.7873 291.502 60.8386C291.583 60.8899 291.649 60.9632 291.69 61.05C296.737 71.5833 299.77 82.6733 300.79 94.32C300.797 94.4069 300.786 94.4943 300.758 94.5767C300.73 94.659 300.685 94.7346 300.627 94.7985C300.569 94.8624 300.498 94.9133 300.419 94.948C300.341 94.9827 300.256 95.0004 300.17 95H248.79C248.683 95 248.58 94.9582 248.504 94.8835C248.427 94.8087 248.383 94.707 248.38 94.6C248.053 83.5067 246.933 72.49 245.02 61.55C245.003 61.4507 245.007 61.3488 245.033 61.2514C245.059 61.154 245.106 61.0636 245.171 60.9863C245.236 60.9091 245.317 60.8471 245.408 60.8045C245.5 60.7619 245.599 60.7399 245.7 60.74L291.23 60.76Z" fill="white"/>
<path d="M153.42 61.72C153.517 61.7201 153.613 61.7414 153.701 61.7824C153.79 61.8233 153.868 61.883 153.931 61.9572C153.993 62.0314 154.039 62.1184 154.065 62.2121C154.091 62.3058 154.096 62.4041 154.08 62.5C152.24 73.34 151.14 84.2566 150.78 95.25C150.775 95.3844 150.718 95.5116 150.621 95.6048C150.524 95.698 150.395 95.7501 150.26 95.75H98.81C98.7448 95.7502 98.6802 95.7369 98.6204 95.7108C98.5606 95.6847 98.5069 95.6465 98.4627 95.5985C98.4185 95.5505 98.3848 95.4939 98.3636 95.4321C98.3425 95.3704 98.3345 95.305 98.34 95.24C99.3934 83.96 102.05 73.0666 106.31 62.56C106.407 62.3228 106.573 62.1201 106.784 61.9776C106.996 61.8351 107.246 61.7593 107.5 61.76L153.42 61.72Z" fill="white"/>
<path d="M173.12 61.74L227.84 61.76C228.001 61.7606 228.157 61.8186 228.278 61.9233C228.4 62.028 228.478 62.1724 228.5 62.33C229.96 73.25 230.98 84.2067 231.56 95.2C231.564 95.2708 231.554 95.3416 231.529 95.4082C231.505 95.4748 231.467 95.5357 231.419 95.5872C231.37 95.6387 231.311 95.6798 231.246 95.7077C231.181 95.7357 231.111 95.7501 231.04 95.75H169.82C169.732 95.75 169.644 95.7323 169.563 95.6979C169.481 95.6635 169.408 95.6131 169.346 95.5497C169.285 95.4862 169.236 95.4111 169.204 95.3287C169.172 95.2463 169.157 95.1583 169.16 95.07C169.387 84.0567 170.483 73.1333 172.45 62.3C172.478 62.1428 172.561 62.0006 172.683 61.8982C172.806 61.7959 172.96 61.7398 173.12 61.74Z" fill="white"/>
<path d="M107.28 146.92C102.327 136.407 99.3433 125.347 98.33 113.74C98.3229 113.678 98.3291 113.616 98.348 113.556C98.3669 113.497 98.3982 113.442 98.4398 113.396C98.4813 113.35 98.5323 113.313 98.5892 113.288C98.6461 113.262 98.7078 113.25 98.77 113.25H149.99C150.254 113.25 150.507 113.352 150.697 113.534C150.888 113.717 151 113.966 151.01 114.23C151.45 125.33 152.747 136.323 154.9 147.21C154.907 147.245 154.907 147.28 154.899 147.315C154.891 147.349 154.875 147.381 154.853 147.409C154.831 147.437 154.804 147.459 154.772 147.475C154.74 147.491 154.705 147.499 154.67 147.5H108.2C108.009 147.5 107.821 147.445 107.658 147.343C107.495 147.24 107.364 147.094 107.28 146.92Z" fill="white"/>
<path d="M227.52 147.04C227.495 147.169 227.426 147.286 227.326 147.37C227.225 147.454 227.1 147.5 226.97 147.5H172.05C171.923 147.499 171.8 147.453 171.704 147.37C171.609 147.288 171.547 147.174 171.53 147.05C170.017 135.97 168.977 124.847 168.41 113.68C168.407 113.624 168.416 113.569 168.435 113.517C168.455 113.465 168.484 113.417 168.523 113.377C168.561 113.337 168.607 113.305 168.658 113.283C168.709 113.261 168.764 113.25 168.82 113.25H230.17C230.258 113.25 230.346 113.268 230.427 113.302C230.509 113.336 230.582 113.387 230.644 113.45C230.705 113.514 230.754 113.589 230.786 113.671C230.818 113.754 230.833 113.842 230.83 113.93C230.617 125.05 229.513 136.087 227.52 147.04Z" fill="white"/>
<path d="M293.47 147C293.41 147.148 293.309 147.275 293.179 147.364C293.049 147.453 292.896 147.5 292.74 147.5H246.17C246.119 147.499 246.07 147.488 246.024 147.466C245.978 147.444 245.938 147.412 245.905 147.373C245.873 147.334 245.85 147.289 245.837 147.24C245.824 147.191 245.821 147.14 245.83 147.09C247.71 136.083 248.87 124.997 249.31 113.83C249.315 113.674 249.382 113.527 249.496 113.419C249.609 113.31 249.762 113.25 249.92 113.25H301.2C301.271 113.249 301.342 113.264 301.408 113.294C301.473 113.323 301.532 113.367 301.58 113.422C301.628 113.476 301.664 113.541 301.687 113.611C301.709 113.682 301.717 113.756 301.71 113.83C300.457 125.257 297.71 136.313 293.47 147Z" fill="white"/>
<path d="M176.45 203.85C152.69 198.88 131.96 185.14 117.84 165.43C117.81 165.39 117.792 165.342 117.788 165.292C117.784 165.242 117.794 165.192 117.817 165.147C117.84 165.102 117.875 165.065 117.918 165.039C117.961 165.013 118.01 165 118.06 165H157.83C158.044 165 158.252 165.071 158.421 165.201C158.589 165.332 158.709 165.514 158.76 165.72C162.24 179.527 168.203 192.133 176.65 203.54C176.863 203.82 176.797 203.923 176.45 203.85Z" fill="white"/>
<path d="M192.94 195.06C184.76 187.41 179.88 175.89 176.82 165.32C176.809 165.283 176.807 165.243 176.814 165.205C176.821 165.167 176.837 165.131 176.86 165.1C176.883 165.069 176.913 165.044 176.948 165.026C176.983 165.009 177.021 165 177.06 165H222.71C222.767 164.999 222.824 165.012 222.876 165.037C222.928 165.063 222.973 165.099 223.008 165.145C223.042 165.191 223.066 165.244 223.077 165.3C223.088 165.357 223.086 165.415 223.07 165.47C220.59 174.39 207.68 208.84 192.94 195.06Z" fill="white"/>
<path d="M281.96 165.44C269.48 184.42 244.7 198.55 223.18 203.94C223.144 203.95 223.106 203.948 223.072 203.935C223.037 203.921 223.008 203.896 222.989 203.865C222.969 203.833 222.961 203.796 222.965 203.759C222.969 203.722 222.985 203.687 223.01 203.66C232.8 191.69 237.09 179.97 241.64 165.47C241.684 165.333 241.77 165.214 241.885 165.13C242 165.045 242.138 165 242.28 165H281.72C282.073 165 282.153 165.147 281.96 165.44Z" fill="white"/>
<path d="M100.487 225.55L87.0367 216.097C86.8289 215.951 86.542 216.001 86.3959 216.209L43.581 277.129C43.4349 277.337 43.485 277.623 43.6929 277.77L57.1432 287.223C57.3511 287.369 57.638 287.319 57.7841 287.111L100.599 226.191C100.745 225.983 100.695 225.697 100.487 225.55Z" fill="white"/>
<path d="M312.943 216.117L299.525 225.547C299.313 225.696 299.261 225.99 299.411 226.202L342.203 287.089C342.352 287.301 342.645 287.352 342.857 287.203L356.275 277.773C356.487 277.624 356.539 277.33 356.389 277.118L313.597 216.231C313.448 216.019 313.155 215.968 312.943 216.117Z" fill="white"/>
<path d="M208.76 244.25H192.24C191.969 244.25 191.75 244.469 191.75 244.74V285.26C191.75 285.531 191.969 285.75 192.24 285.75H208.76C209.031 285.75 209.25 285.531 209.25 285.26V244.74C209.25 244.469 209.031 244.25 208.76 244.25Z" fill="white"/>
<path d="M81.1 319.25H4.9C4.54101 319.25 4.25 319.541 4.25 319.9V395.1C4.25 395.459 4.54101 395.75 4.9 395.75H81.1C81.459 395.75 81.75 395.459 81.75 395.1V319.9C81.75 319.541 81.459 319.25 81.1 319.25Z" fill="white"/>
<path d="M237.82 319.25H161.2C160.957 319.25 160.76 319.447 160.76 319.69V395.31C160.76 395.553 160.957 395.75 161.2 395.75H237.82C238.063 395.75 238.26 395.553 238.26 395.31V319.69C238.26 319.447 238.063 319.25 237.82 319.25Z" fill="white"/>
<path d="M395.31 319.25H318.69C318.447 319.25 318.25 319.447 318.25 319.69V395.31C318.25 395.553 318.447 395.75 318.69 395.75H395.31C395.553 395.75 395.75 395.553 395.75 395.31V319.69C395.75 319.447 395.553 319.25 395.31 319.25Z" fill="white"/>
</svg>
